<svg width="173" height="173" viewBox="0 0 173 173" fill="none" xmlns="http://www.w3.org/2000/svg">
<circle cx="86.5" cy="86.5" r="86.5" fill="#992740"/>
<g clip-path="url(#clip0_226_1309)">
<path d="M53.684 113.585C50.8519 116.418 48.1282 119.139 45.4045 121.86C44.0031 123.26 43.3649 123.251 41.9426 121.831C40.6412 120.531 39.3399 119.231 38.0385 117.935C36.6412 116.539 36.6496 115.902 38.076 114.477C42.7893 109.769 47.49 105.056 52.2241 100.369C52.7455 99.8522 52.8247 99.4397 52.5661 98.7606C52.0656 97.4398 51.6902 96.069 51.2231 94.5941C49.5296 94.5941 47.7653 94.5941 46.001 94.5941C44.2116 94.5941 43.6819 94.0816 43.6819 92.3358C43.6819 88.2818 43.6819 84.2236 43.6819 80.1696C43.6819 78.4822 44.2199 77.9572 45.9384 77.953C47.7027 77.953 49.4671 77.953 51.2856 77.953C52.1407 74.4865 53.3795 71.2366 55.1271 68.1867C56.245 66.2368 56.2366 66.2326 54.6308 64.6285C53.9426 63.941 53.2377 63.2744 52.5745 62.5619C51.8028 61.7286 51.7778 60.8745 52.5703 60.0703C55.2773 57.3288 58.001 54.6122 60.7413 51.9081C61.5797 51.0832 62.4473 51.104 63.3065 51.9456C64.5161 53.1331 65.684 54.3664 66.9144 55.6247C70.5933 53.2873 74.4389 51.5915 78.6642 50.6249C78.6642 48.7791 78.6642 46.9792 78.6642 45.1834C78.6683 43.5543 79.2147 43.0085 80.8539 43.0085C84.9499 43.0085 89.0458 43.0043 93.1417 43.0085C94.7726 43.0085 95.3232 43.5626 95.3274 45.1917C95.3315 46.9875 95.3274 48.7833 95.3274 50.4665C97.4421 51.2082 99.4733 51.804 101.409 52.629C103.315 53.4373 105.121 54.4789 107.173 55.5205C108.174 54.4955 109.271 53.3539 110.389 52.2331C111.607 51.0082 112.349 51.004 113.555 52.2081C115.786 54.4289 118.005 56.6621 120.207 58.8662C120.841 58.2537 121.4 57.7079 122.059 57.0705C120.679 55.6997 119.286 54.3081 117.88 52.9331C117.259 52.3248 116.729 51.6915 117.104 50.7499C117.492 49.7666 118.318 49.6582 119.244 49.6624C124.416 49.6791 129.588 49.6666 134.76 49.6707C136.445 49.6707 136.979 50.2124 136.979 51.9248C136.979 57.0913 136.975 62.2536 136.987 67.4201C136.987 68.3075 136.875 69.095 135.953 69.4908C135.019 69.895 134.368 69.4117 133.755 68.7825C132.374 67.3742 130.981 65.9785 129.438 64.4243C128.887 65.0202 128.416 65.566 127.911 66.0743C125.834 68.1659 123.753 70.2533 121.646 72.3199C121.246 72.7157 121.154 73.0324 121.354 73.5782C121.863 74.974 122.285 76.4031 122.785 77.9572C124.487 77.9572 126.285 77.9572 128.082 77.9572C129.784 77.9572 130.318 78.4905 130.318 80.1946C130.318 84.2861 130.322 88.3735 130.318 92.465C130.318 94.0274 129.747 94.5899 128.182 94.5982C126.381 94.6066 124.583 94.5982 122.985 94.5982C121.859 97.419 120.816 100.123 119.69 102.785C119.273 103.769 118.689 104.685 118.114 105.589C117.801 106.085 117.784 106.398 118.239 106.819C119.277 107.789 120.27 108.806 121.267 109.827C122.239 110.823 122.26 111.643 121.292 112.618C118.652 115.277 116.003 117.927 113.338 120.56C112.403 121.485 111.565 121.472 110.618 120.543C109.434 119.376 108.283 118.177 107.069 116.939C103.411 119.26 99.5609 120.947 95.3274 121.935C95.3274 123.76 95.3274 125.555 95.3274 127.351C95.3232 128.984 94.7726 129.539 93.1459 129.543C89.05 129.547 84.954 129.547 80.8581 129.543C79.2189 129.543 78.6683 128.993 78.6642 127.368C78.66 125.572 78.6642 123.772 78.6642 121.935C74.4806 120.939 70.6391 119.314 66.9603 116.939C65.8675 118.043 64.7789 119.143 63.6861 120.239C62.3388 121.585 61.6673 121.581 60.295 120.21C58.1136 118.035 55.9363 115.856 53.6756 113.593L53.684 113.585ZM118.639 75.6531L118.276 75.5281C117.696 76.1697 117.15 76.8447 116.524 77.4364C116.036 77.8947 115.915 78.2988 116.091 78.978C117.037 82.6778 117.263 86.4319 116.745 90.2192C114.56 106.252 100.195 117.606 84.0656 116.06C66.7059 114.398 54.1595 97.9731 57.5422 80.9362C59.9947 68.595 67.515 60.387 79.7111 57.3121C91.8654 54.2497 102.214 57.9829 110.397 67.5242C110.593 67.7534 110.798 67.9742 110.881 68.0659C113.208 65.7493 115.482 63.4785 117.626 61.3453C115.749 59.4704 113.801 57.5246 111.79 55.5163C110.864 56.458 109.851 57.4996 108.821 58.5246C107.699 59.6454 107.156 59.6995 105.83 58.7996C102.23 56.3621 98.3221 54.6497 94.0635 53.7456C92.2742 53.3664 92.0156 52.9956 92.0156 51.1082C92.0156 49.5291 92.0156 47.95 92.0156 46.3833H82.0218C82.0218 48.0583 82.0218 49.6791 82.0218 51.2998C82.0218 52.9498 81.7048 53.3789 80.0906 53.7206C75.7611 54.6414 71.782 56.3538 68.1282 58.8454C66.8769 59.6995 66.3055 59.6329 65.2252 58.5329C64.1907 57.4746 63.1897 56.383 62.3096 55.4538C60.1908 57.5746 58.2429 59.5204 56.2366 61.5286C57.1709 62.4494 58.2137 63.4619 59.2439 64.491C60.3618 65.6076 60.416 66.1493 59.515 67.4784C57.0708 71.0741 55.3649 74.9781 54.4598 79.2363C54.0886 80.9821 53.6923 81.2737 51.9155 81.2779C50.3013 81.2779 48.6871 81.2779 47.0896 81.2779V91.2567C48.7705 91.2567 50.393 91.2567 52.0156 91.2567C53.6715 91.2567 54.0802 91.5608 54.4306 93.1899C55.3482 97.4773 57.0458 101.423 59.515 105.048C60.4368 106.402 60.3743 106.927 59.1772 108.11C58.1511 109.127 57.1 110.123 56.2158 110.973C58.3013 113.052 60.2491 114.997 62.222 116.964C62.1553 117.01 62.222 116.977 62.2679 116.931C63.2022 116.002 64.1365 115.072 65.0708 114.143C66.368 112.852 66.8185 112.789 68.2992 113.789C71.8738 116.206 75.7611 117.877 79.9822 118.781C81.7257 119.151 82.0177 119.547 82.0177 121.326C82.0177 122.939 82.0177 124.551 82.0177 126.143H92.0114C92.0114 124.497 92.0114 122.91 92.0114 121.322C92.0114 119.543 92.2992 119.151 94.051 118.781C98.3138 117.881 102.222 116.172 105.822 113.735C107.177 112.814 107.703 112.877 108.887 114.073C109.905 115.102 110.898 116.147 111.749 117.031C113.842 114.952 115.795 113.01 117.797 111.023C116.875 110.11 115.861 109.114 114.856 108.11C113.663 106.919 113.596 106.406 114.518 105.048C116.958 101.452 118.664 97.544 119.569 93.2899C119.94 91.5442 120.333 91.2567 122.118 91.2567C123.732 91.2567 125.346 91.2567 126.939 91.2567V81.2779C125.154 81.2779 123.427 81.2862 121.696 81.2779C120.441 81.2696 119.978 80.8737 119.674 79.6446C119.34 78.3113 118.99 76.9864 118.643 75.6573L118.639 75.6531ZM113.004 80.8654C112.157 81.7487 111.398 82.4653 110.743 83.2612C110.476 83.5903 110.272 84.107 110.297 84.5194C111.156 97.0648 102.114 107.948 89.5964 109.402C74.4389 111.164 61.4671 97.8064 63.9739 82.7653C65.5839 73.1074 71.2856 66.5493 80.7246 63.9035C90.2095 61.2453 98.368 64.0285 104.929 71.3824C105.379 71.8907 105.788 72.4366 106.101 72.8199C106.944 72.0657 107.74 71.3574 108.52 70.6574C101.371 60.4495 86.7142 56.1705 74.318 62.8536C61.9509 69.5242 56.9415 84.5903 62.8101 97.4065C68.5953 110.039 83.4441 116.147 96.4035 111.164C110.297 105.823 115.561 91.64 113 80.8571L113.004 80.8654ZM122.627 53.0373C123.653 54.0164 124.466 54.7664 125.254 55.5455C126.51 56.7913 126.497 57.5121 125.225 58.7829C115.265 68.7325 105.304 78.6822 95.3399 88.6318C94.0218 89.9484 93.3294 89.9484 92.0239 88.6443C88.416 85.0444 84.8122 81.4404 81.2043 77.8405C80.9415 77.578 80.6621 77.328 80.3868 77.0739C80.245 77.1614 80.1449 77.1989 80.0781 77.2655C75.978 81.3571 71.8779 85.4444 67.7945 89.5526C67.5901 89.7609 67.4233 90.1817 67.4858 90.4442C67.7653 91.6025 68.1324 92.7358 68.5119 94.0233C68.929 93.6233 69.2085 93.3691 69.4754 93.1025C72.5453 90.0401 75.611 86.9777 78.6767 83.9153C79.9947 82.5987 80.6913 82.5903 81.9926 83.8903C85.6006 87.4902 89.2043 91.0942 92.8122 94.6941C93.075 94.9566 93.3545 95.2107 93.8842 95.7107C94.1678 95.294 94.3722 94.8732 94.685 94.5607C105.742 83.4986 116.808 72.4491 127.874 61.3995C129.133 60.1412 129.847 60.1453 131.115 61.3995C131.907 62.1828 132.695 62.9702 133.601 63.8702V53.0373H122.622H122.627ZM80.3993 86.9027C77.1167 90.1817 74.0218 93.3149 70.8727 96.394C70.2804 96.9731 70.3305 97.3523 70.7851 97.9356C76.0072 104.615 82.8352 107.498 91.1438 105.735C99.3524 103.994 104.433 98.6731 106.518 90.5525C106.789 89.4901 106.852 88.3735 107.006 87.2818L106.618 87.0652C106.401 87.3777 106.222 87.7318 105.959 87.9943C102.385 91.5817 98.8018 95.1607 95.2147 98.7356C94.051 99.898 93.2919 99.8939 92.124 98.7272C88.904 95.519 85.6881 92.3108 82.4806 89.0943C81.7966 88.411 81.1501 87.6943 80.4035 86.9027H80.3993ZM67.0354 85.5069C67.4817 85.0777 67.7361 84.8486 67.978 84.6069C71.5609 81.0321 75.1397 77.4572 78.7184 73.8823C79.978 72.624 80.6954 72.6199 81.9593 73.8823C85.5922 77.503 89.2168 81.1321 92.8456 84.7569C93.1042 85.0153 93.3795 85.2652 93.684 85.5569C96.7997 82.4445 99.8112 79.3821 102.894 76.3947C103.632 75.6781 103.707 75.2198 103.077 74.374C94.6141 63.0411 77.3253 63.816 69.9426 75.8823C68.1782 78.7655 67.2147 81.8945 67.0312 85.5152L67.0354 85.5069ZM43.7111 118.835C47.8195 114.731 51.8654 110.693 55.8946 106.639C56.0448 106.489 56.1532 106.106 56.0698 105.952C55.5359 104.969 54.9394 104.019 54.4765 103.248C50.0552 107.66 45.6756 112.035 41.2877 116.414L43.7111 118.839V118.835Z" fill="white"/>
</g>
<defs>
<clipPath id="clip0_226_1309">
<rect width="100" height="86.5385" fill="white" transform="translate(37 43)"/>
</clipPath>
</defs>
</svg>
