<svg width="100" height="100" viewBox="0 0 100 100" fill="none" xmlns="http://www.w3.org/2000/svg">
<g clip-path="url(#clip0_402_43)">
<path d="M23.0446 7.66573C23.0446 6.35875 23.0328 5.19264 23.0446 4.02653C23.072 1.72952 24.7535 -8.37572e-05 26.9395 -8.37572e-05C29.1254 -8.37572e-05 30.8148 1.72561 30.85 4.0187C30.8695 5.18481 30.85 6.35092 30.85 7.59139H69.138C69.138 6.44875 69.1301 5.31786 69.138 4.18696C69.1614 1.753 70.8312 -0.0196494 73.0837 -8.37572e-05C75.3088 0.0194819 76.9355 1.75691 76.9551 4.15175C76.9629 5.28264 76.9551 6.41745 76.9551 7.78313C78.8556 7.78313 80.674 7.6853 82.4768 7.79878C91.0917 8.34271 98.8345 15.7503 99.7926 24.3239C99.9177 25.4548 99.9842 26.5935 99.9842 27.7323C99.9959 45.3413 100.008 62.9543 99.9842 80.5634C99.9725 89.7436 93.8603 97.429 84.9326 99.4795C83.4896 99.8121 81.9723 99.9725 80.4902 99.9725C60.1516 100.004 39.8168 100.004 19.4782 99.9882C8.58736 99.9803 0.0233061 91.4262 0.0115745 80.536C-0.0079781 62.8917 0.00375349 45.2513 0.00766401 27.607C0.00766401 16.1533 8.32927 7.76748 19.791 7.66965C20.8312 7.66182 21.8675 7.66965 23.0446 7.66965V7.66573ZM7.8209 38.5677V39.6477C7.8209 53.2224 7.81699 66.797 7.8209 80.3678C7.8209 87.1179 12.8264 92.1658 19.5955 92.1737C39.8677 92.1932 60.1398 92.1932 80.412 92.1737C87.1772 92.1658 92.1749 87.1179 92.1788 80.3599C92.1866 66.7853 92.1788 53.2106 92.1788 39.6399V38.5677H7.8209ZM76.9551 15.6133C76.9551 15.9459 76.9551 16.2942 76.9551 16.6464C76.9551 18.826 76.9825 21.0095 76.9434 23.1891C76.9043 25.4352 75.1015 27.0866 72.8608 26.9966C70.7452 26.9105 69.1653 25.2357 69.1458 23.0052C69.1223 20.5399 69.1419 18.0707 69.1419 15.5507H30.8578C30.8578 15.9655 30.8578 16.3177 30.8578 16.6698C30.8578 18.8495 30.893 21.033 30.8422 23.2126C30.7913 25.3844 29.0668 27.0083 26.9277 27.0005C24.7848 26.9927 23.0993 25.3452 23.0524 23.1774C23.0211 21.843 23.0446 20.5086 23.0446 19.1742C23.0446 17.9807 23.0446 16.7872 23.0446 15.6094C12.5096 14.2633 6.57344 21.0565 7.94603 30.6397H92.1123C93.3246 19.4208 86.0314 14.4041 76.9551 15.6172V15.6133Z" fill="white"/>
<path d="M27.0335 73.0423C28.3005 73.0423 29.5714 73.0188 30.8384 73.0462C32.9931 73.0971 34.6707 74.7915 34.6903 76.9085C34.7137 79.0059 33.0479 80.7903 30.901 80.8373C28.2692 80.8921 25.6335 80.8921 23.0017 80.8373C20.8588 80.7942 19.1772 79.0098 19.189 76.9241C19.2007 74.815 20.8822 73.101 23.033 73.0501C24.3665 73.0188 25.7 73.0423 27.0296 73.0423H27.0335Z" fill="white"/>
<path d="M73.0956 73.0423C74.3626 73.0423 75.6335 73.0228 76.9005 73.0462C79.1061 73.0893 80.8228 74.8228 80.8111 76.9555C80.7993 79.0529 79.1178 80.8021 76.967 80.8412C74.3665 80.8881 71.766 80.8881 69.1655 80.8412C66.9678 80.8021 65.2628 79.0059 65.3097 76.8772C65.3566 74.7524 67.0264 73.0893 69.1929 73.0462C70.4912 73.0188 71.7934 73.0423 73.0956 73.0423Z" fill="white"/>
<path d="M50.0587 49.9979C51.3257 49.9979 52.5966 49.9745 53.8636 50.0019C56.0261 50.0527 57.6881 51.7354 57.7155 53.8602C57.7389 55.9733 56.0887 57.7499 53.9379 57.7929C51.3061 57.8477 48.6704 57.8438 46.0386 57.7929C43.8918 57.7538 42.2141 55.985 42.222 53.8876C42.2298 51.7823 43.9152 50.0566 46.0582 50.0019C47.3917 49.9666 48.7252 49.994 50.0548 49.994L50.0587 49.9979Z" fill="white"/>
<path d="M73.1151 49.9979C74.3821 49.9979 75.6531 49.9744 76.9201 50.0018C79.1139 50.0488 80.8384 51.8058 80.811 53.9345C80.7837 56.0398 79.1061 57.7615 76.9475 57.7968C74.347 57.8398 71.7465 57.8398 69.146 57.7968C66.9913 57.7576 65.3215 56.0202 65.3136 53.9149C65.3058 51.7705 67.0147 50.0448 69.2163 50.0018C70.5146 49.9783 71.8168 49.9979 73.119 49.9979H73.1151Z" fill="white"/>
<path d="M27.0139 49.9979C28.2809 49.9979 29.5519 49.9744 30.8189 50.0018C32.9775 50.0488 34.6551 51.7275 34.6942 53.8484C34.7333 55.9811 33.0283 57.7654 30.8267 57.8007C28.2575 57.8398 25.6883 57.8359 23.123 57.8007C20.9135 57.7733 19.1968 56.0358 19.1929 53.9032C19.1929 51.7705 20.9135 50.0409 23.1151 49.9979C24.4134 49.9744 25.7156 49.994 27.0178 49.994L27.0139 49.9979Z" fill="white"/>
<path d="M49.9726 73.0423C51.2748 73.0423 52.5731 73.0149 53.8714 73.0462C56.0339 73.0971 57.692 74.7915 57.7116 76.9163C57.7272 79.0255 56.077 80.7942 53.9223 80.8372C51.2905 80.892 48.6548 80.892 46.023 80.8372C43.8839 80.7942 42.2024 79.0059 42.218 76.9163C42.2337 74.8071 43.9152 73.101 46.0699 73.0462C47.3682 73.0149 48.6704 73.0423 49.9687 73.0384L49.9726 73.0423Z" fill="white"/>
</g>
<defs>
<clipPath id="clip0_402_43">
<rect width="100" height="100" fill="white"/>
</clipPath>
</defs>
</svg>
