<svg width="133" height="133" viewBox="0 0 133 133" fill="none" xmlns="http://www.w3.org/2000/svg">
<g clip-path="url(#clip0_406_218)">
<path d="M99.5162 74.408C100.379 73.5288 101.199 72.7068 102.01 71.8743C106.416 67.3481 110.816 62.8114 115.232 58.3007C120.303 53.1241 129.14 54.4455 131.977 61.0633C133.639 64.9549 133.384 68.9921 130.423 72.4883C125.675 78.1019 120.968 83.7572 116.245 89.3968C113.689 92.4507 111.112 95.4839 108.582 98.5586C103.927 104.209 97.8589 106.898 90.6426 106.95C79.5714 107.029 68.495 107.096 57.429 106.904C53.4441 106.836 50.8465 108.797 48.4307 111.451C48.2333 111.669 48.2229 112.164 48.2852 112.502C48.8099 115.441 48.0982 117.975 45.9369 120.087C41.9521 123.994 37.9881 127.927 34.0033 131.835C32.4135 133.395 31.1043 133.38 29.5249 131.793C20.0695 122.283 10.6192 112.767 1.16892 103.246C-0.394872 101.67 -0.405263 100.328 1.14294 98.7667C5.04462 94.8387 8.96708 90.9264 12.874 87.0036C14.6508 85.2139 16.7704 84.3607 19.3058 84.4699C19.6954 84.4855 20.2825 84.1578 20.4799 83.8196C29.5613 68.1128 48.6904 65.319 61.3099 70.1731C62.0528 70.4592 62.8996 70.5997 63.6997 70.6049C72.4798 70.6361 81.2599 70.6257 90.0399 70.6257C94.4559 70.6257 96.1756 71.3021 99.511 74.4184L99.5162 74.408ZM44.7472 107.481C45.0329 107.351 45.1265 107.33 45.1836 107.273C45.4122 107.075 45.646 106.878 45.8486 106.654C49.1165 103.049 53.1532 101.644 58.0212 101.722C68.7859 101.888 79.5558 101.774 90.3205 101.774C95.095 101.774 99.3603 100.338 102.883 97.0655C104.239 95.8064 105.351 94.2873 106.545 92.867C113.216 84.9121 119.892 76.9625 126.537 68.9869C128.48 66.6561 128.262 63.5397 126.132 61.646C124.074 59.8147 120.962 59.8875 118.973 61.9217C113.398 67.603 107.855 73.3155 102.327 79.0384C102.036 79.3401 101.781 79.8656 101.807 80.2662C102.166 86.0827 97.6303 91.5715 90.5387 91.431C84.0965 91.301 77.6543 91.405 71.2121 91.3998C70.6978 91.3998 70.1679 91.3998 69.6639 91.301C68.3807 91.0356 67.5546 89.9483 67.6066 88.684C67.6585 87.4198 68.5781 86.4105 69.8717 86.244C70.3861 86.1816 70.9056 86.192 71.4251 86.192C77.9972 86.192 84.5693 86.2128 91.1413 86.1816C94.882 86.1608 97.3497 82.9976 96.3782 79.5586C95.7236 77.2435 93.7026 75.8283 90.9283 75.8231C81.5456 75.8075 72.1629 75.8231 62.7801 75.8023C62.0164 75.8023 61.2008 75.7243 60.5046 75.4381C54.4053 72.9305 48.1501 72.6131 41.7963 74.1115C34.5852 75.8075 29.0002 79.8136 25.1713 86.2024C24.8128 86.8059 24.6154 87.2533 25.244 87.8828C31.7589 94.3913 38.2427 100.936 44.7524 107.492L44.7472 107.481ZM6.26032 100.973C14.9261 109.515 23.4776 117.938 32.3876 126.715C35.697 123.261 39.183 119.66 42.6171 116.008C43.6406 114.921 43.5055 113.459 42.3366 112.294C35.0943 105.041 27.8417 97.7938 20.5734 90.5674C19.3733 89.3708 17.955 89.3448 16.7704 90.505C13.2844 93.9283 9.84509 97.3984 6.25513 100.978L6.26032 100.973Z" fill="#992740"/>
<path d="M106.036 28.5572C106.036 44.3212 93.261 57.1041 77.4933 57.1197C61.7203 57.1353 48.9138 44.3732 48.8879 28.6145C48.8671 12.8089 61.6891 -0.0155937 77.4985 1.42314e-05C93.2455 0.0156221 106.036 12.8089 106.036 28.5572ZM77.353 51.9223C90.2114 51.9795 100.747 41.6054 100.831 28.7966C100.919 15.8628 90.5387 5.27548 77.7011 5.20264C64.744 5.12981 54.1715 15.483 54.0936 28.3179C54.0156 41.3245 64.4011 51.865 77.353 51.917V51.9223Z" fill="#992740"/>
<path d="M61.9125 88.4031C61.8866 89.8182 60.7644 90.9264 59.3512 90.9264C57.9173 90.9264 56.7068 89.7037 56.7432 88.2834C56.7796 86.9047 57.9537 85.7601 59.3357 85.7549C60.7903 85.7549 61.9385 86.9307 61.9125 88.3979V88.4031Z" fill="#992740"/>
<path d="M76.9374 10.3949C78.3349 10.3949 79.6233 11.477 79.4883 12.9285C79.2908 15.0512 79.7688 16.5444 81.9405 17.2779C82.4756 17.46 82.9224 17.9803 83.3432 18.4069C84.3719 19.4474 84.4342 20.8574 83.5406 21.9239C82.6314 23.0112 81.1612 23.1621 79.9351 22.2829C79.4467 21.9291 78.9895 21.5233 78.4648 21.2267C77.3998 20.6128 76.3035 20.5816 75.3216 21.3932C74.4384 22.1216 74.1163 23.0789 74.506 24.1818C74.9268 25.3836 75.836 25.8935 77.088 25.9819C81.0469 26.2577 83.8419 28.6301 84.6005 32.3135C85.3018 35.6952 83.6133 38.9625 80.2935 40.825C79.9403 41.0227 79.6441 41.5534 79.5766 41.9696C79.4571 42.6876 79.5766 43.4368 79.5298 44.1703C79.4467 45.6739 78.3765 46.7196 76.9633 46.73C75.5502 46.7404 74.267 45.6791 74.4021 44.2172C74.5943 42.0893 74.0748 40.6846 71.9499 39.8365C71.0199 39.462 70.2666 38.4943 69.5808 37.6775C68.6508 36.5641 68.8223 35.0969 69.8302 34.1761C70.8433 33.2552 72.2668 33.2656 73.363 34.2073C74.0176 34.7692 74.6151 35.4143 75.332 35.8721C76.4023 36.5537 77.5556 36.6005 78.5843 35.7369C79.4155 35.0397 79.7428 34.1084 79.4103 33.0575C79.0103 31.7829 78.0492 31.2574 76.7555 31.1638C72.8539 30.8776 70.0951 28.5572 69.3055 24.9258C68.5521 21.4713 70.2198 18.204 73.6176 16.3155C73.9657 16.123 74.2462 15.5819 74.3085 15.1605C74.4228 14.3957 74.3034 13.6049 74.3605 12.8297C74.4644 11.4354 75.5866 10.4105 76.9322 10.4053L76.9374 10.3949Z" fill="#992740"/>
</g>
<defs>
<clipPath id="clip0_406_218">
<rect width="133" height="133" fill="white"/>
</clipPath>
</defs>
</svg>
