<svg width="100" height="100" viewBox="0 0 100 100" fill="none" xmlns="http://www.w3.org/2000/svg">
<g clip-path="url(#clip0_402_32)">
<path d="M50.0137 8.17434e-06C77.5666 0.0156552 100.016 22.473 100 50.0157C99.9844 77.57 77.5275 100.016 49.9863 100.004C22.4334 99.9883 -0.0156358 77.527 8.17132e-06 49.9883C0.0156521 22.4339 22.4725 -0.0156388 50.0137 8.17434e-06ZM92.2289 50C92.2289 26.7016 73.3388 7.80004 50.0254 7.76875C26.7512 7.73745 7.83371 26.6234 7.77114 49.9492C7.70856 73.2397 26.716 92.2587 50.0254 92.2274C73.3427 92.1961 92.2289 73.2945 92.2289 49.9961V50Z" fill="white"/>
<path d="M46.1105 38.609C46.1105 34.8342 46.0831 31.0555 46.1222 27.2806C46.1535 24.3351 48.7895 22.4613 51.4021 23.4667C52.9938 24.0808 53.8855 25.5125 53.8895 27.5075C53.8973 33.0739 53.8895 38.6403 53.8973 44.2068C53.8973 45.5993 53.5336 47.1993 54.0889 48.3297C54.6286 49.429 56.1344 50.0548 57.2255 50.8763C60.7102 53.4972 64.2106 56.0985 67.6796 58.7389C69.5569 60.1706 69.9049 62.502 68.5752 64.2506C67.2455 65.9991 64.9145 66.3042 63.0255 64.9077C59.7012 62.4512 56.4081 59.9555 53.1034 57.4754C51.4099 56.208 49.736 54.9171 48.023 53.6771C46.7011 52.7187 46.1027 51.4513 46.1066 49.8358C46.1222 46.0922 46.1105 42.3487 46.1105 38.6051V38.609Z" fill="white"/>
</g>
<defs>
<clipPath id="clip0_402_32">
<rect width="100" height="100" fill="white"/>
</clipPath>
</defs>
</svg>
