<svg width="178" height="180" viewBox="0 0 178 180" fill="none" xmlns="http://www.w3.org/2000/svg">
<ellipse cx="88.5467" cy="90.5" rx="85.1519" ry="86.5" fill="#992740"/>
<g clip-path="url(#clip0_619_423)">
<path d="M141.213 90.037C141.131 119.302 117.601 143.12 88.8959 143C60.1539 142.879 36.7831 119.008 36.8647 89.8504C36.9504 60.6557 60.4763 36.8836 89.1734 36.9997C117.879 37.1158 141.29 60.9749 141.209 90.037H141.213ZM40.632 81.7164H42.1217C53.1949 81.7164 64.268 81.7164 75.3412 81.7164C77.0228 81.7164 78.6594 81.9319 80.1778 82.7197C84.0185 84.7055 85.7735 87.9682 85.7776 92.2799C85.7776 107.599 85.7776 122.922 85.7776 138.24V139.575H92.2427C92.4101 138.191 91.8591 136.342 93.859 136.242C95.7855 136.147 95.4957 137.921 95.61 139.289C97.4303 138.912 99.1487 138.506 100.883 138.207C101.818 138.045 102.108 137.66 102.104 136.657C102.059 126.79 102.067 116.918 102.079 107.051C102.083 102.01 104.806 98.2291 109.524 96.9895C111.038 96.5915 112.683 96.6703 114.275 96.6454C115.014 96.633 115.377 96.4671 115.675 95.7126C116.793 92.8727 119.744 91.26 122.675 91.7617C125.728 92.284 127.956 94.8047 128.148 97.9514C128.327 100.891 126.425 103.656 123.597 104.56C120.711 105.484 117.458 104.402 116.156 101.678C115.401 100.103 114.479 99.7009 112.985 99.933C112.887 99.9496 112.781 99.933 112.679 99.933C107.989 99.933 105.344 102.607 105.344 107.354C105.344 116.773 105.344 126.193 105.344 135.612V136.735C122.568 130.79 137.76 113.316 137.927 90.2816C138.086 68.284 124.16 51.1203 108.687 44.6238C108.659 44.715 108.614 44.8062 108.614 44.8975C108.614 52.248 108.552 59.5985 108.642 66.9449C108.687 70.5973 111.434 73.2548 115.034 73.4123C115.883 73.4496 116.732 73.3916 117.581 73.4372C118.262 73.4745 118.63 73.3128 118.915 72.5707C120.026 69.6894 123.013 68.0476 125.981 68.5742C129.058 69.1214 131.311 71.7374 131.417 74.9048C131.523 77.923 129.458 80.6965 126.527 81.4842C123.609 82.2719 120.442 80.9328 119.185 78.0929C118.634 76.845 117.952 76.6585 116.813 76.7248C114.801 76.8368 112.801 76.6999 110.956 75.7506C107.193 73.8145 105.373 70.6346 105.348 66.41C105.312 58.9559 105.336 51.5059 105.336 44.0517C105.336 43.5749 105.406 43.1687 104.744 42.9489C96.3732 40.1505 87.8796 39.5452 79.2349 41.3445C70.8801 43.0857 63.4721 46.8211 57.0356 52.4801C50.7011 58.048 46.044 64.8512 43.1788 72.8485C42.1666 75.6801 41.4972 78.6402 40.6238 81.7039L40.632 81.7164ZM40.436 85.033C37.8157 110.198 54.5907 130.898 72.7168 136.661C72.7168 130.413 72.7902 124.169 72.6882 117.926C72.627 114.36 69.9332 111.753 66.4231 111.554C65.4761 111.5 64.5211 111.57 63.5701 111.521C62.9783 111.492 62.7048 111.678 62.4722 112.275C61.3048 115.306 58.26 116.976 55.1744 116.35C52.1337 115.737 49.9092 113.001 49.9092 109.875C49.9092 106.745 52.1296 104.013 55.1744 103.395C58.26 102.769 61.3048 104.44 62.4722 107.47C62.7007 108.063 62.9701 108.262 63.566 108.225C64.3782 108.179 65.2149 108.1 66.0067 108.237C67.4965 108.494 69.076 108.639 70.4148 109.282C74.231 111.11 75.9656 114.389 75.9861 118.614C76.0146 124.721 75.9901 130.823 75.9983 136.93C75.9983 137.382 75.831 137.892 76.5615 138.037C78.5166 138.423 80.4553 138.866 82.5124 139.314V138.029C82.5124 122.818 82.5124 107.607 82.5124 92.396C82.5124 87.7278 79.8431 85.0372 75.2228 85.0372C64.019 85.0372 52.8112 85.0372 41.6074 85.0372H40.436V85.033ZM128.16 75.0914C128.16 73.2962 126.699 71.8037 124.932 71.7913C123.164 71.7789 121.683 73.2506 121.658 75.0458C121.634 76.8824 123.132 78.4122 124.936 78.3956C126.703 78.379 128.16 76.8865 128.16 75.0914ZM121.626 101.583C123.393 101.596 124.874 100.124 124.899 98.3286C124.923 96.5376 123.487 95.0161 121.719 94.9788C119.911 94.9374 118.393 96.4506 118.393 98.283C118.393 100.078 119.854 101.571 121.621 101.583H121.626ZM59.6845 109.887C59.6926 108.092 58.2396 106.591 56.4723 106.57C54.7091 106.55 53.2153 108.017 53.1826 109.808C53.1459 111.645 54.6397 113.183 56.4478 113.175C58.2151 113.166 59.6804 111.682 59.6886 109.887H59.6845Z" fill="white"/>
<path d="M82.3942 66.8498C80.4187 70.8381 77.8025 72.3969 74.4924 71.5843C71.5863 70.8671 69.5088 68.2221 69.4803 65.2039C69.4517 62.165 71.5618 59.4495 74.5005 58.7323C77.8066 57.9239 80.3779 59.462 82.4595 63.5953C83.8431 63.5953 85.3166 63.4461 86.7532 63.6202C91.9531 64.2504 95.5244 68.2221 95.5407 73.5453C95.5938 88.2048 95.5612 102.869 95.5571 117.528C95.5571 118.813 94.8918 119.601 93.8877 119.568C92.8959 119.539 92.2959 118.764 92.2959 117.445C92.2959 102.956 92.2878 88.466 92.2959 73.9806C92.2959 71.0702 91.1858 68.819 88.5695 67.509C87.8593 67.1524 87.0267 66.941 86.2308 66.8747C84.9533 66.771 83.6595 66.8456 82.386 66.8456L82.3942 66.8498ZM79.2473 65.1127C79.2228 63.3176 77.7453 61.8458 75.978 61.8541C74.2107 61.8665 72.7496 63.3549 72.7455 65.15C72.7455 66.9866 74.2597 68.4998 76.0678 68.4584C77.831 68.421 79.2718 66.9037 79.2514 65.1127H79.2473Z" fill="white"/>
<path d="M93.9613 123.154C94.8306 123.175 95.5653 123.942 95.5449 124.816C95.5245 125.691 94.7531 126.442 93.9001 126.421C93.0389 126.4 92.3001 125.621 92.3164 124.75C92.3328 123.871 93.096 123.129 93.9613 123.15V123.154Z" fill="white"/>
<path d="M93.9572 129.779C94.8266 129.792 95.5612 130.563 95.5449 131.437C95.5286 132.312 94.7613 133.067 93.9041 133.05C93.0429 133.034 92.3001 132.254 92.3164 131.384C92.3287 130.509 93.0919 129.762 93.9572 129.779Z" fill="white"/>
</g>
<defs>
<clipPath id="clip0_619_423">
<rect width="104.348" height="106" fill="white" transform="translate(36.865 37)"/>
</clipPath>
</defs>
</svg>
