<svg width="178" height="180" viewBox="0 0 178 180" fill="none" xmlns="http://www.w3.org/2000/svg">
<ellipse cx="88.391" cy="90.5" rx="85.1519" ry="86.5" fill="#992740"/>
<ellipse cx="88.391" cy="89.5" rx="85.1519" ry="86.5" fill="#992740"/>
<g clip-path="url(#clip0_619_466)">
<path d="M108.435 127.051C105.395 128.253 102.521 129.368 99.6727 130.55C99.4196 130.653 99.1952 131.159 99.187 131.483C99.1421 133.622 99.1748 135.761 99.1625 137.901C99.1421 141.081 97.2648 142.988 94.1467 142.996C89.9676 143.004 85.7925 143.004 81.6134 142.996C78.5484 142.992 76.6506 141.085 76.6302 137.979C76.6139 135.807 76.6057 133.63 76.6384 131.458C76.6465 130.877 76.467 130.608 75.9201 130.425C74.5039 129.957 73.0877 129.468 71.7124 128.891C70.337 128.311 69.0065 127.614 67.5006 126.893C66.215 128.211 64.8641 129.6 63.5051 130.989C63.0521 131.454 62.6072 131.935 62.1257 132.366C60.2157 134.086 57.5955 134.099 55.7712 132.287C52.5879 129.128 49.4454 125.931 46.3314 122.706C44.4092 120.716 44.4622 117.963 46.4008 115.948C48.1067 114.173 49.8576 112.44 51.4207 110.856C50.2453 107.793 49.1434 104.878 47.9843 101.984C47.8782 101.723 47.4007 101.47 47.0864 101.466C44.9479 101.42 42.8093 101.449 40.6667 101.441C37.6099 101.424 35.7325 99.5006 35.7244 96.387C35.7162 92.1083 35.7162 87.8297 35.7244 83.5511C35.7325 80.5121 37.6344 78.5842 40.63 78.5635C42.7685 78.551 44.9112 78.5386 47.0497 78.5759C47.666 78.5883 47.9598 78.3852 48.119 77.7799C48.3557 76.8844 48.6536 76.0013 48.9883 75.1348C49.3229 74.2724 50.1024 73.8951 50.8615 74.148C51.69 74.4216 52.1022 75.1969 51.8329 76.1381C51.4452 77.4938 51.033 78.8412 50.5718 80.1721C50.1759 81.3122 49.2576 81.6647 48.1435 81.6605C45.7315 81.6522 43.3195 81.6522 40.9075 81.6605C39.2669 81.6647 38.7812 82.158 38.7771 83.8081C38.7771 87.9499 38.7771 92.0876 38.7771 96.2294C38.7771 97.8256 39.275 98.3397 40.834 98.348C43.246 98.3563 45.658 98.3439 48.07 98.3522C49.6943 98.3605 50.3351 98.8538 50.7636 100.45C51.6002 103.56 52.8205 106.499 54.3714 109.306C55.1754 110.761 55.0652 111.503 53.8898 112.706C52.1879 114.443 50.4738 116.167 48.7761 117.905C47.719 118.987 47.7149 119.745 48.7638 120.811C51.69 123.792 54.6162 126.769 57.5506 129.741C58.6036 130.807 59.3504 130.803 60.4156 129.733C62.1542 127.983 63.8724 126.217 65.6069 124.468C66.7048 123.361 67.4639 123.232 68.7862 123.991C71.6348 125.624 74.6345 126.885 77.7852 127.776C79.1646 128.166 79.6503 128.85 79.6585 130.342C79.6748 132.826 79.6585 135.309 79.6666 137.793C79.6748 139.381 80.1809 139.886 81.748 139.891C85.8578 139.895 89.9676 139.895 94.0773 139.891C95.5629 139.891 96.0894 139.356 96.0975 137.83C96.1098 135.38 96.0975 132.93 96.1016 130.483C96.1098 128.813 96.5791 128.153 98.1341 127.722C101.228 126.864 104.154 125.608 106.945 124.016C108.313 123.236 109.059 123.352 110.202 124.509C111.912 126.238 113.61 127.975 115.32 129.704C116.426 130.819 117.152 130.815 118.258 129.696C121.168 126.748 124.074 123.796 126.976 120.84C128.061 119.733 128.053 118.987 126.943 117.855C125.221 116.093 123.482 114.347 121.76 112.581C120.728 111.524 120.605 110.72 121.323 109.43C122.935 106.536 124.18 103.493 125.054 100.288C125.441 98.8663 126.102 98.3605 127.555 98.348C130 98.3273 132.445 98.348 134.889 98.3397C136.514 98.3356 136.987 97.8339 136.991 96.159C136.991 92.0545 136.991 87.9499 136.991 83.8413C136.991 82.129 136.518 81.6564 134.8 81.6522C132.457 81.6481 130.114 81.6564 127.768 81.6522C126.074 81.6439 125.56 81.1174 124.964 79.5295C123.858 76.5775 122.67 73.6505 121.401 70.769C120.699 69.177 120.683 68.5136 121.899 67.2781C123.552 65.5907 125.213 63.9116 126.87 62.2283C128.074 61.0011 128.086 60.2922 126.911 59.094C124.033 56.1628 121.148 53.2357 118.263 50.3128C117.152 49.1893 116.426 49.1851 115.328 50.2921C113.594 52.0417 111.875 53.8079 110.137 55.5575C109.059 56.6396 108.272 56.7474 106.949 55.9887C104.162 54.3883 101.232 53.1404 98.1381 52.2822C96.5832 51.851 96.1057 51.1876 96.0975 49.5251C96.0894 47.0748 96.1016 44.6246 96.0935 42.1784C96.0853 40.6486 95.567 40.1179 94.0814 40.1137C89.939 40.1096 85.7925 40.1055 81.6501 40.1137C80.2135 40.1137 79.6748 40.6486 79.6626 42.0997C79.6462 44.5499 79.6626 47.0002 79.6544 49.4463C79.6503 51.2332 79.1442 51.7183 77.5036 52.3444C74.6549 53.4306 71.8348 54.6039 69.0637 55.885C67.3333 56.6852 66.7537 56.7101 65.3824 55.3212C63.7214 53.642 62.0726 51.9505 60.4075 50.2755C59.3382 49.2017 58.5954 49.1934 57.5425 50.2589C54.6081 53.2316 51.6778 56.2084 48.7516 59.1894C47.6986 60.259 47.7027 61.0177 48.7556 62.0998C50.4779 63.8619 52.2165 65.6115 53.9388 67.3735C54.8244 68.2815 54.9101 69.2143 54.1959 69.8901C53.4939 70.5576 52.6736 70.4622 51.7921 69.5709C49.9841 67.7466 48.172 65.9307 46.3926 64.0775C44.4214 62.0293 44.3928 59.2723 46.36 57.2407C49.4331 54.0691 52.5308 50.9223 55.657 47.8004C57.6118 45.8476 60.3218 45.8684 62.3093 47.8294C64.0601 49.5583 65.7579 51.3452 67.3333 52.9538C70.3697 51.7515 73.2673 50.6196 76.1446 49.4339C76.3731 49.3385 76.5772 48.87 76.5812 48.5674C76.618 46.3949 76.5894 44.2224 76.6057 42.0458C76.6547 38.928 78.5361 37.0126 81.5889 37.0084C85.8007 37.0001 90.0125 37.0001 94.2243 37.0084C97.228 37.0167 99.1299 38.9239 99.1625 41.967C99.1829 44.1768 99.1788 46.3825 99.1625 48.5923C99.1584 49.1146 99.3094 49.3634 99.8237 49.5583C102.64 50.6362 105.439 51.7681 108.427 52.9538C109.859 51.4944 111.484 49.836 113.116 48.1818C115.512 45.7523 118.107 45.7481 120.503 48.1735C123.389 51.0964 126.27 54.0235 129.147 56.9588C131.437 59.2971 131.437 61.9879 129.155 64.3221C127.506 66.0095 125.845 67.6803 124.38 69.1687C125.556 72.2243 126.645 75.114 127.8 77.9747C127.915 78.2608 128.425 78.5386 128.759 78.5469C130.898 78.5966 133.036 78.5635 135.179 78.5759C138.167 78.5966 140.064 80.5287 140.072 83.5759C140.081 87.8878 140.085 92.1996 140.072 96.5114C140.064 99.4799 138.146 101.428 135.22 101.449C133.045 101.466 130.873 101.462 128.698 101.449C128.208 101.449 127.931 101.54 127.727 102.092C126.674 104.957 125.556 107.797 124.364 110.902C125.131 111.665 126.127 112.643 127.111 113.626C127.886 114.401 128.661 115.172 129.412 115.968C131.331 118.004 131.379 120.728 129.453 122.73C126.388 125.91 123.291 129.057 120.164 132.175C118.152 134.182 115.451 134.153 113.434 132.15C111.692 130.413 109.986 128.638 108.439 127.063L108.435 127.051Z" fill="white"/>
<path d="M55.0735 91.8844C55.1429 73.1819 67.3865 59.0358 83.7112 56.9255C89.8779 56.1295 95.8161 57.025 101.485 59.6453C102.966 60.3294 103.448 61.1088 102.983 62.0748C102.517 63.0326 101.726 63.1196 100.244 62.4811C89.6331 57.9247 79.475 58.8327 70.1902 65.7523C53.1268 78.4721 54.396 104.641 72.4757 115.869C73.8511 116.723 74.2102 117.477 73.6797 118.39C73.1287 119.335 72.2431 119.397 70.8555 118.497C60.6035 111.835 55.4775 102.241 55.0735 91.8844Z" fill="white"/>
<path d="M87.8047 123.514C84.6745 123.34 81.6299 122.88 78.6465 121.997C77.2916 121.594 76.7773 120.923 77.0467 119.936C77.3242 118.916 78.1445 118.618 79.5444 119.024C94.5673 123.381 110.051 115.57 115.712 100.777C120.271 88.8703 116.712 74.9647 107.027 66.8303C106.79 66.6313 106.55 66.4406 106.329 66.225C105.648 65.5575 105.562 64.6578 106.105 64.0069C106.648 63.3518 107.594 63.2191 108.28 63.8866C110.162 65.7233 112.19 67.4605 113.769 69.5417C128.625 89.1605 118.463 117.332 94.6489 122.606C92.4083 123.104 90.0861 123.22 87.8006 123.51L87.8047 123.514Z" fill="white"/>
<path d="M68.1293 90.8232C70.7984 94.1027 73.39 97.2909 75.9815 100.479C76.1325 100.666 76.2917 100.844 76.4305 101.039C77.0059 101.847 76.9447 102.689 76.2876 103.257C75.6224 103.833 74.7817 103.779 74.1246 103.029C73.292 102.075 72.5084 101.076 71.7085 100.094C69.57 97.465 67.4314 94.8323 65.2929 92.1997C64.3991 91.0968 64.3869 90.5579 65.2602 89.4799C68.064 86.0222 70.876 82.5686 73.6838 79.1108C73.8144 78.9533 73.9409 78.7916 74.0838 78.6423C74.7735 77.9002 75.5612 77.7966 76.2468 78.3438C76.9488 78.9077 77.0427 79.8198 76.3978 80.6324C75.0796 82.2991 73.7246 83.9326 72.386 85.5785C70.9821 87.3033 69.5822 89.028 68.1293 90.8149V90.8232Z" fill="white"/>
<path d="M107.652 90.7983C105.264 87.863 102.893 84.9442 100.518 82.0254C100.15 81.5735 99.7667 81.134 99.4158 80.6697C98.7709 79.8198 98.8199 78.9616 99.5178 78.3728C100.22 77.7841 101.069 77.8712 101.75 78.6962C103.889 81.2833 105.995 83.8953 108.117 86.4989C108.962 87.5354 109.815 88.5636 110.647 89.6084C111.349 90.4874 111.361 91.1507 110.655 92.0172C107.745 95.6118 104.827 99.198 101.897 102.776C101.109 103.738 100.277 103.895 99.53 103.274C98.7587 102.635 98.7791 101.756 99.6035 100.74C102.171 97.577 104.746 94.4136 107.317 91.2502C107.423 91.1217 107.513 90.9807 107.652 90.79V90.7983Z" fill="white"/>
<path d="M93.0775 78.0037C94.0448 77.9954 94.7998 78.9407 94.5671 79.9067C94.4855 80.2384 94.3223 80.5493 94.1794 80.8603C90.9063 87.9292 87.6291 94.998 84.3519 102.067C84.2213 102.349 84.1111 102.643 83.9356 102.892C83.4745 103.551 82.8541 103.837 82.0787 103.497C81.2624 103.145 81.0217 102.473 81.2094 101.632C81.2665 101.37 81.4175 101.126 81.5318 100.877C84.8498 93.7128 88.1719 86.5527 91.4818 79.3843C91.8164 78.6588 92.2001 78.0493 93.0816 78.0037H93.0775Z" fill="white"/>
</g>
<defs>
<clipPath id="clip0_619_466">
<rect width="104.348" height="106" fill="white" transform="translate(35.7246 37)"/>
</clipPath>
</defs>
</svg>
