<svg width="180" height="180" viewBox="0 0 180 180" fill="none" xmlns="http://www.w3.org/2000/svg">
<path d="M16.3827 143.899V141.297C16.3827 115.959 16.3827 90.6215 16.3827 65.3457C16.3827 58.4073 20.1676 54.5663 27.1169 54.5663C35.0591 54.5663 42.9391 54.5663 50.8812 54.5663C52.6806 54.5663 54.0457 55.1859 54.5421 56.9824C55.1625 59.0268 53.5493 60.8853 51.0053 60.8853C45.0487 60.8853 39.1542 60.8853 33.1976 60.8853C30.8398 60.8853 28.544 60.8853 26.1862 60.8853C23.9525 60.8853 22.6495 62.1243 22.6495 64.2926C22.6495 90.5596 22.6495 116.827 22.6495 143.032C22.6495 143.217 22.7115 143.403 22.7736 143.713H156.921C156.921 143.032 156.983 142.35 156.983 141.731C156.983 116.269 156.983 90.8074 156.983 65.3457C156.983 62.0624 156.549 61.5048 153.322 60.7614C151.585 60.3897 150.468 58.9648 150.592 57.3541C150.778 55.6195 152.143 54.5044 154.067 54.5044C158.782 54.5044 163.002 58.6551 163.25 63.5492C163.25 64.2926 163.25 65.036 163.25 65.7174C163.25 90.8693 163.25 115.959 163.25 141.111V143.837C164.553 143.837 165.794 143.837 167.035 143.837C170.882 143.837 173.86 145.51 175.721 148.917C177.521 152.262 177.211 155.546 175.225 158.767C172.495 163.227 169.455 167.316 164.056 168.617C162.443 168.989 160.768 169.299 159.155 169.299C112.929 169.299 66.7655 169.299 20.5399 169.299C14.4592 169.299 9.74355 166.821 6.39297 161.803C5.58635 160.564 4.71768 159.387 3.97311 158.148C0.436384 151.891 4.65563 144.271 11.8532 143.899C13.2182 143.837 14.6453 143.899 16.3206 143.899H16.3827ZM89.9714 150.218C64.5938 150.218 39.2163 150.218 13.9008 150.218C13.2182 150.218 12.5357 150.218 11.9152 150.218C9.86765 150.528 8.3785 152.758 9.43331 154.554C12.2255 159.387 14.3351 163.104 21.6567 163.042C67.1998 162.918 112.743 162.918 158.286 163.042C165.546 163.042 167.717 159.387 170.447 154.492C171.44 152.696 170.013 150.466 167.903 150.218C167.221 150.156 166.6 150.218 165.918 150.218C140.602 150.218 115.349 150.218 90.0334 150.218H89.9714Z" fill="#7F7A77"/>
<path d="M80.2922 67.2662C77.0036 67.2662 73.9633 67.2662 70.985 67.2662C65.2766 67.2662 61.1814 63.1774 61.1194 57.478C61.1194 44.8401 61.1194 32.2022 61.1194 19.6262C61.1194 14.0507 65.2766 9.96197 70.8609 9.90002C92.0192 9.90002 113.177 9.90002 134.336 9.90002C139.982 9.90002 144.077 13.9888 144.077 19.5643C144.077 32.2641 144.077 44.964 144.077 57.6638C144.077 63.1155 139.92 67.2042 134.398 67.2662C126.828 67.2662 119.196 67.2662 111.626 67.2662C110.634 67.2662 109.517 67.6379 108.772 68.1954C101.202 73.771 93.7565 79.4084 86.2487 84.984C85.0078 85.9132 83.7668 86.7806 82.0915 85.9752C80.3542 85.1079 80.2301 83.5591 80.2301 81.8865C80.2301 77.0543 80.2301 72.2222 80.2301 67.2042L80.2922 67.2662ZM86.621 76.9304C93.4463 71.8505 99.7752 67.0184 106.228 62.3101C107.345 61.5048 108.896 61.0092 110.199 61.0092C118.141 60.8853 126.021 61.0092 133.963 60.9472C136.569 60.9472 137.748 59.7701 137.748 57.1682C137.748 44.7781 137.748 32.45 137.748 20.0599C137.748 17.3341 136.57 16.219 133.839 16.219C112.991 16.219 92.1433 16.219 71.2952 16.219C68.5651 16.219 67.3862 17.396 67.3862 20.0599C67.3862 32.3261 67.3862 44.6542 67.3862 56.9204C67.3862 59.7701 68.5651 60.8853 71.3573 60.9472C75.0181 60.9472 78.6789 60.9472 82.3397 60.9472C85.4421 60.9472 86.4969 62.0004 86.4969 65.1598C86.4969 68.9388 86.4969 72.7178 86.4969 76.9304H86.621Z" fill="#B7333E"/>
<path d="M60.6224 137.456C51.2531 137.456 41.8839 137.456 32.4527 137.456C29.04 137.456 27.9232 136.217 28.1714 132.81C29.4744 113.915 44.614 100.781 63.6006 102.02C77.9337 103.011 90.9017 115.216 92.7011 129.402C92.8252 130.579 93.0113 131.756 93.0733 132.995C93.1974 136.341 92.1426 137.456 88.792 137.456C79.4228 137.456 70.0536 137.456 60.6224 137.456ZM86.3722 131.075C85.7517 120.667 75.3277 107.1 58.3266 108.339C46.5375 109.207 34.1279 121.101 34.9966 131.075H86.3101H86.3722Z" fill="#7F7A77"/>
<path d="M73.8388 86.3469C73.8388 93.3473 68.1304 99.1706 61.057 99.1706C54.1076 99.1706 48.3372 93.4712 48.3372 86.5327C48.3372 79.5323 54.0456 73.709 61.119 73.709C68.0684 73.709 73.8388 79.4084 73.8388 86.3469ZM67.5099 86.5947C67.572 83.1255 64.7798 80.1518 61.3051 80.0899C57.7684 79.966 54.7281 82.8157 54.666 86.3469C54.604 89.8781 57.5202 92.8517 61.057 92.8517C64.5316 92.8517 67.4479 90.0639 67.5099 86.5947Z" fill="#7F7A77"/>
<path d="M89.9713 150.218C115.287 150.218 140.54 150.218 165.856 150.218C166.538 150.218 167.221 150.218 167.841 150.218C169.889 150.528 171.378 152.758 170.385 154.492C167.593 159.386 165.483 163.042 158.224 163.042C112.681 162.918 67.1377 162.918 21.5946 163.042C14.273 163.042 12.1634 159.325 9.3712 154.554C8.37844 152.758 9.80554 150.528 11.8531 150.218C12.5356 150.094 13.1561 150.218 13.8386 150.218C39.2162 150.218 64.5937 150.218 89.9092 150.218H89.9713Z" fill="#B7333E"/>
<path d="M102.443 35.2997C94.5005 35.2997 86.6204 35.2997 78.6783 35.2997C78.1199 35.2997 77.6235 35.2997 77.0651 35.2997C75.1416 35.1139 73.9006 33.8129 73.9006 32.0783C73.9006 30.3437 75.2036 29.0427 77.1271 28.9808C80.912 28.9188 84.697 28.9808 88.4819 28.9808C101.078 28.9808 113.673 28.9808 126.207 28.9808C126.765 28.9808 127.262 28.9808 127.82 28.9808C129.868 29.0427 131.233 30.2817 131.295 32.0783C131.295 33.8749 129.992 35.1758 127.944 35.2997C127.386 35.2997 126.889 35.2997 126.331 35.2997C118.327 35.2997 110.323 35.2997 102.381 35.2997H102.443Z" fill="#B7333E"/>
<path d="M102.443 48.0613C94.5005 48.0613 86.6204 48.0613 78.6783 48.0613C78.1199 48.0613 77.6235 48.0613 77.0651 48.0613C75.1416 47.8755 73.9006 46.5745 73.9006 44.8399C73.9006 43.1053 75.2036 41.8043 77.1271 41.7424C80.912 41.6804 84.697 41.7424 88.4819 41.7424C101.078 41.7424 113.673 41.7424 126.207 41.7424C126.703 41.7424 127.138 41.7424 127.634 41.7424C129.868 41.8043 131.233 42.9814 131.295 44.8399C131.295 46.6984 129.93 47.9994 127.758 48.0613C127.262 48.0613 126.827 48.0613 126.331 48.0613C118.327 48.0613 110.323 48.0613 102.381 48.0613H102.443Z" fill="#B7333E"/>
</svg>
