<svg width="139" height="139" viewBox="0 0 139 139" fill="none" xmlns="http://www.w3.org/2000/svg">
<g clip-path="url(#clip0_831_11)">
<path d="M41.6974 73.8237C40.6706 74.237 39.8719 74.3948 39.2689 74.8244C34.0153 78.5934 28.778 82.3841 23.5788 86.2237C21.0308 88.1055 18.3523 88.72 15.4729 87.2516C12.6424 85.805 11.4961 83.3304 11.5939 80.2032C11.6427 78.713 11.5993 77.2174 11.5993 75.7218C11.5993 75.2758 11.5993 74.8298 11.5993 74.1555C10.8604 74.1555 10.2085 74.1555 9.55109 74.1555C4.02586 74.1174 0.0164052 70.1798 0.0109724 64.6814C0.000106626 46.2608 -0.00532624 27.8457 0.0164052 9.42511C0.0218381 4.07352 4.02586 0.0217544 9.35551 0.0163158C35.5365 -0.00543861 61.7121 -0.00543861 87.8931 0.0163158C93.3966 0.0163158 97.2268 4.06264 97.2376 9.81125C97.2593 22.9346 97.2431 36.058 97.2431 49.1814C97.2431 49.7143 97.2431 50.2528 97.2431 51.0087H98.9164C108.864 51.0087 118.812 51.1556 128.754 50.9543C134.936 50.8293 139.038 55.4738 138.989 61.2061C138.837 79.0339 138.815 96.8671 138.995 114.695C139.06 121.009 134.627 125.567 128.585 125.175C128.232 125.153 127.874 125.208 127.309 125.235C127.309 127.612 127.385 129.95 127.292 132.289C127.14 136.215 123.821 139.326 119.925 138.978C118.475 138.848 116.915 138.217 115.715 137.379C110.38 133.648 105.175 129.743 99.878 125.958C99.2369 125.501 98.3296 125.208 97.5419 125.208C82.1668 125.164 66.7972 125.18 51.4222 125.17C46.6467 125.17 43.0013 122.418 41.9636 118.002C41.73 117.006 41.7082 115.94 41.7082 114.907C41.6919 101.92 41.6974 88.9322 41.6974 75.9448V73.8346V73.8237ZM31.8476 74.46L31.7661 74.1555C30.5165 74.1555 29.2615 74.1772 28.012 74.1555C26.4854 74.1228 25.5237 73.2363 25.502 71.893C25.4803 70.5442 26.4419 69.6088 27.9359 69.5381C28.3434 69.5163 28.7509 69.5381 29.1583 69.5381C48.6026 69.5381 68.0468 69.5381 87.491 69.5381C90.729 69.5381 92.5925 67.7379 92.5979 64.54C92.6088 46.2554 92.6088 27.9708 92.5979 9.6916C92.5979 6.48826 90.729 4.66089 87.5182 4.66089C61.6089 4.65545 35.6995 4.65545 9.79014 4.66089C6.52498 4.66089 4.64521 6.53721 4.64521 9.80038C4.63978 27.9925 4.63978 46.1847 4.64521 64.3768C4.64521 67.7161 6.50869 69.5381 9.88793 69.5435C12.7348 69.5435 15.587 69.5218 18.4338 69.5598C19.8844 69.5816 20.9058 70.6421 20.8623 71.9365C20.8189 73.1874 19.8246 74.1119 18.4284 74.1663C17.7276 74.1935 17.0213 74.1663 16.2661 74.1663C16.2661 76.5919 16.2064 78.8109 16.2824 81.0244C16.353 83.0421 18.4393 84.1353 20.1072 82.9714C24.0623 80.1977 27.9468 77.3153 31.8585 74.4763L31.8476 74.46ZM97.2431 55.6479C97.2431 58.601 97.2485 61.353 97.2431 64.1103C97.2213 70.3756 93.44 74.1554 87.1922 74.1609C74.1208 74.1609 61.0547 74.1609 47.9832 74.1609C47.4617 74.1609 46.9401 74.1609 46.4674 74.1609C46.4023 74.46 46.3642 74.547 46.3642 74.634C46.3642 88.4372 46.3262 102.24 46.4186 116.044C46.424 117.126 47.1574 118.35 47.8746 119.247C48.7981 120.411 50.2759 120.536 51.7265 120.536C71.1707 120.525 90.6149 120.53 110.065 120.53C112.406 120.53 113.476 121.27 113.444 122.875C113.417 124.441 112.319 125.17 109.978 125.17C109.049 125.17 108.125 125.17 107.196 125.17C107.902 126.013 108.69 126.584 109.472 127.16C112.504 129.368 115.519 131.603 118.578 133.779C120.289 134.997 122.495 134.23 122.625 132.311C122.783 129.983 122.663 127.633 122.663 125.164C121.973 125.164 121.398 125.175 120.822 125.164C119.148 125.121 118.067 124.174 118.094 122.788C118.122 121.433 119.143 120.547 120.767 120.536C123.478 120.514 126.195 120.536 128.906 120.53C132.513 120.525 134.306 118.719 134.306 115.092C134.306 97.0792 134.306 79.0665 134.306 61.0538C134.306 57.3991 132.562 55.6533 128.906 55.6533C118.866 55.6533 108.826 55.6533 98.786 55.6533H97.2431V55.6479Z" fill="#992740"/>
<path d="M60.1147 51.0141C52.7477 51.0141 45.3862 51.0141 38.0192 51.0141C37.5248 51.0141 37.0141 51.0141 36.5415 50.9053C35.3951 50.6388 34.6726 49.6327 34.754 48.5177C34.8355 47.3811 35.6613 46.5326 36.8511 46.4076C37.2966 46.3586 37.753 46.3749 38.2039 46.3749C52.889 46.3749 67.574 46.3749 82.2591 46.3749C84.568 46.3749 85.7035 47.1526 85.6818 48.7027C85.66 50.2581 84.5191 51.0141 82.2102 51.0141C74.8432 51.0141 67.4817 51.0141 60.1147 51.0141Z" fill="#7F7A77"/>
<path d="M62.027 26.8884C62.0596 23.6742 62.63 23.0868 65.8734 22.9509C68.3345 22.8475 70.035 21.2323 70.0622 18.9752C70.0894 16.8759 68.5627 15.1682 66.4548 14.9235C64.2707 14.6733 62.5051 16.1961 62.0976 18.687C61.7662 20.7156 60.6796 21.7489 59.0824 21.564C57.409 21.3682 56.5561 20.0412 56.7679 17.9473C57.2352 13.2756 61.0817 9.68608 65.7974 9.51748C70.361 9.35433 74.4519 12.6719 75.3158 17.2403C76.1687 21.7489 73.5121 26.2956 69.0951 27.7749C68.1227 28.1012 67.4001 28.4003 67.0306 29.5479C66.6666 30.69 65.5312 31.1033 64.3196 30.913C63.1027 30.7281 62.3475 29.9884 62.1465 28.7702C62.0433 28.1556 62.065 27.5193 62.027 26.8938V26.8884Z" fill="#992740"/>
<path d="M25.5127 55.6425C29.1745 55.6425 32.8363 55.6371 36.5034 55.6425C38.3397 55.6425 39.3774 56.5127 39.3557 57.9757C39.334 59.4169 38.2691 60.2708 36.4328 60.2708C29.1093 60.2762 21.7804 60.2762 14.4568 60.2708C12.6151 60.2708 11.6046 59.406 11.6263 57.905C11.6426 56.4529 12.6097 55.648 14.3917 55.6425C18.1023 55.6317 21.8075 55.6425 25.5182 55.6425H25.5127Z" fill="#7F7A77"/>
<path d="M57.8764 55.6423C61.5762 55.6423 65.276 55.6369 68.9758 55.6423C70.7197 55.6423 71.7357 56.4853 71.7574 57.8993C71.7846 59.3623 70.7306 60.2706 68.9323 60.2706C61.5762 60.2814 54.2201 60.2814 46.8694 60.2706C45.0929 60.2706 43.9846 59.3406 43.9954 57.9211C44.0063 56.4962 45.082 55.6477 46.9129 55.6423C50.5692 55.6369 54.2201 55.6423 57.8764 55.6423Z" fill="#7F7A77"/>
<path d="M25.5128 23.1577C21.7152 23.1577 17.9176 23.1794 14.12 23.1468C12.3218 23.1305 11.2352 21.798 11.7024 20.2208C12.0827 18.9428 13.0824 18.5186 14.3211 18.5186C17.3037 18.5186 20.2918 18.5186 23.2744 18.5186C27.6588 18.5186 32.0485 18.524 36.4328 18.5186C37.4814 18.5186 38.4213 18.7143 39.0189 19.677C39.9968 21.2487 38.8939 23.1251 36.9109 23.1523C33.1134 23.1958 29.3158 23.1631 25.5182 23.1686L25.5128 23.1577Z" fill="#7F7A77"/>
<path d="M25.4529 32.4468C21.9269 32.4468 18.401 32.4468 14.8751 32.4468C14.3807 32.4468 13.87 32.4576 13.3919 32.3489C12.2945 32.0987 11.6806 31.3699 11.6371 30.2387C11.5882 29.1074 12.1261 28.3188 13.1963 27.9762C13.6581 27.8294 14.1742 27.8022 14.6686 27.8022C21.8998 27.7913 29.1364 27.7967 36.3675 27.8022C36.7261 27.8022 37.0955 27.8185 37.4432 27.8892C38.6656 28.1448 39.3284 28.9171 39.3502 30.168C39.3719 31.3645 38.5244 32.2782 37.2531 32.4032C36.449 32.4794 35.6287 32.4522 34.8137 32.4522C31.6953 32.4522 28.5768 32.4522 25.4583 32.4522L25.4529 32.4468Z" fill="#7F7A77"/>
<path d="M25.5182 41.7413C21.813 41.7413 18.1024 41.7576 14.3971 41.7358C12.6749 41.7249 11.7187 40.9418 11.6318 39.5767C11.5503 38.3367 12.2946 37.3849 13.517 37.162C13.7398 37.1239 13.9679 37.0967 14.1907 37.0967C21.6935 37.0967 29.2017 37.0804 36.7045 37.1021C38.367 37.1021 39.334 37.9941 39.3503 39.3755C39.372 40.7895 38.3507 41.7249 36.6339 41.7358C32.9287 41.763 29.218 41.7467 25.5128 41.7467L25.5182 41.7413Z" fill="#7F7A77"/>
<path d="M20.8458 51.0141C18.6781 51.0141 16.5104 51.0304 14.3481 51.0087C12.615 50.9869 11.6262 50.1113 11.6262 48.6701C11.6262 47.2179 12.5878 46.3858 14.359 46.3804C18.6944 46.3641 23.0244 46.3641 27.3598 46.3804C29.0766 46.3858 30.1197 47.2887 30.1088 48.6809C30.1034 50.0678 29.0386 50.9923 27.3435 51.0087C25.1758 51.0304 23.0081 51.0141 20.8458 51.0141Z" fill="#7F7A77"/>
<path d="M67.4056 39.0983C67.3676 40.5721 66.1072 41.7686 64.6457 41.7142C63.168 41.6599 62.038 40.409 62.0977 38.9079C62.1575 37.4667 63.2984 36.3898 64.7544 36.4007C66.2593 36.4116 67.4382 37.6135 67.4002 39.0983H67.4056Z" fill="#992740"/>
<path d="M82.1776 83.4175C73.6806 83.4175 65.1782 83.4175 56.6812 83.4175C56.2302 83.4175 55.7739 83.4447 55.3284 83.3903C54.1331 83.2489 53.4323 82.5038 53.3019 81.3617C53.1715 80.2032 53.7257 79.3222 54.8612 78.9687C55.4044 78.8001 56.0184 78.7946 56.5997 78.7946C73.6915 78.7838 90.7779 78.7892 107.87 78.7892C108.049 78.7892 108.234 78.7892 108.413 78.7892C110.103 78.8327 111.162 79.7464 111.146 81.1496C111.129 82.5527 110.092 83.4229 108.359 83.4229C99.6334 83.4283 90.9082 83.4229 82.1831 83.4229L82.1776 83.4175Z" fill="#7F7A77"/>
<path d="M78.7658 92.6848C71.3988 92.6848 64.0373 92.6848 56.6703 92.6848C56.1759 92.6848 55.6707 92.7065 55.1817 92.6304C54.0517 92.4509 53.416 91.7058 53.2965 90.6181C53.177 89.5195 53.6822 88.6711 54.7362 88.274C55.1872 88.1054 55.7087 88.0565 56.1922 88.0565C71.1924 88.0456 86.198 88.0456 101.198 88.0565C101.687 88.0565 102.203 88.1 102.66 88.2577C103.724 88.6275 104.262 89.4542 104.17 90.5583C104.072 91.7167 103.404 92.4726 102.214 92.6412C101.725 92.7119 101.22 92.6848 100.725 92.6848C93.4074 92.6848 86.0839 92.6848 78.7658 92.6848Z" fill="#7F7A77"/>
<path d="M110.836 105.477C114.699 100.321 118.409 95.3661 122.12 90.417C122.527 89.8732 122.908 89.3021 123.375 88.8181C124.266 87.8989 125.488 87.8282 126.434 88.5624C127.368 89.2858 127.618 90.5312 126.982 91.6026C126.64 92.1846 126.2 92.7067 125.793 93.2505C121.702 98.7109 117.611 104.171 113.514 109.626C111.961 111.698 110.727 111.78 108.88 109.936C107.696 108.756 106.511 107.576 105.332 106.385C104.012 105.052 103.866 103.763 104.892 102.714C105.892 101.686 107.31 101.816 108.57 103.078C109.304 103.812 109.999 104.59 110.83 105.477H110.836Z" fill="#992740"/>
<path d="M67.1775 106.608C70.8392 106.608 74.5064 106.553 78.1627 106.651C78.9722 106.673 79.9827 107.037 80.5315 107.603C81.618 108.723 80.9607 110.616 79.4503 111.084C78.9885 111.23 78.4724 111.252 77.978 111.258C70.7414 111.268 63.5103 111.263 56.2737 111.263C56.0455 111.263 55.8228 111.263 55.5946 111.247C54.1875 111.105 53.2422 110.154 53.253 108.903C53.2639 107.646 54.2146 106.667 55.6435 106.64C58.2676 106.58 60.8862 106.613 63.5103 106.613C64.7327 106.613 65.9496 106.613 67.172 106.613L67.1775 106.608Z" fill="#992740"/>
<path d="M88.007 101.963C84.9808 101.963 81.9547 102.001 78.9286 101.947C77.0869 101.914 75.984 100.424 76.5816 98.8576C77.0815 97.5469 78.2006 97.3022 79.4556 97.3076C84.5136 97.3185 89.5771 97.3076 94.6351 97.3076C95.4011 97.3076 96.1726 97.2859 96.9386 97.3185C98.563 97.3892 99.5627 98.2866 99.5735 99.6408C99.579 101.006 98.5848 101.93 96.9549 101.952C93.9722 101.985 90.9896 101.963 88.0124 101.963H88.007Z" fill="#7F7A77"/>
<path d="M62.4888 101.963C60.3211 101.963 58.1588 101.985 55.9911 101.958C54.2961 101.936 53.2367 101.001 53.2584 99.6137C53.2855 98.2758 54.3069 97.3349 55.9205 97.324C60.3428 97.2914 64.7652 97.2914 69.1876 97.324C70.7957 97.3404 71.7736 98.3084 71.7573 99.679C71.741 101.049 70.7631 101.925 69.1224 101.947C66.9112 101.979 64.7 101.952 62.4888 101.952V101.963Z" fill="#7F7A77"/>
<path d="M92.6685 111.263C91.2723 111.263 89.876 111.285 88.4798 111.263C86.7195 111.231 85.7362 110.404 85.7145 108.974C85.6927 107.532 86.6598 106.64 88.3983 106.624C91.2343 106.597 94.0757 106.591 96.9116 106.624C98.5523 106.64 99.5411 107.532 99.5683 108.887C99.5955 110.279 98.5469 111.22 96.8627 111.258C95.4665 111.29 94.0702 111.263 92.674 111.263H92.6685Z" fill="#992740"/>
</g>
<defs>
<clipPath id="clip0_831_11">
<rect width="139" height="139" fill="white"/>
</clipPath>
</defs>
</svg>
