<svg width="180" height="180" viewBox="0 0 180 180" fill="none" xmlns="http://www.w3.org/2000/svg">
<path d="M107.309 140.4L111.389 157.017C114.304 157.017 117.218 157.017 120.068 157.017C127.192 157.017 132.697 161.924 133.862 169.055C134.381 172.457 133.344 173.7 129.977 173.7C103.294 173.7 76.6107 173.7 49.9925 173.7C46.7542 173.7 45.6532 172.457 46.1713 169.186C47.2076 162.055 52.8421 157.148 60.0309 157.083C62.8158 157.083 65.6655 157.083 68.6446 157.083L72.7896 140.465H70.7818C58.2823 140.465 45.8475 140.465 33.348 140.465C24.2809 140.465 18.5817 134.643 18.5817 125.484C18.5817 98.8567 18.7112 72.2298 18.5169 45.6683C18.5169 38.0139 21.6256 31.9296 29.5916 29.5744C29.5916 23.4901 29.5916 17.3404 29.5916 11.2561C29.5916 8.05044 30.3688 7.26537 33.5423 7.26537C45.0056 7.26537 56.4689 7.46164 67.8674 7.26537C77.7764 7.06911 84.4472 10.144 90.3407 16.7516C90.6646 16.2282 90.8588 15.6394 91.2474 15.2469C96.1048 9.94769 102.128 7.26537 109.252 7.19995C114.433 7.19995 119.679 7.19995 124.86 7.19995C126.285 7.19995 127.386 7.65791 128.357 8.70467C134.834 15.3123 141.375 21.92 147.916 28.4622C148.499 29.051 149.276 29.509 150.054 29.7053C157.048 31.21 161.452 36.5746 161.452 43.9019C161.452 67.2577 161.452 90.6135 161.452 113.969C161.452 118.091 161.452 122.147 161.452 126.269C161.452 134.512 155.494 140.465 147.333 140.465C134.575 140.465 121.816 140.465 109.058 140.465C108.54 140.465 108.021 140.465 107.309 140.465V140.4ZM144.937 34.939H143.124C137.684 34.939 132.243 34.939 126.803 34.939C123.824 34.939 122.982 34.0886 122.982 31.0137C122.982 25.5836 122.982 20.1536 122.982 14.7235V12.7609C118.189 12.7609 113.656 12.7609 109.058 12.7609C104.33 12.7609 100.055 14.3964 96.5581 17.6675C95.0038 19.1068 93.7732 20.8732 92.4132 22.5088C90.9236 24.2752 89.1102 24.3406 87.6854 22.5088C87.3616 22.1163 87.0377 21.6583 86.7787 21.2658C82.6338 15.4432 76.9345 12.6954 69.8751 12.7609C58.9299 12.7609 48.0495 12.7609 37.1043 12.7609H35.2909V90.4172C36.0033 90.4172 36.651 90.4172 37.2986 90.4172C48.5029 90.4172 59.7071 90.4172 70.9114 90.4172C77.9707 90.4172 83.929 93.0996 88.8511 98.2025C89.3045 98.6605 89.4988 99.2493 89.9521 99.9035C96.1695 92.6416 103.617 90.1556 112.361 90.3518C122.658 90.6135 132.956 90.3518 143.253 90.3518H145.067V34.939H144.937ZM24.0867 118.287C24.0867 120.773 24.0867 123.063 24.0867 125.418C24.0867 131.633 27.3249 134.904 33.5423 134.904C53.7488 134.904 73.9553 134.904 94.1618 134.904C111.843 134.904 129.523 134.904 147.204 134.904C151.737 134.904 155.235 132.288 155.753 128.035C156.141 124.895 155.818 121.624 155.818 118.353H24.0867V118.287ZM24.0867 112.53H155.947V111.222C155.947 88.7817 155.947 66.3418 155.947 43.9673C155.947 43.5094 155.947 43.0514 155.947 42.5935C155.623 39.2569 153.227 36.2475 150.507 35.855V37.9485C150.507 59.6687 150.507 81.389 150.507 103.175C150.507 106.446 149.73 107.231 146.427 107.231C108.799 107.231 71.2352 107.231 33.607 107.231C30.304 107.231 29.5916 106.446 29.5916 103.175C29.5916 81.389 29.5916 59.6033 29.5916 37.8176V35.7895C26.0296 36.9671 24.0867 39.9766 24.0867 44.0982C24.0867 66.4726 24.0867 88.8471 24.0867 111.222V112.726V112.53ZM101.61 140.465H78.4241L74.3439 156.952H105.69L101.61 140.465ZM127.71 168.074C126.868 164.803 123.759 162.644 119.809 162.644C99.9259 162.644 79.9784 162.644 60.0957 162.644C59.7719 162.644 59.3833 162.644 59.0595 162.644C55.8213 162.905 52.9069 165.26 52.2592 168.074H127.645H127.71ZM35.1614 101.474H83.7347L84.0586 101.016C84.0586 101.016 83.4757 100.885 83.2814 100.689C79.5251 97.4829 75.2506 95.9781 70.3285 95.9781C59.1242 95.9781 47.92 95.9781 36.7157 95.9781H35.1614V101.408V101.474ZM96.04 101.474H144.872V96.2398C144.872 96.2398 144.613 96.0436 144.484 96.0436C132.308 96.0436 120.132 95.9127 107.957 96.109C103.488 96.1744 99.4725 98.0717 96.04 101.408V101.474ZM128.617 17.275V29.3127H140.468L128.617 17.275Z" fill="#7F7A77"/>
<path d="M24.0859 118.287H155.817C155.817 121.558 156.141 124.829 155.752 127.97C155.234 132.222 151.672 134.839 147.203 134.839C129.522 134.839 111.842 134.839 94.161 134.839C73.9545 134.839 53.748 134.839 33.5415 134.839C27.3241 134.839 24.0859 131.568 24.0859 125.353C24.0859 123.063 24.0859 120.708 24.0859 118.222V118.287Z" fill="#B7333E"/>
<path d="M127.774 168.074H52.3237C52.9065 165.261 55.821 162.971 59.1239 162.644C59.4478 162.644 59.8363 162.644 60.1602 162.644C80.0429 162.644 99.9903 162.644 119.873 162.644C123.824 162.644 126.932 164.803 127.774 168.074Z" fill="#B7333E"/>
<path d="M124.342 57.1171C118.06 51.5562 111.907 46.1261 105.819 40.7615C103.682 38.8642 103.229 37.4249 104.459 35.9856C105.69 34.4809 107.244 34.6772 109.446 36.6399C116.117 42.5279 122.788 48.4159 129.458 54.3039C131.855 56.4629 131.919 57.9022 129.523 59.9957C122.658 66.08 115.728 72.1642 108.863 78.2485C107.762 79.2299 106.596 79.8187 105.172 79.0336C103.358 77.9868 103.294 75.8279 105.107 74.2578C109.77 70.0707 114.498 65.9491 119.161 61.8275C120.845 60.3228 122.464 58.8835 124.342 57.2479V57.1171Z" fill="#B7333E"/>
<path d="M55.7563 57.1827C59.1888 60.1921 62.427 63.0707 65.6652 65.9493C68.7739 68.697 71.9474 71.5102 75.0561 74.2579C76.4809 75.501 76.6104 77.1365 75.5094 78.3796C74.4084 79.6226 72.8541 79.6226 71.3645 78.3796C71.235 78.2487 71.1054 78.1179 70.9759 78.0524C65.4062 73.0803 59.7717 68.1737 54.2019 63.2016C52.7771 61.9585 51.3523 60.7155 49.9275 59.4071C48.2436 57.8369 48.2436 56.2014 49.9275 54.6966C56.9868 48.4161 64.1109 42.1355 71.235 35.855C72.7246 34.5465 74.4084 34.5465 75.4447 35.855C76.5457 37.1634 76.2866 38.7336 74.7323 40.1074C68.9682 45.2104 63.2042 50.3133 57.4401 55.4163C56.8573 55.9397 56.3391 56.3976 55.562 57.1173L55.7563 57.1827Z" fill="#B7333E"/>
<path d="M84.7712 84.8565C82.6987 84.8565 81.4682 83.2209 81.9215 81.1274C83.0225 76.0899 84.1235 71.1178 85.2245 66.0803C87.7503 54.6968 90.2114 43.3133 92.7372 31.9952C93.2553 29.64 95.3278 28.5932 97.0764 29.8362C98.2422 30.6867 98.4365 31.8643 98.1126 33.2382C95.263 46.2573 92.3486 59.2109 89.499 72.23C88.7866 75.6319 88.0094 78.9685 87.297 82.3704C86.9732 83.8097 86.1312 84.6602 84.8359 84.8565H84.7712Z" fill="#B7333E"/>
</svg>
