<svg width="184" height="133" viewBox="0 0 184 133" fill="none" xmlns="http://www.w3.org/2000/svg">
<path d="M122.489 60.8252C119.318 60.8252 116.386 60.8252 113.514 60.8252C108.009 60.8252 104.06 56.4899 104 50.4468C104 37.0469 104 23.6469 104 10.3127C104 4.40096 108.009 0.0656859 113.394 0C133.798 0 154.202 0 174.606 0C180.051 0 184 4.33527 184 10.247C184 23.7126 184 37.1782 184 50.6439C184 56.4242 179.991 60.7595 174.666 60.8252C167.366 60.8252 160.006 60.8252 152.706 60.8252C151.749 60.8252 150.672 61.2193 149.954 61.8105C142.654 67.7222 135.473 73.6996 128.233 79.6114C127.037 80.5967 125.84 81.5163 124.224 80.6623C122.549 79.7427 122.429 78.1006 122.429 76.3271C122.429 71.2036 122.429 66.0801 122.429 60.7595L122.489 60.8252ZM128.592 71.0722C135.174 65.6859 141.277 60.5624 147.5 55.5703C148.577 54.7164 150.073 54.1909 151.33 54.1909C158.989 54.0595 166.588 54.1909 174.247 54.1252C176.76 54.1252 177.897 52.8772 177.897 50.1184C177.897 36.9812 177.897 23.9097 177.897 10.7725C177.897 7.88231 176.76 6.69997 174.127 6.69997C154.022 6.69997 133.918 6.69997 113.813 6.69997C111.18 6.69997 110.043 7.948 110.043 10.7725C110.043 23.7783 110.043 36.8498 110.043 49.8556C110.043 52.8772 111.18 54.0595 113.873 54.1252C117.403 54.1252 120.933 54.1252 124.464 54.1252C127.455 54.1252 128.473 55.2419 128.473 58.5919C128.473 62.5987 128.473 66.6055 128.473 71.0722H128.592Z" fill="#B7333E"/>
<path d="M71.5108 60.8252C74.6821 60.8252 77.6141 60.8252 80.4862 60.8252C85.991 60.8252 89.9402 56.4899 90 50.4468C90 37.0469 90 23.6469 90 10.3127C90 4.40096 85.991 0.0656859 80.6058 0C60.2019 0 39.7981 0 19.3942 0C13.9491 0 10 4.33527 10 10.247C10 23.7126 10 37.1782 10 50.6439C10 56.4242 14.009 60.7595 19.3343 60.8252C26.6343 60.8252 33.994 60.8252 41.2939 60.8252C42.2513 60.8252 43.3284 61.2193 44.0464 61.8105C51.3463 67.7222 58.5266 73.6996 65.7666 79.6114C66.9634 80.5967 68.1601 81.5163 69.7756 80.6623C71.451 79.7427 71.5707 78.1006 71.5707 76.3271C71.5707 71.2036 71.5707 66.0801 71.5707 60.7595L71.5108 60.8252ZM65.4076 71.0722C58.8257 65.6859 52.7225 60.5624 46.4996 55.5703C45.4226 54.7164 43.9267 54.1909 42.6702 54.1909C35.0112 54.0595 27.4121 54.1909 19.7532 54.1252C17.2401 54.1252 16.1032 52.8772 16.1032 50.1184C16.1032 36.9812 16.1032 23.9097 16.1032 10.7725C16.1032 7.88231 17.2401 6.69997 19.8728 6.69997C39.9776 6.69997 60.0823 6.69997 80.187 6.69997C82.8197 6.69997 83.9566 7.948 83.9566 10.7725C83.9566 23.7783 83.9566 36.8498 83.9566 49.8556C83.9566 52.8772 82.8197 54.0595 80.1271 54.1252C76.5969 54.1252 73.0666 54.1252 69.5363 54.1252C66.5445 54.1252 65.5273 55.2419 65.5273 58.5919C65.5273 62.5987 65.5273 66.6055 65.5273 71.0722H65.4076Z" fill="#992740"/>
<path d="M102.012 133C92.7787 133 83.5458 133 74.2517 133C70.8887 133 69.7881 131.709 70.0327 128.16C71.3167 108.476 86.2362 94.7934 104.947 96.0842C119.071 97.1168 131.85 109.831 133.624 124.61C133.746 125.836 133.929 127.062 133.991 128.353C134.113 131.838 133.073 133 129.771 133C120.539 133 111.306 133 102.012 133ZM127.387 126.353C126.775 115.51 116.503 101.376 99.7492 102.667C88.1316 103.571 75.9026 115.962 76.7587 126.353H127.326H127.387Z" fill="#7F7A77"/>
<path d="M116 80.9051C116 88.0535 110.18 94 102.968 94C95.8832 94 90 88.18 90 81.0949C90 73.9465 95.8199 68 103.032 68C110.117 68 116 73.82 116 80.9051ZM109.547 81.1582C109.611 77.6156 106.764 74.5791 103.221 74.5158C99.6156 74.3893 96.5158 77.2993 96.4526 80.9051C96.3893 84.511 99.3625 87.5474 102.968 87.5474C106.511 87.5474 109.484 84.7007 109.547 81.1582Z" fill="#7F7A77"/>
<path d="M32.0116 133C22.7787 133 13.5458 133 4.25171 133C0.888725 133 -0.211888 131.709 0.032693 128.16C1.31674 108.476 16.2362 94.7934 34.9466 96.0842C49.0711 97.1168 61.8504 109.831 63.6236 124.61C63.7459 125.836 63.9294 127.062 63.9905 128.353C64.1128 131.838 63.0733 133 59.7715 133C50.5386 133 41.3057 133 32.0116 133ZM57.3868 126.353C56.7754 115.51 46.503 101.376 29.7492 102.667C18.1316 103.571 5.90262 115.962 6.75866 126.353H57.3257H57.3868Z" fill="#7F7A77"/>
<path d="M45 80.9051C45 88.0535 39.6277 94 32.9708 94C26.4307 94 21 88.18 21 81.0949C21 73.9465 26.3723 68 33.0292 68C39.5693 68 45 73.82 45 80.9051ZM39.0438 81.1582C39.1022 77.6156 36.4745 74.5791 33.2044 74.5158C29.8759 74.3893 27.0146 77.2993 26.9562 80.9051C26.8978 84.511 29.6423 87.5474 32.9708 87.5474C36.2409 87.5474 38.9854 84.7007 39.0438 81.1582Z" fill="#7F7A77"/>
<path d="M143.351 26C135.741 26 128.189 26 120.578 26C120.043 26 119.568 26 119.032 26C117.189 25.8536 116 24.8286 116 23.462C116 22.0954 117.249 21.0705 119.092 21.0217C122.719 20.9729 126.346 21.0217 129.973 21.0217C142.043 21.0217 154.114 21.0217 166.124 21.0217C166.659 21.0217 167.135 21.0217 167.67 21.0217C169.632 21.0705 170.941 22.0466 171 23.462C171 24.8774 169.751 25.9024 167.789 26C167.254 26 166.778 26 166.243 26C158.573 26 150.903 26 143.292 26H143.351Z" fill="#B7333E"/>
<path d="M143.351 39C135.741 39 128.189 39 120.578 39C120.043 39 119.568 39 119.032 39C117.189 38.8829 116 38.0629 116 36.9696C116 35.8764 117.249 35.0564 119.092 35.0174C122.719 34.9783 126.346 35.0174 129.973 35.0174C142.043 35.0174 154.114 35.0174 166.124 35.0174C166.6 35.0174 167.016 35.0174 167.492 35.0174C169.632 35.0564 170.941 35.7983 171 36.9696C171 38.141 169.692 38.961 167.611 39C167.135 39 166.719 39 166.243 39C158.573 39 150.903 39 143.292 39H143.351Z" fill="#B7333E"/>
</svg>
