<svg width="180" height="180" viewBox="0 0 180 180" fill="none" xmlns="http://www.w3.org/2000/svg">
<path d="M53.6684 82.2467C54.3222 81.645 54.7581 81.2621 55.1395 80.8793C59.0079 76.9958 62.8762 73.1669 66.6901 69.2834C67.7253 68.2442 68.8695 67.7519 70.3406 67.7519C82.5451 67.7519 94.695 67.7519 106.9 67.7519C108.371 67.7519 109.515 68.2442 110.55 69.2834C114.745 73.5498 118.995 77.8162 123.408 82.3014C123.463 81.645 123.572 81.2621 123.572 80.8793C123.572 77.7615 123.572 74.5891 123.572 71.4713C123.572 68.9552 124.77 67.7519 127.277 67.7519C134.196 67.7519 141.17 67.7519 148.09 67.7519C151.032 67.7519 152.121 66.658 152.121 63.759C152.121 49.4283 152.121 35.0429 152.121 20.7122C152.121 17.8679 150.977 16.774 148.144 16.774C133.488 16.774 118.832 16.774 104.121 16.774C103.521 16.774 102.922 16.774 102.377 16.774C100.797 16.5552 99.5986 15.1331 99.6531 13.5468C99.6531 12.0153 100.852 10.7026 102.377 10.4838C102.922 10.4291 103.413 10.4838 103.957 10.4838C118.614 10.4838 133.27 10.4838 147.981 10.4838C154.519 10.4838 158.442 14.422 158.442 20.9857C158.442 35.207 158.442 49.483 158.442 63.7043C158.442 70.3774 154.573 74.2609 147.872 74.2609C142.042 74.2609 136.212 74.2609 130.382 74.2609C130.273 74.2609 130.164 74.2609 129.837 74.3703V76.0112C129.837 80.5511 129.837 85.0363 129.837 89.5761C129.837 91.2171 129.347 92.5298 127.767 93.1862C126.187 93.8425 125.043 93.1862 123.953 92.0375C118.396 86.4584 112.893 80.8793 107.281 75.3548C106.682 74.7532 105.646 74.3156 104.829 74.3156C93.9323 74.2609 83.0354 74.2609 72.0841 74.3156C71.3213 74.3156 70.3406 74.7532 69.7957 75.3001C64.4563 80.5511 59.2258 85.8567 53.9408 91.1624C53.5594 91.5452 53.1781 91.9281 52.7967 92.311C51.7615 93.2956 50.5628 93.7878 49.2007 93.1862C47.7841 92.5845 47.1848 91.4359 47.1848 89.9043C47.1848 85.3097 47.1848 80.7699 47.1848 76.1753C47.1848 75.6283 47.1848 75.0266 47.1848 74.3156C46.4765 74.3156 45.9317 74.3156 45.3323 74.3156C39.666 74.3156 33.9996 74.3156 28.3332 74.3156C22.7214 74.3156 18.5806 70.1586 18.5806 64.5248C18.5806 49.8112 18.5806 35.0976 18.5806 20.3293C18.5806 14.5861 22.7214 10.4838 28.4422 10.4838C43.4799 10.4838 58.5175 10.4838 73.5552 10.4838C75.898 10.4838 77.3146 11.6871 77.3691 13.6015C77.3691 15.5706 75.898 16.8287 73.5007 16.8287C58.7354 16.8287 43.9702 16.8287 29.1505 16.8287C25.8815 16.8287 24.9007 17.8132 24.9007 21.1498C24.9007 35.3164 24.9007 49.5377 24.9007 63.7043C24.9007 66.7673 25.9359 67.8613 28.9871 67.8613C35.7976 67.8613 42.6626 67.8613 49.4731 67.8613C52.4153 67.8613 53.505 68.9552 53.505 71.9089C53.505 75.3001 53.505 78.6367 53.505 82.3561L53.6684 82.2467Z" fill="#7F7A77"/>
<path d="M34.2715 173.645C27.6789 173.645 21.0318 173.59 14.4392 173.645C7.41075 173.754 7.13833 173.371 7.2473 166.37C7.30178 162.323 7.95559 158.439 9.53564 154.774C14.4392 143.507 26.0988 137.162 38.5212 138.912C50.0174 140.553 59.5522 150.289 60.9688 162.158C61.2412 164.62 61.2412 167.136 61.2412 169.652C61.2412 172.606 60.1515 173.7 57.2638 173.7C49.5816 173.7 41.8993 173.7 34.217 173.7L34.2715 173.645ZM54.812 167.245C55.7383 159.588 51.434 151.602 44.2421 147.554C37.1047 143.507 28.0058 144.218 21.4677 149.523C15.8558 154.063 13.404 160.025 13.7309 167.245H54.8665H54.812Z" fill="#7F7A77"/>
<path d="M144.002 173.645C136.211 173.645 128.474 173.645 120.683 173.645C117.687 173.645 116.651 172.496 116.542 169.543C116.433 164.565 116.651 159.697 118.558 155.048C123.244 143.726 135.285 136.451 146.945 138.037C160.13 139.842 169.773 149.25 171.353 161.995C171.68 164.784 171.626 167.628 171.626 170.418C171.626 172.442 170.209 173.645 167.975 173.645C159.966 173.645 152.012 173.645 144.002 173.645ZM165.197 167.081C165.306 158.002 161.764 151.055 153.864 146.898C146.236 142.85 138.608 143.507 131.634 148.648C125.478 153.188 122.863 159.478 123.135 167.136H165.251L165.197 167.081Z" fill="#7F7A77"/>
<path d="M88.6482 33.1832C72.9023 33.1832 57.1564 33.1832 41.3559 33.1832C40.8111 33.1832 40.2662 33.1832 39.7214 33.1832C38.0869 32.9644 36.8882 31.597 36.8337 29.956C36.8337 28.3151 38.0324 26.9477 39.6669 26.7289C40.2118 26.6742 40.7566 26.7289 41.3014 26.7289C72.8478 26.7289 104.449 26.7289 135.995 26.7289C135.995 26.7289 136.104 26.7289 136.158 26.7289C138.937 26.7289 140.463 27.8775 140.463 29.956C140.463 32.0345 138.937 33.2379 136.158 33.2379C120.304 33.2379 104.449 33.2379 88.5393 33.2379L88.6482 33.1832Z" fill="#B7333E"/>
<path d="M88.9196 46.1465C104.611 46.1465 120.302 46.1465 136.048 46.1465C136.593 46.1465 137.138 46.1465 137.683 46.1465C139.317 46.3106 140.571 47.678 140.625 49.3189C140.625 51.0146 139.426 52.4367 137.683 52.6008C137.138 52.6555 136.593 52.6008 136.048 52.6008C104.557 52.6008 73.0102 52.6008 41.5183 52.6008C38.5217 52.6008 36.9961 51.5615 36.9961 49.4283C36.9961 47.2404 38.5217 46.0918 41.5728 46.0918C57.3732 46.0918 73.1736 46.0918 89.0285 46.0918L88.9196 46.1465Z" fill="#B7333E"/>
<path d="M34.2164 100.296C43.8601 100.296 51.7058 108.118 51.7603 117.745C51.7603 127.426 43.9691 135.303 34.3799 135.357C24.7906 135.357 16.8359 127.536 16.8359 117.909C16.8359 108.282 24.6272 100.351 34.2164 100.296ZM34.2709 106.696C28.1687 106.696 23.1561 111.728 23.1561 117.854C23.1561 123.98 28.1687 129.012 34.2709 129.012C40.3731 129.012 45.3857 123.98 45.3857 117.854C45.3857 111.728 40.3731 106.696 34.2709 106.696Z" fill="#7F7A77"/>
<path d="M160.457 117.745C160.457 127.426 152.666 135.303 143.077 135.357C133.488 135.357 125.533 127.536 125.533 117.909C125.533 108.282 133.324 100.351 142.913 100.296C152.557 100.296 160.403 108.118 160.457 117.745ZM131.853 117.745C131.853 123.871 136.811 128.903 142.968 128.903C149.07 128.903 154.083 123.926 154.083 117.745C154.083 111.619 149.125 106.586 142.968 106.586C136.866 106.586 131.853 111.564 131.853 117.69V117.745Z" fill="#7F7A77"/>
<path d="M91.9701 10.3192C91.9701 12.0695 90.499 13.6558 88.701 13.6558C86.9575 13.6558 85.5409 12.2336 85.4865 10.4833C85.4865 8.733 86.7941 7.25617 88.5921 7.20148C90.39 7.14678 91.9156 8.56891 91.9701 10.3739V10.3192Z" fill="#7F7A77"/>
<path d="M165.197 167.027H123.08C122.808 159.37 125.478 153.079 131.58 148.54C138.554 143.398 146.182 142.742 153.809 146.789C161.71 150.946 165.251 157.893 165.142 166.973L165.197 167.027Z" fill="#B7333E"/>
</svg>
