<svg width="141" height="139" viewBox="0 0 141 139" fill="none" xmlns="http://www.w3.org/2000/svg">
<g clip-path="url(#clip0_818_1203)">
<path d="M140.989 105.659C140.989 112.847 140.995 120.03 140.989 127.218C140.984 134.197 136.259 138.961 129.265 138.989C121.192 139.016 113.118 138.989 105.051 139C100.942 139 97.4841 137.538 94.582 134.62C88.706 128.702 82.7971 122.822 76.8771 116.947C74.03 114.122 72.6037 110.759 72.6257 106.737C72.6643 99.1859 72.6257 91.6353 72.6423 84.0791C72.6588 76.9791 77.3507 72.3026 84.4602 72.2971C99.3675 72.2861 114.275 72.2861 129.177 72.2971C136.253 72.3026 140.978 77.0451 140.984 84.1121C140.989 91.3001 140.984 98.4825 140.984 105.67L140.989 105.659ZM106.84 76.4131C99.362 76.4131 91.8891 76.4021 84.4106 76.4131C79.6471 76.4186 76.789 79.2707 76.7835 84.0187C76.7725 90.8385 76.778 97.6582 76.7835 104.478C76.7835 108.05 78.4906 109.715 82.1197 109.737C85.2367 109.754 88.3646 109.644 91.4705 109.836C97.4401 110.204 101.802 114.908 101.884 120.887C101.923 123.772 101.89 126.652 101.895 129.537C101.895 133.076 103.663 134.856 107.22 134.862C114.512 134.873 121.808 134.873 129.1 134.862C134.001 134.851 136.859 131.977 136.859 127.075C136.859 112.792 136.859 98.5155 136.859 84.233C136.859 79.2542 134.012 76.4186 129 76.4186C121.616 76.4186 114.231 76.4186 106.846 76.4186L106.84 76.4131ZM97.7319 131.697C97.7319 127.844 97.8311 124.096 97.7044 120.36C97.5832 116.974 94.8628 114.199 91.454 113.979C88.5739 113.793 85.6772 113.892 82.7916 113.87C81.8223 113.864 80.8476 113.87 79.8674 113.87C85.8259 119.816 91.7238 125.696 97.7374 131.697H97.7319Z" fill="#992740"/>
<path d="M68.3579 33.4504C68.3579 40.5943 68.3689 47.7383 68.3579 54.8823C68.3468 62.0648 63.6604 66.7139 56.4463 66.7248C52.3161 66.7303 48.1859 66.7413 44.0557 66.7194C42.4752 66.7139 41.55 65.8621 41.5941 64.5652C41.6381 63.3727 42.5082 62.6088 43.9345 62.6033C48.0648 62.5868 52.2005 62.4824 56.3252 62.6253C60.9235 62.7847 64.3213 59.5314 64.2717 54.6845C64.1285 40.446 64.2221 26.202 64.2166 11.9579C64.2166 6.94067 61.4081 4.14353 56.3692 4.14353C41.5941 4.13803 26.8134 4.13803 12.0383 4.14353C6.94434 4.14353 4.14681 6.96815 4.14681 12.0733C4.14681 18.8052 4.14681 25.537 4.14681 32.2689C4.14681 35.665 5.89802 37.4565 9.2848 37.495C12.0823 37.5279 14.8854 37.484 17.6829 37.5059C24.5666 37.5609 29.2089 42.2155 29.253 49.1067C29.2695 51.8983 29.242 54.6955 29.2585 57.4871C29.2805 60.7349 31.1364 62.5594 34.4075 62.5923C34.7269 62.5923 35.0518 62.5813 35.3712 62.6033C36.5717 62.6857 37.4363 63.4826 37.4308 64.5707C37.4308 65.7467 36.7755 66.571 35.6466 66.6589C30.9602 67.0106 26.4004 66.6479 22.8154 63.1199C16.4108 56.8167 10.0503 50.4695 3.73379 44.0839C1.13451 41.4571 -0.0109353 38.1874 7.86386e-05 34.489C0.0221064 26.8394 -0.00542831 19.1954 0.0110925 11.5458C0.0276134 4.90189 4.77461 0.0604627 11.438 0.0384812C26.5821 -0.0109771 41.7262 -0.00548176 56.8704 0.0384812C63.6329 0.0604627 68.3248 4.83045 68.3524 11.6117C68.3799 18.8931 68.3579 26.1745 68.3579 33.4559V33.4504ZM7.66025 41.644C13.4315 47.4031 19.3956 53.3546 25.1118 59.0588C25.1118 55.833 25.1503 52.2226 25.1008 48.6121C25.0457 44.6664 22.2151 41.7594 18.2666 41.6604C14.621 41.5725 10.9644 41.644 7.66025 41.644Z" fill="#7F7A77"/>
<path d="M140.989 33.4393C140.989 40.6272 141 47.8152 140.989 55.0031C140.978 61.9603 136.215 66.7028 129.21 66.7192C121.181 66.7357 113.151 66.7083 105.122 66.7302C101.009 66.7412 97.5393 65.3179 94.6316 62.3944C88.7171 56.4429 82.7751 50.5299 76.8276 44.6114C74.1017 41.8966 72.6368 38.6599 72.6423 34.7856C72.6533 26.9547 72.6038 19.1238 72.6588 11.2984C72.7029 4.86332 77.4169 0.0933321 83.8875 0.0438737C94.3948 -0.0385569 104.902 0.0163969 115.409 0.0273876C117.028 0.0273876 117.937 0.813226 117.943 2.10464C117.943 3.41803 117.072 4.14342 115.42 4.14892C105.051 4.15441 94.6812 4.14342 84.3116 4.15991C80.5944 4.1654 77.8574 6.14374 77.0093 9.42997C76.8276 10.1279 76.7946 10.8753 76.7891 11.6061C76.7725 18.5193 76.7725 25.4325 76.7835 32.3512C76.7835 35.7528 78.5237 37.4839 81.9656 37.5113C84.7631 37.5388 87.5662 37.4948 90.3637 37.5223C97.1538 37.5883 101.862 42.2923 101.895 49.0461C101.912 51.9312 101.884 54.8163 101.901 57.7013C101.917 60.6963 103.784 62.5922 106.807 62.6032C114.424 62.6252 122.04 62.6417 129.656 62.6032C133.863 62.5757 136.842 59.5588 136.848 55.3713C136.864 40.7206 136.864 26.0645 136.848 11.4138C136.848 7.28128 133.924 4.31378 129.788 4.18189C127.998 4.12694 126.208 4.18189 124.419 4.15991C122.998 4.14342 122.106 3.39056 122.051 2.21455C121.99 1.01106 122.943 0.0548645 124.38 0.0548645C126.765 0.0548645 129.171 -0.0440522 131.523 0.263689C137.013 0.983583 140.945 5.5942 140.978 11.205C141.022 18.6237 140.989 26.0425 140.989 33.4557V33.4393ZM80.4016 41.6384C86.0848 47.3096 92.0048 53.2171 97.754 58.9543C97.754 57.5969 97.754 55.9098 97.754 54.2228C97.754 52.5302 97.7595 50.8431 97.754 49.1505C97.732 44.5179 94.8739 41.6658 90.193 41.6384C86.7621 41.6219 83.3313 41.6384 80.3961 41.6384H80.4016Z" fill="#7F7A77"/>
<path d="M117.629 18.1566C118.592 17.0905 119.347 16.1673 120.195 15.343C123.069 12.5623 127.343 12.5678 130.074 15.3155C132.773 18.0247 132.789 22.2287 130.08 25.0808C129.232 25.971 128.301 26.7734 127.255 27.7625C128.285 28.7352 129.171 29.5156 129.997 30.3673C132.784 33.2469 132.8 37.4894 130.058 40.2315C127.31 42.9792 123.097 42.9792 120.178 40.1876C119.325 39.3688 118.548 38.4675 117.596 37.4454C116.621 38.462 115.828 39.3413 114.98 40.1546C112.061 42.9572 107.865 42.9902 105.1 40.259C102.292 37.4839 102.325 33.2524 105.194 30.3014C105.992 29.4826 106.829 28.7022 107.931 27.6306C106.956 26.7789 106.014 26.059 105.188 25.2127C102.308 22.2727 102.297 18.0302 105.111 15.2606C107.876 12.5404 112.1 12.5843 114.996 15.387C115.817 16.1838 116.577 17.0411 117.629 18.1566ZM128.323 35.489C127.745 34.5054 127.436 33.725 126.913 33.1425C125.784 31.8841 124.529 30.7355 123.345 29.5266C122.111 28.2681 122.117 27.2515 123.361 25.9765C124.545 24.7621 125.773 23.5915 126.946 22.3716C128.246 21.0252 128.296 19.3876 127.123 18.2171C125.955 17.0521 124.303 17.1015 122.959 18.3984C121.704 19.6074 120.503 20.8658 119.253 22.0748C118.108 23.1794 117.023 23.1849 115.888 22.0913C114.666 20.9153 113.493 19.6898 112.281 18.5083C110.85 17.1125 109.231 17.0081 108.019 18.2006C106.796 19.4041 106.868 21.0307 108.25 22.4485C109.401 23.63 110.591 24.7731 111.747 25.9491C113.041 27.268 113.03 28.2681 111.714 29.609C110.558 30.785 109.368 31.928 108.217 33.1095C106.885 34.4834 106.802 36.0496 107.953 37.2585C109.137 38.5005 110.794 38.4455 112.204 37.0882C113.388 35.9452 114.534 34.7527 115.712 33.6041C117.05 32.2907 118.047 32.2797 119.374 33.5766C120.652 34.8241 121.891 36.1155 123.185 37.341C124.105 38.2147 125.283 38.5225 126.33 37.8081C127.117 37.2695 127.629 36.3243 128.312 35.4945L128.323 35.489Z" fill="#992740"/>
<path d="M39.6446 23.3443C41.5059 20.0691 43.2131 16.9422 45.0304 13.8868C47.1781 10.2653 51.7654 9.38607 55.0145 11.8975C57.5752 13.8703 58.4784 17.4148 56.8979 20.2834C53.412 26.6141 49.893 32.9228 46.2034 39.1325C43.8464 43.1057 38.3725 43.4739 35.4153 39.9239C32.5461 36.4783 29.8147 32.9118 27.1438 29.3123C24.9961 26.4162 25.6239 22.4321 28.3884 20.1955C31.2024 17.9204 35.217 18.2336 37.6841 20.9538C38.3284 21.6627 38.8957 22.4376 39.6336 23.3498L39.6446 23.3443ZM40.0631 38.1873C41.7097 38.1324 42.4752 37.4564 43.0589 36.4178C45.091 32.7854 47.1561 29.1749 49.2102 25.559C50.5153 23.2509 51.859 20.9648 53.1091 18.6238C54.0618 16.8378 53.1201 14.8869 51.2312 14.6451C49.871 14.4748 49.0009 15.2057 48.3676 16.3432C46.33 19.9702 44.2759 23.5861 42.2219 27.2076C40.79 29.7354 39.4408 29.8453 37.6841 27.5922C36.7259 26.3668 35.8007 25.1138 34.804 23.9158C33.7411 22.6354 32.2157 22.4541 31.0317 23.3883C29.8918 24.295 29.6605 25.7898 30.6297 27.0592C33.1739 30.4114 35.7567 33.7416 38.3945 37.0223C38.8681 37.6103 39.6887 37.9235 40.0686 38.1818L40.0631 38.1873Z" fill="#992740"/>
<path d="M97.7375 131.691C91.7239 125.69 85.826 119.81 79.8674 113.864C80.8477 113.864 81.8224 113.859 82.7916 113.864C85.6828 113.886 88.5794 113.787 91.4541 113.974C94.8629 114.194 97.5888 116.969 97.7044 120.354C97.8366 124.091 97.732 127.839 97.732 131.691H97.7375Z" fill="#992740"/>
<path d="M7.6604 41.6438C10.9646 41.6438 14.6157 41.5724 18.2668 41.6603C22.2208 41.7592 25.0458 44.6663 25.1009 48.612C25.1505 52.2224 25.1119 55.8329 25.1119 59.0587C19.3957 53.3545 13.4317 47.403 7.6604 41.6438Z" fill="#7F7A77"/>
<path d="M80.4016 41.6384C83.3368 41.6384 86.7676 41.6219 90.1985 41.6384C94.8739 41.6604 97.7375 44.5125 97.7595 49.1506C97.765 50.8432 97.7595 52.5303 97.7595 54.2228C97.7595 55.9099 97.7595 57.597 97.7595 58.9544C92.0048 53.2117 86.0903 47.3097 80.4071 41.6384H80.4016Z" fill="#7F7A77"/>
<path d="M112.584 85.0959C117.535 85.0959 122.486 85.0959 127.436 85.0959C127.893 85.0959 128.362 85.0739 128.808 85.1453C129.843 85.3047 130.443 85.9422 130.526 86.9808C130.603 88.0194 130.124 88.7668 129.111 89.058C128.593 89.2064 128.026 89.2174 127.48 89.2174C117.579 89.2284 107.677 89.2229 97.776 89.2229C97.407 89.2229 97.038 89.2449 96.6746 89.2009C95.3804 89.0525 94.626 88.2172 94.681 87.0247C94.7361 85.8927 95.4906 85.1453 96.7627 85.1124C98.6405 85.0629 100.524 85.0904 102.402 85.0904C105.794 85.0904 109.186 85.0904 112.579 85.0904L112.584 85.0959Z" fill="#7F7A77"/>
<path d="M107.198 99.5102C103.894 99.5102 100.59 99.5211 97.2913 99.5102C95.5511 99.5047 94.6535 98.7573 94.681 97.4054C94.7141 96.1195 95.6172 95.3776 97.2583 95.3776C103.955 95.3666 110.657 95.3666 117.353 95.3776C119.022 95.3776 120.035 96.2294 119.996 97.5153C119.958 98.7683 119.022 99.5047 117.386 99.5102C113.994 99.5211 110.596 99.5102 107.204 99.5102H107.198Z" fill="#7F7A77"/>
<path d="M68.3635 105.659C68.3635 112.847 68.369 120.03 68.3635 127.218C68.358 134.197 63.6331 138.961 56.6392 138.989C48.5661 139.016 40.4929 138.989 32.4252 139C28.317 139 24.8586 137.538 21.9565 134.62C16.0805 128.702 10.1716 122.822 4.25162 116.947C1.40452 114.122 -0.0217765 110.759 0.00025128 106.737C0.0387999 99.1859 0.000250608 91.6353 0.0167715 84.0791C0.0332923 76.9791 4.72521 72.3026 11.8347 72.2971C26.742 72.2861 41.6493 72.2861 56.5511 72.2971C63.6276 72.3026 68.3525 77.0451 68.358 84.1121C68.3636 91.3001 68.358 98.4825 68.358 105.67L68.3635 105.659ZM34.2149 76.4131C26.7365 76.4131 19.2636 76.4021 11.7851 76.4131C7.02161 76.4186 4.1635 79.2707 4.15799 84.0187C4.14698 90.8385 4.15249 97.6582 4.15799 104.478C4.15799 108.05 5.86515 109.715 9.49423 109.737C12.6112 109.754 15.7391 109.644 18.845 109.836C24.8146 110.204 29.1761 114.908 29.2587 120.887C29.2972 123.772 29.2642 126.652 29.2697 129.537C29.2697 133.076 31.0374 134.856 34.5949 134.862C41.8861 134.873 49.1828 134.873 56.474 134.862C61.3752 134.851 64.2333 131.977 64.2333 127.075C64.2333 112.792 64.2333 98.5155 64.2333 84.233C64.2333 79.2542 61.3862 76.4186 56.3749 76.4186C48.9901 76.4186 41.6053 76.4186 34.2205 76.4186L34.2149 76.4131ZM25.1064 131.697C25.1064 127.844 25.2056 124.096 25.0789 120.36C24.9578 116.974 22.2373 114.199 18.8285 113.979C15.9484 113.793 13.0517 113.892 10.1661 113.87C9.19686 113.864 8.22213 113.87 7.24189 113.87C13.2004 119.816 19.0984 125.696 25.1119 131.697H25.1064Z" fill="#992740"/>
<path d="M25.1118 131.691C19.0982 125.69 13.2002 119.81 7.2417 113.864C8.22194 113.864 9.19667 113.859 10.1659 113.864C13.057 113.886 15.9537 113.787 18.8283 113.974C22.2371 114.194 24.9631 116.969 25.0787 120.354C25.2109 124.091 25.1063 127.839 25.1063 131.691H25.1118Z" fill="#992740"/>
<path d="M39.9587 85.0959C44.9094 85.0959 49.8602 85.0959 54.8109 85.0959C55.268 85.0959 55.7361 85.0739 56.1821 85.1453C57.2174 85.3047 57.8177 85.9422 57.9003 86.9808C57.9774 88.0194 57.4983 88.7668 56.485 89.058C55.9674 89.2064 55.4002 89.2174 54.855 89.2174C44.9535 89.2284 35.052 89.2229 25.1505 89.2229C24.7815 89.2229 24.4125 89.2449 24.0491 89.2009C22.7549 89.0525 22.0005 88.2172 22.0556 87.0247C22.1106 85.8927 22.8651 85.1453 24.1372 85.1124C26.0151 85.0629 27.8984 85.0904 29.7763 85.0904C33.1686 85.0904 36.5609 85.0904 39.9532 85.0904L39.9587 85.0959Z" fill="#7F7A77"/>
<path d="M34.5729 99.5102C31.2687 99.5102 27.9645 99.5211 24.6658 99.5102C22.9256 99.5047 22.028 98.7573 22.0555 97.4054C22.0886 96.1195 22.9917 95.3776 24.6328 95.3776C31.3293 95.3666 38.0312 95.3666 44.7277 95.3776C46.3963 95.3776 47.4096 96.2294 47.371 97.5153C47.3325 98.7683 46.3963 99.5047 44.7607 99.5102C41.3684 99.5211 37.9706 99.5102 34.5784 99.5102H34.5729Z" fill="#7F7A77"/>
</g>
<defs>
<clipPath id="clip0_818_1203">
<rect width="141" height="139" fill="white"/>
</clipPath>
</defs>
</svg>
