<svg width="175" height="160" viewBox="0 0 175 160" fill="none" xmlns="http://www.w3.org/2000/svg">
<path d="M13.6828 133.999V131.397C13.6828 106.059 13.6828 80.7215 13.6828 55.4457C13.6828 48.5072 17.4677 44.6663 24.417 44.6663C32.3592 44.6663 40.2392 44.6663 48.1814 44.6663C49.9807 44.6663 51.3458 45.2858 51.8422 47.0824C52.4627 49.1268 50.8494 50.9853 48.3054 50.9853C42.3489 50.9853 36.4543 50.9853 30.4977 50.9853C28.1399 50.9853 25.8441 50.9853 23.4863 50.9853C21.2526 50.9853 19.9496 52.2243 19.9496 54.3925C19.9496 80.6595 19.9496 106.927 19.9496 133.132C19.9496 133.317 20.0117 133.503 20.0737 133.813H154.221C154.221 133.132 154.283 132.45 154.283 131.831C154.283 106.369 154.283 80.9073 154.283 55.4457C154.283 52.1623 153.849 51.6048 150.622 50.8614C148.885 50.4897 147.768 49.0648 147.892 47.4541C148.078 45.7195 149.443 44.6044 151.367 44.6044C156.082 44.6044 160.302 48.7551 160.55 53.6491C160.55 54.3925 160.55 55.136 160.55 55.8174C160.55 80.9693 160.55 106.059 160.55 131.211V133.937C161.853 133.937 163.094 133.937 164.335 133.937C168.182 133.937 171.16 135.61 173.022 139.017C174.821 142.362 174.511 145.646 172.525 148.867C169.795 153.327 166.755 157.416 161.357 158.717C159.743 159.089 158.068 159.399 156.455 159.399C110.229 159.399 64.0656 159.399 17.84 159.399C11.7593 159.399 7.04366 156.921 3.69308 151.903C2.88646 150.664 2.01779 149.487 1.27322 148.247C-2.26351 141.99 1.95574 134.371 9.15329 133.999C10.5183 133.937 11.9454 133.999 13.6207 133.999H13.6828ZM87.2715 140.318C61.8939 140.318 36.5164 140.318 11.2009 140.318C10.5183 140.318 9.83581 140.318 9.21534 140.318C7.16776 140.628 5.67861 142.858 6.73342 144.654C9.52558 149.487 11.6352 153.204 18.9568 153.142C64.4999 153.018 110.043 153.018 155.586 153.142C162.846 153.142 165.017 149.487 167.747 144.592C168.74 142.796 167.313 140.566 165.204 140.318C164.521 140.256 163.9 140.318 163.218 140.318C137.902 140.318 112.649 140.318 87.3335 140.318H87.2715Z" fill="#7F7A77"/>
<path d="M77.5922 57.3661C74.3037 57.3661 71.2633 57.3661 68.285 57.3661C62.5766 57.3661 58.4815 53.2774 58.4194 47.578C58.4194 34.9401 58.4194 22.3022 58.4194 9.72622C58.4194 4.15068 62.5766 0.0619505 68.1609 0C89.3192 0 110.478 0 131.636 0C137.282 0 141.377 4.08873 141.377 9.66427C141.377 22.3641 141.377 35.064 141.377 47.7638C141.377 53.2155 137.22 57.3042 131.698 57.3661C124.128 57.3661 116.496 57.3661 108.926 57.3661C107.934 57.3661 106.817 57.7378 106.072 58.2954C98.5023 63.8709 91.0566 69.5084 83.5488 75.084C82.3078 76.0132 81.0669 76.8805 79.3916 76.0752C77.6542 75.2079 77.5302 73.6591 77.5302 71.9864C77.5302 67.1543 77.5302 62.3222 77.5302 57.3042L77.5922 57.3661ZM83.9211 67.0304C90.7463 61.9505 97.0752 57.1183 103.528 52.4101C104.645 51.6047 106.196 51.1091 107.499 51.1091C115.441 50.9852 123.321 51.1091 131.264 51.0472C133.87 51.0472 135.048 49.8701 135.048 47.2682C135.048 34.8781 135.048 22.55 135.048 10.1599C135.048 7.43406 133.87 6.31895 131.139 6.31895C110.291 6.31895 89.4433 6.31895 68.5953 6.31895C65.8652 6.31895 64.6863 7.49601 64.6863 10.1599C64.6863 22.4261 64.6863 34.7542 64.6863 47.0204C64.6863 49.8701 65.8652 50.9852 68.6573 51.0472C72.3181 51.0472 75.979 51.0472 79.6398 51.0472C82.7422 51.0472 83.797 52.1003 83.797 55.2598C83.797 59.0388 83.797 62.8178 83.797 67.0304H83.9211Z" fill="#B7333E"/>
<path d="M57.9224 127.556C48.5532 127.556 39.184 127.556 29.7527 127.556C26.3401 127.556 25.2232 126.317 25.4714 122.91C26.7744 104.015 41.9141 90.8812 60.9007 92.1202C75.2337 93.1114 88.2017 105.316 90.0011 119.502C90.1252 120.679 90.3114 121.856 90.3734 123.095C90.4975 126.441 89.4427 127.556 86.0921 127.556C76.7229 127.556 67.3537 127.556 57.9224 127.556ZM83.6722 121.175C83.0518 110.767 72.6277 97.2002 55.6266 98.4392C43.8376 99.3065 31.428 111.201 32.2967 121.175H83.6102H83.6722Z" fill="#7F7A77"/>
<path d="M71.1389 76.4469C71.1389 83.4473 65.4305 89.2706 58.3571 89.2706C51.4077 89.2706 45.6373 83.5712 45.6373 76.6327C45.6373 69.6323 51.3457 63.809 58.4191 63.809C65.3685 63.809 71.1389 69.5084 71.1389 76.4469ZM64.81 76.6947C64.8721 73.2254 62.0799 70.2518 58.6053 70.1899C55.0685 70.066 52.0282 72.9157 51.9661 76.4469C51.9041 79.978 54.8203 82.9517 58.3571 82.9517C61.8317 82.9517 64.748 80.1639 64.81 76.6947Z" fill="#7F7A77"/>
<path d="M87.2713 140.318C112.587 140.318 137.84 140.318 163.156 140.318C163.838 140.318 164.521 140.318 165.141 140.318C167.189 140.628 168.678 142.858 167.685 144.592C164.893 149.486 162.783 153.142 155.524 153.142C109.981 153.018 64.4377 153.018 18.8947 153.142C11.573 153.142 9.4634 149.424 6.67125 144.654C5.67848 142.858 7.10558 140.628 9.15316 140.318C9.83569 140.194 10.4562 140.318 11.1387 140.318C36.5162 140.318 61.8938 140.318 87.2093 140.318H87.2713Z" fill="#B7333E"/>
<path d="M99.7427 25.3997C91.8005 25.3997 83.9205 25.3997 75.9784 25.3997C75.4199 25.3997 74.9236 25.3997 74.3651 25.3997C72.4416 25.2139 71.2007 23.9129 71.2007 22.1783C71.2007 20.4437 72.5037 19.1427 74.4272 19.0808C78.2121 19.0188 81.997 19.0808 85.7819 19.0808C98.3776 19.0808 110.973 19.0808 123.507 19.0808C124.065 19.0808 124.562 19.0808 125.12 19.0808C127.168 19.1427 128.533 20.3817 128.595 22.1783C128.595 23.9748 127.292 25.2758 125.244 25.3997C124.686 25.3997 124.189 25.3997 123.631 25.3997C115.627 25.3997 107.623 25.3997 99.6806 25.3997H99.7427Z" fill="#B7333E"/>
<path d="M99.7427 38.1613C91.8005 38.1613 83.9205 38.1613 75.9784 38.1613C75.4199 38.1613 74.9236 38.1613 74.3651 38.1613C72.4416 37.9755 71.2007 36.6745 71.2007 34.9399C71.2007 33.2053 72.5037 31.9043 74.4272 31.8424C78.2121 31.7804 81.997 31.8424 85.7819 31.8424C98.3776 31.8424 110.973 31.8424 123.507 31.8424C124.003 31.8424 124.438 31.8424 124.934 31.8424C127.168 31.9043 128.533 33.0814 128.595 34.9399C128.595 36.7984 127.23 38.0994 125.058 38.1613C124.562 38.1613 124.127 38.1613 123.631 38.1613C115.627 38.1613 107.623 38.1613 99.6806 38.1613H99.7427Z" fill="#B7333E"/>
</svg>
