<svg width="178" height="180" viewBox="0 0 178 180" fill="none" xmlns="http://www.w3.org/2000/svg">
<ellipse cx="88.6246" cy="90.5" rx="85.1519" ry="86.5" fill="#992740"/>
<g clip-path="url(#clip0_619_422)">
<path d="M88.1013 128.881C86.5881 128.881 85.0852 128.892 83.572 128.881C82.3283 128.871 81.8205 128.397 81.6132 127.123C81.1779 124.386 80.7322 121.648 80.3384 118.9C80.2451 118.258 79.986 117.932 79.3641 117.711C78.1411 117.279 76.9389 116.784 75.7781 116.205C75.1355 115.879 74.7313 115.973 74.1923 116.384C72.0573 118.005 69.8911 119.574 67.725 121.153C66.4916 122.059 65.8801 121.996 64.7919 120.901C62.7501 118.837 60.7187 116.773 58.6873 114.699C57.6094 113.594 57.5576 112.983 58.4489 111.72C60.0243 109.498 61.5997 107.266 63.2061 105.066C63.5585 104.582 63.6103 104.213 63.3409 103.645C62.7605 102.434 62.263 101.181 61.8173 99.907C61.5997 99.2753 61.2576 99.0226 60.6358 98.9278C57.9721 98.5278 55.3085 98.075 52.6449 97.6434C51.2561 97.4117 50.8311 96.938 50.8208 95.5272C50.8104 92.495 50.8104 89.4733 50.8208 86.4411C50.8208 85.0935 51.2768 84.5776 52.5723 84.3671C55.236 83.9354 57.8996 83.4932 60.5632 83.0826C61.2058 82.9878 61.5997 82.7667 61.8277 82.0613C62.2423 80.7874 62.7812 79.545 63.3512 78.3237C63.6 77.7973 63.5792 77.4499 63.2476 76.9866C61.6411 74.7862 60.0657 72.5542 58.48 70.3327C57.5368 69.0061 57.5783 68.4165 58.708 67.2689C60.7083 65.2264 62.719 63.1839 64.7401 61.1519C65.9112 59.9727 66.4709 59.9201 67.839 60.9203C70.0051 62.4995 72.1609 64.0788 74.296 65.7002C74.7831 66.0687 75.1562 66.0792 75.7055 65.8055C76.8663 65.2369 78.0686 64.7105 79.2916 64.2999C79.9549 64.0683 80.2347 63.7419 80.3384 63.0576C80.7322 60.3518 81.1779 57.646 81.6028 54.9402C81.8205 53.582 82.2972 53.1187 83.6031 53.1187C86.6192 53.1082 89.6352 53.1082 92.6512 53.1187C93.9675 53.1187 94.465 53.582 94.6722 54.9191C95.0972 57.6249 95.5325 60.3307 95.9367 63.0365C96.03 63.6998 96.2787 64.0683 96.9628 64.2999C98.1547 64.7 99.3258 65.1948 100.445 65.7634C101.108 66.1003 101.544 66.0266 102.124 65.5949C104.228 63.9946 106.374 62.4469 108.498 60.8782C109.783 59.9306 110.374 59.9833 111.514 61.1309C113.556 63.1944 115.587 65.258 117.608 67.3321C118.635 68.3849 118.697 69.0166 117.847 70.2274C116.271 72.4594 114.696 74.6809 113.09 76.8814C112.706 77.3972 112.644 77.7868 112.945 78.3974C113.515 79.5766 114.022 80.7874 114.427 82.0403C114.655 82.7351 115.028 82.9773 115.67 83.0721C118.334 83.4827 120.998 83.9249 123.661 84.3565C124.978 84.5671 125.434 85.0725 125.434 86.4096C125.444 89.4417 125.444 92.4634 125.434 95.4956C125.434 96.9169 124.998 97.4117 123.63 97.6328C120.967 98.0645 118.303 98.5067 115.639 98.9173C115.028 99.0121 114.665 99.2332 114.447 99.8754C114.012 101.149 113.504 102.402 112.934 103.613C112.675 104.171 112.685 104.539 113.048 105.045C114.655 107.245 116.23 109.477 117.805 111.699C118.697 112.962 118.655 113.594 117.588 114.678C115.556 116.752 113.525 118.816 111.483 120.88C110.364 122.006 109.773 122.048 108.467 121.09C106.311 119.511 104.135 117.932 102 116.31C101.471 115.91 101.077 115.91 100.497 116.194C99.3362 116.763 98.1339 117.268 96.9109 117.7C96.2994 117.921 96.0196 118.237 95.9263 118.879C95.5325 121.585 95.0868 124.291 94.6619 126.997C94.4339 128.46 93.9675 128.86 92.4854 128.871C91.0136 128.871 89.5419 128.871 88.0702 128.871L88.1013 128.881ZM61.8588 69.164C62.0039 69.3746 62.1904 69.6694 62.3977 69.9537C63.9005 72.0593 65.3826 74.1756 66.8958 76.2707C67.4348 77.0182 67.4451 77.7236 67.0824 78.5659C66.2014 80.6084 65.3723 82.6825 64.5639 84.7566C64.2633 85.5146 63.828 86.02 62.9988 86.1358C61.7862 86.3148 60.584 86.5359 59.3713 86.7359C57.6612 87.0202 55.9511 87.3045 54.2617 87.5782V94.4006C54.6659 94.4848 55.039 94.5691 55.4122 94.6322C57.8996 95.0429 60.387 95.4745 62.8848 95.8535C63.8487 96.0009 64.2944 96.5484 64.626 97.4433C65.3101 99.3384 66.0252 101.234 66.9062 103.044C67.4555 104.182 67.4555 105.055 66.6989 106.077C65.0303 108.309 63.4445 110.614 61.9002 112.783L66.73 117.679C68.8132 116.142 71.0416 114.584 73.1766 112.92C74.2649 112.067 75.2184 111.951 76.431 112.667C77.5711 113.341 78.7941 114.078 80.0585 114.289C82.8051 114.763 83.6342 116.447 83.8001 119.016C83.9452 121.164 84.4426 123.28 84.7847 125.407H91.5215C91.6044 124.975 91.6769 124.586 91.7391 124.207C92.1433 121.68 92.5683 119.153 92.9414 116.626C93.0865 115.689 93.6047 115.247 94.4442 114.931C96.2476 114.268 98.0821 113.625 99.7819 112.731C101.088 112.036 102.052 112.046 103.223 112.973C105.337 114.647 107.565 116.194 109.659 117.732L114.458 112.836C112.831 110.562 111.162 108.193 109.462 105.845C108.902 105.076 108.83 104.35 109.213 103.466C110.105 101.423 110.924 99.349 111.742 97.2749C112.043 96.5168 112.468 96.0115 113.297 95.8851C114.541 95.7061 115.784 95.485 117.028 95.2745C118.707 94.9902 120.376 94.7059 122.044 94.4322V87.6203C121.64 87.5361 121.277 87.4519 120.904 87.3887C118.417 86.9781 115.929 86.5464 113.432 86.1674C112.468 86.02 112.012 85.4831 111.69 84.5776C110.986 82.6509 110.25 80.7242 109.369 78.8712C108.871 77.8079 108.851 76.9761 109.555 76.0285C111.234 73.7544 112.851 71.4276 114.427 69.2272C112.799 67.5742 111.224 65.9739 109.607 64.3315C107.451 65.9108 105.182 67.5216 102.984 69.2272C101.969 70.0063 101.088 70.0274 99.9995 69.4062C98.8076 68.7324 97.5742 67.9638 96.2787 67.7322C93.5425 67.2479 92.6926 65.5844 92.5268 63.0154C92.3921 60.8676 91.8842 58.7514 91.5422 56.6142H84.8054C84.7225 57.0458 84.6499 57.4249 84.5877 57.8144C84.1835 60.3096 83.769 62.7943 83.4062 65.2896C83.2611 66.3108 82.7118 66.7846 81.779 67.1215C79.9756 67.7743 78.1515 68.4586 76.4517 69.343C75.2184 69.9852 74.296 69.9747 73.1973 69.1114C71.0416 67.4268 68.8029 65.8476 66.6782 64.2894L61.8899 69.164H61.8588Z" fill="white"/>
<path d="M109.752 139.325C110.934 139.557 111.887 139.715 112.831 139.915C113.908 140.147 114.499 140.915 114.354 141.852C114.199 142.852 113.328 143.463 112.25 143.273C109.245 142.747 106.239 142.221 103.244 141.673C101.637 141.378 101.14 140.199 102.01 138.767C103.399 136.462 104.819 134.166 106.239 131.882C106.913 130.787 107.825 130.492 108.706 131.029C109.597 131.576 109.742 132.608 109.068 133.735C108.581 134.556 108.073 135.367 107.576 136.188C107.555 136.219 107.576 136.262 107.555 136.43C107.856 136.314 108.136 136.251 108.384 136.125C123.039 128.965 132.222 117.321 135.85 101.244C136.575 98.0434 136.648 94.6849 136.959 91.4C137.083 90.0629 137.632 89.2838 138.69 89.3049C139.736 89.3259 140.389 90.1155 140.337 91.4527C139.508 112.983 129.652 128.713 110.882 138.725C110.582 138.883 110.291 139.052 109.763 139.325H109.752Z" fill="white"/>
<path d="M135.757 68.9746C135.964 67.8375 136.119 66.8689 136.316 65.9003C136.544 64.8158 137.311 64.2263 138.244 64.3842C139.239 64.5632 139.799 65.4265 139.612 66.5425C139.094 69.5957 138.586 72.6385 138.037 75.6812C137.757 77.2499 136.586 77.7974 135.249 76.9656C132.917 75.5232 130.606 74.0493 128.294 72.5648C127.299 71.9331 127.04 70.9644 127.558 70.1116C128.077 69.2588 129.051 69.0693 130.046 69.6484C130.502 69.9116 130.937 70.2064 131.383 70.4907C131.829 70.7644 132.274 71.0487 132.896 71.2276C132.73 70.8381 132.575 70.4485 132.388 70.0695C125.309 55.4035 113.919 46.1806 98.2481 42.5588C95.1284 41.8323 91.8637 41.7902 88.6611 41.4323C88.5263 41.4217 88.3812 41.4323 88.2361 41.4323C87.1479 41.3691 86.4535 40.7058 86.4431 39.7372C86.4638 38.7054 87.1997 38 88.3398 38C93.1281 38 97.8542 38.6106 102.446 40.0109C117.37 44.5697 128.315 53.9505 135.249 68.1323C135.332 68.2902 135.394 68.4587 135.477 68.6061C135.508 68.6692 135.56 68.7114 135.757 68.964V68.9746Z" fill="white"/>
<path d="M66.2742 42.6008C65.2896 42.4218 64.2842 42.2639 63.31 42.0534C62.3254 41.8323 61.7761 41.0005 61.9419 40.0951C62.1181 39.1265 62.9576 38.5263 63.9733 38.7053C66.979 39.2212 69.9846 39.7476 72.9799 40.3056C74.6693 40.6215 75.1668 41.7796 74.2651 43.2641C72.8763 45.5698 71.4564 47.865 70.0364 50.1497C69.3731 51.2236 68.4196 51.5079 67.5594 50.9604C66.6991 50.4129 66.554 49.4022 67.1863 48.3388C67.7045 47.4544 68.2538 46.5911 68.9171 45.5067C68.3989 45.7067 68.0879 45.7909 67.7977 45.9278C52.3238 53.603 43.0063 66.0371 39.9695 83.2615C39.5446 85.662 39.5031 88.1467 39.3373 90.5893C39.244 91.9369 38.674 92.716 37.6272 92.7055C36.5804 92.7055 35.9171 91.9054 35.9689 90.5683C36.7773 69.0903 46.5923 53.3714 65.2896 43.3378C65.6212 43.1588 65.9736 43.0009 66.3156 42.8325L66.2846 42.6114L66.2742 42.6008Z" fill="white"/>
<path d="M40.498 113.204C40.3218 114.205 40.1663 115.215 39.9487 116.216C39.731 117.205 38.9122 117.774 38.0209 117.605C37.0674 117.426 36.4766 116.574 36.6528 115.542C37.171 112.457 37.6996 109.372 38.2489 106.298C38.5288 104.729 39.6999 104.203 41.0473 105.034C43.3793 106.477 45.7009 107.951 48.0018 109.435C48.9864 110.067 49.2351 111.046 48.7169 111.899C48.1987 112.741 47.2037 112.931 46.2191 112.341C45.3174 111.804 44.4364 111.225 43.2549 110.478C43.5866 111.257 43.7731 111.762 44.0115 112.246C51.8055 127.944 64.253 137.22 81.3231 140.083C83.3545 140.42 85.4377 140.463 87.5002 140.568C89.0341 140.652 89.8011 141.178 89.8115 142.294C89.8115 143.421 89.0134 144.063 87.5106 144C66.4814 143.063 51.0489 133.124 41.2028 114.226C41.0266 113.889 40.8711 113.531 40.7053 113.183L40.4876 113.215L40.498 113.204Z" fill="white"/>
<path d="M107.213 90.9895C107.213 101.644 98.6211 110.372 88.1221 110.362C77.6126 110.341 69.031 101.602 69.0724 90.9579C69.1139 80.3136 77.623 71.6698 88.1013 71.6488C98.6004 71.6172 107.192 80.3242 107.203 91L107.213 90.9895ZM88.1739 75.0705C79.5093 75.0494 72.4408 82.2403 72.4616 91.0316C72.4823 99.7912 79.4989 106.919 88.1324 106.94C96.797 106.951 103.886 99.7596 103.845 90.9789C103.814 82.1982 96.8074 75.0916 88.1739 75.081V75.0705Z" fill="white"/>
</g>
<defs>
<clipPath id="clip0_619_422">
<rect width="104.369" height="106" fill="white" transform="translate(35.9585 38)"/>
</clipPath>
</defs>
</svg>
