<svg width="171" height="173" viewBox="0 0 171 173" fill="none" xmlns="http://www.w3.org/2000/svg">
<ellipse cx="85.6246" cy="86.5" rx="85.1519" ry="86.5" fill="#992740"/>
<g clip-path="url(#clip0_619_451)">
<path d="M41.2904 74.3265C42.073 75.1937 42.7237 75.9703 43.4362 76.6779C43.6586 76.8979 44.087 77.0748 44.3712 77.0144C50.2939 75.7373 56.2824 75.1247 62.3246 74.9564C62.6829 74.9478 63.1565 74.6587 63.3584 74.3481C64.8946 71.9795 66.9952 70.9268 69.697 71.2806C70.3066 71.3582 70.6814 71.259 71.0644 70.7111C73.9228 66.6512 77.1724 62.9668 80.7928 59.6447C81.2211 59.2521 81.3323 58.9371 81.1841 58.29C80.9369 57.1984 80.9616 56.0422 80.8381 54.9161C80.8051 54.6098 80.7351 54.1697 80.5415 54.0446C75.7268 51.0461 70.6155 48.7638 65.253 47.1416C62.687 51.2575 58.7619 51.4128 55.8335 49.5059C54.4249 51.0202 52.9998 52.5648 51.5624 54.1007C50.6563 55.0671 49.2312 54.8471 48.9347 53.6089C48.8111 53.0911 49.0212 52.2887 49.3672 51.8831C50.644 50.386 52.0155 48.9795 53.3994 47.5903C53.803 47.1804 53.8936 46.8784 53.7165 46.3046C52.7857 43.2975 53.7247 40.45 56.1465 38.7545C58.5436 37.0762 61.3979 37.2401 63.6467 39.2592C64.0956 39.6648 64.4045 39.6562 64.9029 39.4102C79.4171 32.2958 93.9767 32.1966 108.565 39.16C109.113 39.4232 109.451 39.3714 109.928 38.9874C112.103 37.2444 114.751 37.1711 117.021 38.7156C119.257 40.2386 120.357 42.9135 119.747 45.6143C119.579 46.3564 119.649 46.8482 120.242 47.2581C120.353 47.3358 120.456 47.4393 120.546 47.5472C121.794 49.0356 123.038 49.8856 125.229 49.3506C127.672 48.7552 129.669 50.2393 130.946 52.4828C132.231 54.7435 132.194 57.0776 130.827 59.2909C130.448 59.9035 130.46 60.2962 130.785 60.9045C136.21 71.0217 138.22 81.8767 136.926 93.3702C135.464 106.322 130.024 117.19 120.946 126.077C120.509 126.505 120.419 126.841 120.6 127.462C121.444 130.357 120.464 133.183 118.129 134.827C115.81 136.458 113.022 136.359 110.781 134.486C110.316 134.098 110.003 134.128 109.517 134.374C94.5039 141.898 79.4789 141.864 64.4704 134.365C63.9844 134.124 63.6631 134.107 63.1936 134.447C60.916 136.108 58.2965 136.108 56.0889 134.512C53.8812 132.92 52.9339 130.34 53.5765 127.54C53.7041 126.988 53.6341 126.647 53.214 126.241C43.9511 117.25 38.5968 106.154 37.007 93.0552C36.7887 91.2432 36.7557 89.4053 36.7063 87.576C36.6898 86.9159 36.5374 86.588 35.9114 86.3248C33.1848 85.1815 31.698 82.5282 32.0151 79.5642C32.3446 76.4708 34.3669 74.2532 37.39 73.826C38.1849 73.7139 38.3785 73.2868 38.5515 72.6267C39.7788 67.8895 41.6528 63.4457 44.1076 59.265C44.8201 58.0527 45.9198 57.8715 46.7147 58.825C47.3531 59.5886 47.106 60.3264 46.6612 61.09C44.5854 64.658 42.9544 68.4374 41.8094 72.4454C41.624 73.0969 41.451 73.7484 41.2904 74.3265ZM74.9278 78.7444C74.3965 80.8844 73.4492 82.3211 71.9129 83.3047C70.3395 84.3143 68.6344 84.4179 66.8716 84.0382C66.748 84.2884 66.6533 84.4739 66.5627 84.6681C61.2084 96.4377 59.1243 108.829 60.1664 121.811C60.2158 122.436 60.4506 122.652 61.0148 122.773C62.3657 123.066 63.5149 123.8 64.3427 124.951C64.7669 125.538 65.117 125.538 65.706 125.305C73.305 122.298 80.4345 118.372 87.0573 113.445C94.1703 108.151 100.447 101.93 105.921 94.8112C106.255 94.3754 106.292 94.0648 106.012 93.5902C105.307 92.3908 105.019 91.0447 105.225 89.6641C105.353 88.8013 105.015 88.4949 104.356 88.1584C98.7668 85.3152 92.9965 82.9596 86.9626 81.415C83.0128 80.4055 79.0094 79.6418 74.9278 78.7488V78.7444ZM111.852 97.0115C110.987 96.8562 110.27 96.8519 109.657 96.5844C108.89 96.2522 108.532 96.5326 108.067 97.1366C97.2799 111.055 83.9271 121.314 67.9713 127.816C66.6327 128.364 65.4136 128.778 65.6319 130.646C65.6566 130.841 65.5577 131.052 65.5124 131.281C65.6978 131.393 65.8419 131.488 65.9902 131.561C79.9526 138.49 93.9232 138.503 107.902 131.604C108.47 131.324 108.577 131.013 108.512 130.375C108.161 126.889 109.846 124.179 113.013 123.114C113.532 122.941 113.722 122.682 113.738 122.156C113.833 119.576 113.94 116.996 114.043 114.416C114.088 113.307 114.64 112.655 115.567 112.643C116.494 112.625 117.148 113.281 117.12 114.368C117.058 116.987 116.975 119.602 116.815 122.216C116.774 122.919 116.815 123.377 117.515 123.614C117.828 123.718 118.108 123.933 118.425 124.106C123.228 119.571 126.976 114.282 129.727 108.207C130.015 107.573 129.715 107.297 129.369 106.939C125.456 102.849 121.226 99.1558 116.72 95.7949C115.88 95.1693 115.307 95.0873 114.71 96.0106C114.727 96.1055 114.747 96.209 114.768 96.3126C115.291 98.9789 115.855 101.637 116.321 104.316C116.535 105.545 115.822 106.391 114.784 106.326C113.718 106.262 113.405 105.476 113.232 104.51C112.791 102.008 112.309 99.5182 111.844 97.0158L111.852 97.0115ZM55.3228 124.028C57.0403 123.588 57.1927 122.548 57.0732 121.138C56.5049 114.45 56.8838 107.806 58.1111 101.214C59.2726 94.9536 61.1672 88.9523 63.8073 83.2012C63.9679 82.856 64.1203 82.3426 63.9926 82.0406C63.4572 80.7895 62.8147 79.5858 62.1516 78.244C62.2257 78.2483 62.0898 78.2181 61.9539 78.231C56.3401 78.8825 50.7263 79.5426 45.1125 80.1898C44.5648 80.2545 44.3959 80.5349 44.3547 81.1001C44.2023 83.2314 43.1603 84.8018 41.4263 85.8718C40.9074 86.1911 40.3349 86.424 39.6553 86.7606C40.4378 101.296 45.4626 113.812 55.3228 124.028ZM120.328 51.7753C119.562 51.0246 118.644 50.1272 117.75 49.2513C113.907 51.689 111.353 51.1712 108.112 47.3789C104.545 48.2418 96.7239 51.7494 93.5648 53.9626C93.3095 54.1395 93.1777 54.6271 93.1324 54.9895C93.0129 56.0077 93.1159 57.0819 92.8482 58.0484C92.6134 58.894 92.8111 59.3211 93.3795 59.8518C100.002 66.0213 105.336 73.2522 109.323 81.5402C110.027 83.0071 110.678 84.2064 112.466 83.8699C112.803 83.8052 113.269 83.6801 113.417 83.4212C117.218 76.7469 120.196 69.6842 122.379 62.2549C122.536 61.7199 122.453 61.4438 122.009 61.1029C120.126 59.6533 119.228 57.6514 119.438 55.2268C119.533 54.118 119.986 53.0437 120.328 51.7753ZM131.288 104.234C131.457 103.755 131.617 103.323 131.757 102.883C133.965 96.0537 134.661 89.0386 133.961 81.881C133.298 75.0988 131.44 68.6919 128.22 62.7467C128.055 62.4447 127.536 62.0176 127.383 62.0953C126.716 62.4318 125.703 61.8321 125.349 63.0703C123.141 70.7542 120.073 78.0498 116.16 84.9485C115.872 85.4576 115.884 85.7855 116.255 86.2601C117.449 87.7917 117.836 89.5994 117.503 91.515C117.379 92.2355 117.61 92.5073 118.092 92.8827C120.612 94.8586 123.145 96.8217 125.584 98.9055C127.54 100.58 129.365 102.417 131.288 104.229V104.234ZM73.235 73.0581C73.6345 73.7139 74.0587 74.2187 74.2729 74.8054C74.5365 75.5216 74.9648 75.7114 75.6444 75.8193C78.2474 76.2248 80.8587 76.6261 83.4329 77.1913C91.2996 78.9213 98.8326 81.6869 106.04 85.4188C106.362 85.5827 106.819 85.4576 107.214 85.4662C107.214 85.0607 107.334 84.5904 107.185 84.2582C106.621 82.9941 105.999 81.7559 105.344 80.5392C101.596 73.5758 96.8886 67.4235 91.1842 62.1082C90.8383 61.7846 90.5747 61.4093 89.9651 61.7544C87.9881 62.8762 85.9782 62.8158 83.9601 61.7846C83.7294 61.6638 83.2722 61.6897 83.091 61.8536C79.4048 65.1973 76.1263 68.9422 73.2391 73.0581H73.235ZM91.5055 51.4344C96.0855 48.5912 100.863 46.2701 105.925 44.6867C107.231 44.2769 107.688 43.6211 107.601 42.262C107.185 42.0463 106.736 41.7961 106.271 41.5804C98.7009 38.0383 90.7682 36.7181 82.5267 37.5033C76.9583 38.034 71.6287 39.5483 66.5956 42.1326C66.1632 42.357 65.636 42.4346 65.706 43.2242C65.7719 43.9576 66.2044 44.0655 66.7069 44.2121C67.234 44.3631 67.753 44.553 68.272 44.7256C73.2432 46.3952 77.9591 48.656 82.4403 51.4172C85.727 48.5265 89.1249 49.2168 91.4973 51.4344H91.5055ZM35.0629 80.22C35.0423 82.0406 36.4221 83.5463 38.1231 83.5636C39.9106 83.5852 41.2492 82.2305 41.2904 80.3623C41.3316 78.4468 40.0136 76.9799 38.2055 76.941C36.5374 76.9065 35.0794 78.4252 35.0629 80.22ZM68.7497 80.9966C70.5166 80.9836 71.8511 79.5857 71.8717 77.7219C71.8923 75.9444 70.4631 74.4344 68.7497 74.4257C67.0322 74.4128 65.5866 75.8926 65.5742 77.6702C65.5619 79.5642 66.9416 81.0095 68.7538 80.9966H68.7497ZM114.496 90.3285C114.496 88.4216 113.116 86.9849 111.316 87.0108C109.661 87.0367 108.293 88.5079 108.273 90.2725C108.252 92.0888 109.632 93.6161 111.316 93.6506C113.112 93.6851 114.496 92.2355 114.496 90.3285ZM62.6994 44.1517C62.6664 42.2275 61.3031 40.8469 59.4744 40.8944C57.724 40.9375 56.4307 42.3785 56.4513 44.2553C56.4719 46.0371 57.9382 47.5342 59.6268 47.4997C61.3361 47.4652 62.7282 45.9422 62.6994 44.1517ZM90.1051 55.9861C90.0804 54.0921 88.6842 52.6856 86.8678 52.7287C85.2204 52.7676 83.8447 54.256 83.8365 56.0077C83.8283 57.7938 85.2698 59.3384 86.942 59.3427C88.7336 59.3427 90.1299 57.8628 90.1051 55.9861ZM56.4513 129.175C56.4719 130.974 57.8887 132.454 59.5898 132.446C61.299 132.437 62.6994 130.953 62.7035 129.145C62.7035 127.324 61.2043 125.758 59.4991 125.801C57.8064 125.849 56.4307 127.368 56.4472 129.171L56.4513 129.175ZM117.779 129.464C117.787 127.536 116.452 126.121 114.632 126.138C112.853 126.151 111.551 127.531 111.539 129.417C111.526 131.242 112.898 132.7 114.632 132.709C116.37 132.717 117.77 131.281 117.779 129.469V129.464ZM113.66 40.8814C111.938 40.8901 110.542 42.3699 110.55 44.1733C110.563 46.0371 111.889 47.4479 113.652 47.4609C115.46 47.4781 116.819 46.0458 116.811 44.1259C116.803 42.3268 115.39 40.8685 113.66 40.8814ZM125.596 52.4871C123.808 52.5001 122.495 53.872 122.482 55.7402C122.47 57.6514 123.821 59.0752 125.641 59.0709C127.346 59.0666 128.73 57.5738 128.718 55.7488C128.71 53.9152 127.33 52.4742 125.596 52.4871Z" fill="white"/>
</g>
<defs>
<clipPath id="clip0_619_451">
<rect width="107.301" height="106" fill="white" transform="translate(31.9739 34)"/>
</clipPath>
</defs>
</svg>
