<svg width="180" height="180" viewBox="0 0 180 180" fill="none" xmlns="http://www.w3.org/2000/svg">
<path d="M115.555 136.367V153.704H144.17V171H34.8162V153.812H63.3846V136.36C62.6741 136.36 61.9636 136.36 61.2599 136.36C45.0405 136.36 28.8279 136.36 12.6085 136.36C7.55388 136.36 4.13001 133.803 3.19623 129.36C3.03383 128.594 3.01353 127.794 3.01353 127.007C3 90.78 3 54.5464 3 18.3195C3 12.6288 6.61333 9 12.2972 9C63.7635 9 115.23 9 166.696 9C172.448 9 175.993 12.6356 175.993 18.4891C175.993 54.6074 175.993 90.719 175.993 126.837C175.993 132.786 172.488 136.347 166.554 136.36C150.335 136.381 134.122 136.367 117.903 136.367C117.179 136.367 116.448 136.367 115.548 136.367H115.555ZM89.3342 130.547C114.844 130.547 140.347 130.547 165.857 130.547C169.484 130.547 170.242 129.795 170.242 126.22C170.242 90.5562 170.242 54.8923 170.242 19.2352C170.242 15.5454 169.491 14.7925 165.776 14.7925C114.932 14.7925 64.0815 14.7925 13.2378 14.7925C9.52294 14.7925 8.76509 15.5386 8.76509 19.2284C8.76509 54.8923 8.76509 90.5562 8.76509 126.213C8.76509 126.722 8.73802 127.231 8.78539 127.739C8.92748 129.34 9.8748 130.33 11.4582 130.5C12.0739 130.568 12.6964 130.547 13.3122 130.547C38.6529 130.547 63.9868 130.547 89.3275 130.547H89.3342ZM69.4474 136.455V153.636H109.6V136.455H69.4474ZM143.812 171H35.141C33.4832 171 32.1367 169.65 32.1367 167.988V156.824C32.1367 155.162 33.4832 153.812 35.141 153.812H143.805C145.463 153.812 146.809 155.162 146.809 156.824V167.988C146.809 169.65 145.463 171 143.805 171H143.812ZM43.4977 165.187H135.773C137.302 165.187 138.547 163.939 138.547 162.406C138.547 160.873 137.302 159.625 135.773 159.625H43.4909C41.9617 159.625 40.7167 160.873 40.7167 162.406C40.7167 163.939 41.9617 165.187 43.4909 165.187H43.4977Z" fill="#7F7A77"/>
<path d="M14.5573 113.027V20.707H164.389V113.027H14.5573ZM69.4203 84.16V107.228H158.583V26.4995H20.4035V107.303H23.2116V105.41C23.2116 97.7255 23.2049 90.0406 23.2184 82.349C23.2184 81.1688 23.2184 79.9614 23.4349 78.8016C24.7612 71.7339 30.4789 66.9724 37.7935 66.9317C48.4914 66.8774 59.1893 66.9317 69.8872 66.8842C70.909 66.8842 72.0119 66.6265 72.9457 66.1924C78.298 63.7031 83.6165 61.1189 88.9418 58.5685C91.4928 57.3476 94.0843 57.3137 96.5676 58.6364C97.4947 59.1315 98.124 59.0976 99.0036 58.6024C108.03 53.5221 117.077 48.4825 126.124 43.4361C126.645 43.1445 127.179 42.8596 127.775 42.534C128.743 44.2908 129.629 45.8915 130.556 47.5736C129.724 48.0416 129.094 48.4011 128.458 48.7538C119.709 53.6374 110.967 58.5346 102.211 63.3979C101.358 63.8727 100.885 64.3068 100.946 65.4395C101.149 69.3599 99.3352 72.1137 95.7692 73.7348C89.5778 76.5565 83.3932 79.412 77.2086 82.2472C74.7659 83.3664 72.4314 84.8722 69.4136 84.1532L69.4203 84.16ZM63.5537 78.4896C65.3672 78.4896 66.9438 78.4014 68.5068 78.5099C70.5909 78.6524 72.4585 78.1504 74.3261 77.2347C78.007 75.4237 81.776 73.7891 85.5044 72.073C88.211 70.8318 90.9379 69.6177 93.6242 68.3357C95.0722 67.6439 95.5865 66.2602 95.0046 64.9783C94.4227 63.676 93.0626 63.1673 91.5875 63.7234C91.2221 63.8591 90.877 64.0694 90.5251 64.2389C85.0984 66.8367 79.6852 69.4617 74.2313 72.0052C73.3043 72.4393 72.2014 72.6903 71.1796 72.6971C60.2043 72.7445 49.2357 72.7174 38.2604 72.731C32.5021 72.731 28.9903 76.2445 28.9767 81.9963C28.9632 89.905 28.9767 97.8137 28.9767 105.722C28.9767 106.258 28.9767 106.794 28.9767 107.269H63.5537V78.5099V78.4896Z" fill="#7F7A77"/>
<path d="M63.5199 49.6694C63.4657 57.646 57.0105 64.0082 49.026 63.9675C41.0076 63.9268 34.6606 57.4086 34.7418 49.2896C34.823 41.3469 41.3189 35.0118 49.3237 35.0796C57.2608 35.1475 63.574 41.6386 63.5199 49.6694ZM49.1275 40.8654C44.3909 40.8654 40.534 44.7112 40.5069 49.4524C40.4798 54.2953 44.3232 58.1886 49.141 58.1886C53.8911 58.1886 57.7277 54.3699 57.7548 49.6084C57.7818 44.7519 53.952 40.8654 49.1275 40.8721V40.8654Z" fill="#7F7A77"/>
<path d="M150.879 78.605C151.983 78.605 152.879 79.5004 152.879 80.605V82.1533C152.879 83.2579 151.983 84.1533 150.879 84.1533H91.632C90.5274 84.1533 89.632 83.2579 89.632 82.1533V80.605C89.632 79.5004 90.5274 78.605 91.632 78.605H150.879Z" fill="#992740"/>
<path d="M150.879 90.1562C151.983 90.1562 152.879 91.0517 152.879 92.1562V93.7046C152.879 94.8091 151.983 95.7046 150.879 95.7046H91.6252C90.5206 95.7046 89.6252 94.8091 89.6252 93.7046V92.1563C89.6252 91.0517 90.5206 90.1562 91.6252 90.1562H150.879Z" fill="#992740"/>
<path d="M117.555 72.609C116.45 72.609 115.555 71.7136 115.555 70.609V69.0132C115.555 67.9086 116.45 67.0132 117.555 67.0132H150.838C151.943 67.0132 152.838 67.9086 152.838 69.0132V70.609C152.838 71.7135 151.943 72.609 150.838 72.609H117.555Z" fill="#992740"/>
<path d="M123 61C121.895 61 121 60.1046 121 59V57C121 55.8954 121.895 55 123 55H151C152.105 55 153 55.8954 153 57V59C153 60.1046 152.105 61 151 61H123Z" fill="#992740"/>
<path d="M113 38C111.895 38 111 37.1046 111 36V34C111 32.8954 111.895 32 113 32H151C152.105 32 153 32.8954 153 34V36C153 37.1046 152.105 38 151 38H113Z" fill="#992740"/>
<path d="M95.3159 44.3433C95.3159 44.0671 95.5397 43.8433 95.8159 43.8433H106.17C106.446 43.8433 106.67 44.0671 106.67 44.3433V48.9391C106.67 49.2152 106.446 49.4391 106.17 49.4391H95.8159C95.5397 49.4391 95.3159 49.2152 95.3159 48.9391V44.3433Z" fill="#992740"/>
<path d="M142 44.3433C142 44.0671 142.224 43.8433 142.5 43.8433H152.854C153.13 43.8433 153.354 44.0671 153.354 44.3433V48.9391C153.354 49.2152 153.13 49.4391 152.854 49.4391H142.5C142.224 49.4391 142 49.2152 142 48.9391V44.3433Z" fill="#992740"/>
<path d="M105 67.5C105 67.2239 105.224 67 105.5 67H110.5C110.776 67 111 67.2239 111 67.5V72.5C111 72.7761 110.776 73 110.5 73H105.5C105.224 73 105 72.7761 105 72.5V67.5Z" fill="#992740"/>
<path d="M95.3159 32.5C95.3159 32.2239 95.5397 32 95.8159 32H106.17C106.446 32 106.67 32.2239 106.67 32.5V37.0958C106.67 37.3719 106.446 37.5958 106.17 37.5958H95.8159C95.5397 37.5958 95.3159 37.3719 95.3159 37.0958V32.5Z" fill="#992740"/>
<rect x="36" y="157" width="107" height="10" rx="4" fill="#992740"/>
</svg>
