<svg width="180" height="180" viewBox="0 0 180 180" fill="none" xmlns="http://www.w3.org/2000/svg">
<path d="M102.321 94.5623C98.3209 94.5623 94.5246 93.0074 91.7081 90.143C88.8507 87.3196 87.2996 83.5141 87.2996 79.5041C87.2996 71.1975 94.0348 64.4458 102.321 64.4458C110.608 64.4458 117.343 71.1975 117.343 79.5041C117.343 87.8106 110.608 94.5623 102.321 94.5623ZM102.321 68.5377C96.2799 68.5377 91.3815 73.448 91.3815 79.5041C91.3815 82.4502 92.5245 85.1918 94.6063 87.2787C96.6881 89.3656 99.423 90.4704 102.321 90.4704C108.363 90.4704 113.261 85.5601 113.261 79.5041C113.261 73.448 108.363 68.5377 102.321 68.5377Z" fill="#7F7A77"/>
<path d="M129.303 110.807C128.201 106.02 123.956 102.582 119.016 102.582H85.5852C80.9317 102.582 76.809 105.651 75.4619 110.152" fill="#7F7A77"/>
<path d="M127.752 113.262L127.303 111.257C126.405 107.37 123.017 104.628 119.017 104.628H85.5852C81.8298 104.628 78.4826 107.124 77.4213 110.725L76.8498 112.689L72.9312 111.544L73.5026 109.58C75.0538 104.26 80.0338 100.536 85.5852 100.536H119.017C124.935 100.536 129.956 104.587 131.262 110.357L131.711 112.362L127.711 113.262H127.752Z" fill="#7F7A77"/>
<path d="M152.53 148.821C152.53 152.34 149.672 155.246 146.121 155.246C142.57 155.246 139.712 152.381 139.712 148.821C139.712 145.302 142.57 142.397 146.121 142.397C149.672 142.397 152.53 145.261 152.53 148.821Z" fill="#B7333E"/>
<path d="M39.2959 39.1987C39.2959 42.7178 36.4385 45.623 32.8872 45.623C29.3359 45.623 26.4785 42.7587 26.4785 39.1987C26.4785 35.6797 29.3359 32.7744 32.8872 32.7744C36.3977 32.7744 39.2959 35.6388 39.2959 39.1987Z" fill="#B7333E"/>
<path d="M129.304 110.93C128.201 106.102 123.956 102.705 119.017 102.705H85.5857C80.9322 102.705 76.8094 105.774 75.4624 110.275L74.2378 112.158C74.2378 112.158 81.6262 120.71 84.8101 122.142C87.994 123.574 98.3622 125.784 99.7093 125.948C103.465 125.948 107.261 125.743 110.975 125.252C112.486 124.884 121.548 121.446 121.548 121.446C121.548 121.446 127.344 116.413 127.997 115.963C128.65 115.513 129.263 110.93 129.263 110.93H129.304Z" fill="#992740"/>
<path d="M140.692 48.1191C129.426 48.1191 120.282 38.9532 120.282 27.6595C120.282 16.3658 129.426 7.19995 140.692 7.19995C151.958 7.19995 161.102 16.3658 161.102 27.6595C161.102 38.9532 151.958 48.1191 140.692 48.1191ZM140.692 11.2919C131.671 11.2919 124.364 18.6164 124.364 27.6595C124.364 36.7027 131.671 44.0272 140.692 44.0272C149.713 44.0272 157.02 36.7027 157.02 27.6595C157.02 18.6164 149.713 11.2919 140.692 11.2919Z" fill="#7F7A77"/>
<path d="M140.57 31.7103C135.916 31.7103 132.12 27.9048 132.12 23.24C132.12 18.5753 135.916 14.7698 140.57 14.7698C145.223 14.7698 149.019 18.5753 149.019 23.24C149.019 27.9048 145.223 31.7103 140.57 31.7103ZM140.57 18.9026C138.161 18.9026 136.202 20.8667 136.202 23.281C136.202 25.6952 138.161 27.6593 140.57 27.6593C142.978 27.6593 144.937 25.6952 144.937 23.281C144.937 20.8667 142.978 18.9026 140.57 18.9026Z" fill="#7F7A77"/>
<path d="M152.326 41.1218L151.877 39.1168C151.551 37.6846 150.285 36.6616 148.816 36.6616H132.365C130.977 36.6616 129.753 37.6028 129.345 38.9122L128.773 40.8763L124.854 39.7306L125.426 37.7664C126.324 34.6975 129.181 32.5697 132.365 32.5697H148.816C152.204 32.5697 155.102 34.9021 155.877 38.2165L156.326 40.2216L152.326 41.1218Z" fill="#7F7A77"/>
<path d="M33.0099 64.0367C21.7437 64.0367 12.6001 54.8708 12.6001 43.5771C12.6001 32.2834 21.7437 23.1176 33.0099 23.1176C44.2762 23.1176 53.4198 32.2834 53.4198 43.5771C53.4198 54.8708 44.2762 64.0367 33.0099 64.0367ZM33.0099 27.2095C23.9888 27.2095 16.6821 34.534 16.6821 43.5771C16.6821 52.6203 23.9888 59.9448 33.0099 59.9448C42.0311 59.9448 49.3378 52.6203 49.3378 43.5771C49.3378 34.534 42.0311 27.2095 33.0099 27.2095Z" fill="#7F7A77"/>
<path d="M32.9284 47.6688C28.275 47.6688 24.4788 43.8633 24.4788 39.1985C24.4788 34.5338 28.275 30.7283 32.9284 30.7283C37.5819 30.7283 41.3781 34.5338 41.3781 39.1985C41.3781 43.8633 37.5819 47.6688 32.9284 47.6688ZM32.9284 34.8611C30.5201 34.8611 28.5607 36.8252 28.5607 39.2395C28.5607 41.6537 30.5201 43.6178 32.9284 43.6178C35.3368 43.6178 37.2961 41.6537 37.2961 39.2395C37.2961 36.8252 35.3368 34.8611 32.9284 34.8611Z" fill="#7F7A77"/>
<path d="M44.6851 57.0804L44.236 55.0754C43.9095 53.6432 42.6441 52.6202 41.1746 52.6202H24.6834C23.2956 52.6202 22.071 53.5614 21.6628 54.8708L21.0913 56.8349L17.1726 55.6892L17.7441 53.7251C18.6421 50.6561 21.4995 48.5283 24.6834 48.5283H41.1338C44.5218 48.5283 47.42 50.8607 48.1956 54.1752L48.6446 56.1802L44.6442 57.0804H44.6851Z" fill="#7F7A77"/>
<path d="M33.0099 154.059C21.7437 154.059 12.6001 144.893 12.6001 133.599C12.6001 122.306 21.7437 113.14 33.0099 113.14C44.2762 113.14 53.4198 122.306 53.4198 133.599C53.4198 144.893 44.2762 154.059 33.0099 154.059ZM33.0099 117.232C23.9888 117.232 16.6821 124.556 16.6821 133.599C16.6821 142.643 23.9888 149.967 33.0099 149.967C42.0311 149.967 49.3378 142.643 49.3378 133.599C49.3378 124.556 42.0311 117.232 33.0099 117.232Z" fill="#7F7A77"/>
<path d="M32.9284 137.65C28.275 137.65 24.4788 133.845 24.4788 129.18C24.4788 124.515 28.275 120.71 32.9284 120.71C37.5819 120.71 41.3781 124.515 41.3781 129.18C41.3781 133.845 37.5819 137.65 32.9284 137.65ZM32.9284 124.843C30.5201 124.843 28.5607 126.807 28.5607 129.221C28.5607 131.635 30.5201 133.599 32.9284 133.599C35.3368 133.599 37.2961 131.635 37.2961 129.221C37.2961 126.807 35.3368 124.843 32.9284 124.843Z" fill="#7F7A77"/>
<path d="M44.6851 147.062L44.236 145.057C43.9095 143.624 42.6441 142.601 41.1746 142.601H24.6834C23.2956 142.601 22.071 143.543 21.6628 144.852L21.0913 146.816L17.1726 145.67L17.7441 143.706C18.6421 140.637 21.4995 138.51 24.6834 138.51H41.1338C44.5218 138.51 47.42 140.842 48.1956 144.156L48.6446 146.161L44.6442 147.062H44.6851Z" fill="#7F7A77"/>
<path d="M146.203 173.7C134.936 173.7 125.793 164.534 125.793 153.24C125.793 141.947 134.936 132.781 146.203 132.781C157.469 132.781 166.612 141.947 166.612 153.24C166.612 164.534 157.469 173.7 146.203 173.7ZM146.203 136.873C137.181 136.873 129.875 144.197 129.875 153.24C129.875 162.284 137.181 169.608 146.203 169.608C155.224 169.608 162.53 162.284 162.53 153.24C162.53 144.197 155.224 136.873 146.203 136.873Z" fill="#7F7A77"/>
<path d="M146.121 157.291C141.468 157.291 137.672 153.486 137.672 148.821C137.672 144.156 141.468 140.351 146.121 140.351C150.775 140.351 154.571 144.156 154.571 148.821C154.571 153.486 150.775 157.291 146.121 157.291ZM146.121 144.484C143.713 144.484 141.754 146.448 141.754 148.862C141.754 151.276 143.713 153.24 146.121 153.24C148.53 153.24 150.489 151.276 150.489 148.862C150.489 146.448 148.53 144.484 146.121 144.484Z" fill="#7F7A77"/>
<path d="M157.837 166.703L157.388 164.698C157.061 163.265 155.796 162.242 154.326 162.242H137.876C136.488 162.242 135.264 163.184 134.855 164.493L134.284 166.457L130.365 165.311L130.937 163.347C131.835 160.278 134.692 158.151 137.876 158.151H154.326C157.714 158.151 160.613 160.483 161.388 163.797L161.837 165.802L157.837 166.703Z" fill="#7F7A77"/>
<path d="M125.548 61.0088C125.18 61.0088 124.813 60.9269 124.445 60.6814C123.507 60.0676 123.221 58.7991 123.792 57.858L132.609 43.9046C133.222 42.9634 134.487 42.677 135.426 43.2908C136.365 43.9046 136.651 45.1731 136.079 46.1142L127.262 60.0676C126.854 60.6814 126.201 61.0088 125.548 61.0088Z" fill="#7F7A77"/>
<path d="M70.523 69.8063C70.1556 69.8063 69.7474 69.6836 69.4209 69.479L47.5823 55.2391C46.6435 54.6253 46.3577 53.3568 46.97 52.4157C47.5823 51.4745 48.8477 51.1881 49.7866 51.8019L71.6251 66.0418C72.564 66.6555 72.8497 67.924 72.2374 68.8652C71.8292 69.479 71.1761 69.8063 70.523 69.8063Z" fill="#7F7A77"/>
<path d="M48.9703 127.257C48.3171 127.257 47.7049 126.929 47.2967 126.357C46.6435 125.415 46.8885 124.147 47.8273 123.492L69.9516 108.148C70.8496 107.493 72.1558 107.738 72.8089 108.679C73.4621 109.621 73.2171 110.889 72.2783 111.544L50.154 126.889C49.7867 127.134 49.3785 127.257 49.0111 127.257H48.9703Z" fill="#7F7A77"/>
<path d="M137.753 138.632C137.059 138.632 136.406 138.305 136.039 137.65L124.405 118.868C123.793 117.927 124.119 116.659 125.058 116.045C125.997 115.472 127.263 115.758 127.875 116.7L139.508 135.481C140.121 136.423 139.794 137.691 138.855 138.305C138.529 138.509 138.161 138.632 137.794 138.632H137.753Z" fill="#7F7A77"/>
<path d="M102.485 127.83C80.7691 127.83 63.135 110.153 63.135 88.3836C63.135 66.6146 80.7691 48.9375 102.485 48.9375C124.201 48.9375 141.835 66.6146 141.835 88.3836C141.835 110.153 124.201 127.83 102.485 127.83ZM102.485 53.0294C83.055 53.0294 67.217 68.9061 67.217 88.3836C67.217 107.861 83.055 123.738 102.485 123.738C121.915 123.738 137.753 107.861 137.753 88.3836C137.753 68.9061 121.915 53.0294 102.485 53.0294Z" fill="#7F7A77"/>
</svg>
