<svg width="180" height="180" viewBox="0 0 180 180" fill="none" xmlns="http://www.w3.org/2000/svg">
<path d="M102.541 94.5623C98.5559 94.5623 94.7745 93.0074 91.9689 90.143C89.1227 87.3196 87.5776 83.5141 87.5776 79.5041C87.5776 71.1975 94.2866 64.4458 102.541 64.4458C110.795 64.4458 117.504 71.1975 117.504 79.5041C117.504 87.8106 110.795 94.5623 102.541 94.5623ZM102.541 68.5377C96.5229 68.5377 91.6436 73.448 91.6436 79.5041C91.6436 82.4502 92.7821 85.1918 94.8558 87.2787C96.9295 89.3656 99.6538 90.4704 102.541 90.4704C108.558 90.4704 113.438 85.5601 113.438 79.5041C113.438 73.448 108.558 68.5377 102.541 68.5377Z" fill="#7F7A77"/>
<path d="M129.417 110.807C128.319 106.02 124.091 102.582 119.171 102.582H85.8698C81.2345 102.582 77.1278 105.651 75.7859 110.152" fill="#7F7A77"/>
<path d="M127.872 113.262L127.425 111.257C126.531 107.37 123.156 104.628 119.171 104.628H85.87C82.1292 104.628 78.795 107.124 77.7379 110.725L77.1686 112.689L73.2652 111.544L73.8344 109.58C75.3795 104.26 80.3401 100.536 85.87 100.536H119.171C125.067 100.536 130.068 104.587 131.369 110.357L131.816 112.362L127.832 113.262H127.872Z" fill="#7F7A77"/>
<path d="M152.553 148.821C152.553 152.34 149.707 155.246 146.17 155.246C142.632 155.246 139.786 152.381 139.786 148.821C139.786 145.302 142.632 142.397 146.17 142.397C149.707 142.397 152.553 145.261 152.553 148.821Z" fill="#B7333E"/>
<path d="M39.761 39.1987C39.761 42.7178 36.9147 45.623 33.3772 45.623C29.8398 45.623 26.9935 42.7587 26.9935 39.1987C26.9935 35.6797 29.8398 32.7744 33.3772 32.7744C36.874 32.7744 39.761 35.6388 39.761 39.1987Z" fill="#B7333E"/>
<path d="M129.418 110.93C128.32 106.102 124.091 102.705 119.171 102.705H85.8702C81.2349 102.705 77.1282 105.774 75.7864 110.275L74.5666 112.158C74.5666 112.158 81.9261 120.71 85.0977 122.142C88.2692 123.574 98.597 125.784 99.9388 125.948C103.68 125.948 107.461 125.743 111.161 125.252C112.666 124.884 121.692 121.446 121.692 121.446C121.692 121.446 127.466 116.413 128.117 115.963C128.767 115.513 129.377 110.93 129.377 110.93H129.418Z" fill="#992740"/>
<path d="M140.762 48.1191C129.54 48.1191 120.432 38.9532 120.432 27.6595C120.432 16.3658 129.54 7.19995 140.762 7.19995C151.984 7.19995 161.092 16.3658 161.092 27.6595C161.092 38.9532 151.984 48.1191 140.762 48.1191ZM140.762 11.2919C131.776 11.2919 124.498 18.6164 124.498 27.6595C124.498 36.7027 131.776 44.0272 140.762 44.0272C149.748 44.0272 157.026 36.7027 157.026 27.6595C157.026 18.6164 149.748 11.2919 140.762 11.2919Z" fill="#7F7A77"/>
<path d="M140.64 31.7103C136.005 31.7103 132.223 27.9048 132.223 23.24C132.223 18.5753 136.005 14.7698 140.64 14.7698C145.276 14.7698 149.057 18.5753 149.057 23.24C149.057 27.9048 145.276 31.7103 140.64 31.7103ZM140.64 18.9026C138.241 18.9026 136.29 20.8667 136.29 23.281C136.29 25.6952 138.241 27.6593 140.64 27.6593C143.039 27.6593 144.991 25.6952 144.991 23.281C144.991 20.8667 143.039 18.9026 140.64 18.9026Z" fill="#7F7A77"/>
<path d="M152.351 41.1218L151.903 39.1168C151.578 37.6846 150.318 36.6616 148.854 36.6616H132.468C131.085 36.6616 129.865 37.6028 129.459 38.9122L128.89 40.8763L124.986 39.7306L125.555 37.7664C126.45 34.6975 129.296 32.5697 132.468 32.5697H148.854C152.229 32.5697 155.116 34.9021 155.888 38.2165L156.335 40.2216L152.351 41.1218Z" fill="#7F7A77"/>
<path d="M33.4993 64.0367C22.277 64.0367 13.169 54.8708 13.169 43.5771C13.169 32.2834 22.277 23.1176 33.4993 23.1176C44.7217 23.1176 53.8296 32.2834 53.8296 43.5771C53.8296 54.8708 44.7217 64.0367 33.4993 64.0367ZM33.4993 27.2095C24.5133 27.2095 17.2351 34.534 17.2351 43.5771C17.2351 52.6203 24.5133 59.9448 33.4993 59.9448C42.4853 59.9448 49.7636 52.6203 49.7636 43.5771C49.7636 34.534 42.4853 27.2095 33.4993 27.2095Z" fill="#7F7A77"/>
<path d="M33.4183 47.6688C28.783 47.6688 25.0015 43.8633 25.0015 39.1985C25.0015 34.5338 28.783 30.7283 33.4183 30.7283C38.0536 30.7283 41.835 34.5338 41.835 39.1985C41.835 43.8633 38.0536 47.6688 33.4183 47.6688ZM33.4183 34.8611C31.0193 34.8611 29.0676 36.8252 29.0676 39.2395C29.0676 41.6537 31.0193 43.6178 33.4183 43.6178C35.8173 43.6178 37.769 41.6537 37.769 39.2395C37.769 36.8252 35.8173 34.8611 33.4183 34.8611Z" fill="#7F7A77"/>
<path d="M45.1289 57.0804L44.6816 55.0754C44.3564 53.6432 43.0959 52.6202 41.6321 52.6202H25.2052C23.8227 52.6202 22.6029 53.5614 22.1963 54.8708L21.6271 56.8349L17.7236 55.6892L18.2929 53.7251C19.1874 50.6561 22.0337 48.5283 25.2052 48.5283H41.5914C44.9663 48.5283 47.8532 50.8607 48.6257 54.1752L49.073 56.1802L45.0883 57.0804H45.1289Z" fill="#7F7A77"/>
<path d="M33.4993 154.059C22.277 154.059 13.169 144.893 13.169 133.599C13.169 122.306 22.277 113.14 33.4993 113.14C44.7217 113.14 53.8296 122.306 53.8296 133.599C53.8296 144.893 44.7217 154.059 33.4993 154.059ZM33.4993 117.232C24.5133 117.232 17.2351 124.556 17.2351 133.599C17.2351 142.643 24.5133 149.967 33.4993 149.967C42.4853 149.967 49.7636 142.643 49.7636 133.599C49.7636 124.556 42.4853 117.232 33.4993 117.232Z" fill="#7F7A77"/>
<path d="M33.4183 137.65C28.783 137.65 25.0015 133.845 25.0015 129.18C25.0015 124.515 28.783 120.71 33.4183 120.71C38.0536 120.71 41.835 124.515 41.835 129.18C41.835 133.845 38.0536 137.65 33.4183 137.65ZM33.4183 124.843C31.0193 124.843 29.0676 126.807 29.0676 129.221C29.0676 131.635 31.0193 133.599 33.4183 133.599C35.8173 133.599 37.769 131.635 37.769 129.221C37.769 126.807 35.8173 124.843 33.4183 124.843Z" fill="#7F7A77"/>
<path d="M45.1289 147.062L44.6816 145.057C44.3564 143.624 43.0959 142.601 41.6321 142.601H25.2052C23.8227 142.601 22.6029 143.543 22.1963 144.852L21.6271 146.816L17.7236 145.67L18.2929 143.706C19.1874 140.637 22.0337 138.51 25.2052 138.51H41.5914C44.9663 138.51 47.8532 140.842 48.6257 144.156L49.073 146.161L45.0883 147.062H45.1289Z" fill="#7F7A77"/>
<path d="M146.251 173.7C135.029 173.7 125.921 164.534 125.921 153.24C125.921 141.947 135.029 132.781 146.251 132.781C157.473 132.781 166.581 141.947 166.581 153.24C166.581 164.534 157.473 173.7 146.251 173.7ZM146.251 136.873C137.265 136.873 129.987 144.197 129.987 153.24C129.987 162.284 137.265 169.608 146.251 169.608C155.237 169.608 162.515 162.284 162.515 153.24C162.515 144.197 155.237 136.873 146.251 136.873Z" fill="#7F7A77"/>
<path d="M146.17 157.291C141.535 157.291 137.754 153.486 137.754 148.821C137.754 144.156 141.535 140.351 146.17 140.351C150.806 140.351 154.587 144.156 154.587 148.821C154.587 153.486 150.806 157.291 146.17 157.291ZM146.17 144.483C143.771 144.483 141.82 146.448 141.82 148.862C141.82 151.276 143.771 153.24 146.17 153.24C148.569 153.24 150.521 151.276 150.521 148.862C150.521 146.448 148.569 144.483 146.17 144.483Z" fill="#7F7A77"/>
<path d="M157.84 166.702L157.393 164.697C157.068 163.265 155.807 162.242 154.343 162.242H137.957C136.575 162.242 135.355 163.183 134.948 164.493L134.379 166.457L130.476 165.311L131.045 163.347C131.939 160.278 134.786 158.15 137.957 158.15H154.343C157.718 158.15 160.605 160.483 161.378 163.797L161.825 165.802L157.84 166.702Z" fill="#7F7A77"/>
<path d="M125.677 61.0088C125.311 61.0088 124.945 60.9269 124.579 60.6814C123.644 60.0676 123.359 58.7991 123.928 57.858L132.711 43.9046C133.321 42.9634 134.581 42.677 135.516 43.2908C136.452 43.9046 136.736 45.1731 136.167 46.1142L127.384 60.0676C126.978 60.6814 126.327 61.0088 125.677 61.0088Z" fill="#7F7A77"/>
<path d="M70.8663 69.8063C70.5003 69.8063 70.0937 69.6836 69.7684 69.479L48.015 55.2391C47.0798 54.6253 46.7952 53.3568 47.4051 52.4157C48.015 51.4745 49.2755 51.1881 50.2107 51.8019L71.9641 66.0418C72.8993 66.6555 73.1839 67.924 72.574 68.8652C72.1674 69.479 71.5168 69.8063 70.8663 69.8063Z" fill="#7F7A77"/>
<path d="M49.3975 127.257C48.7469 127.257 48.137 126.93 47.7304 126.357C47.0799 125.416 47.3238 124.147 48.259 123.492L70.2971 108.148C71.1916 107.493 72.4927 107.738 73.1433 108.68C73.7939 109.621 73.5499 110.889 72.6147 111.544L50.5767 126.889C50.2107 127.134 49.8041 127.257 49.4382 127.257H49.3975Z" fill="#7F7A77"/>
<path d="M137.835 138.632C137.143 138.632 136.493 138.305 136.127 137.65L124.539 118.868C123.929 117.927 124.254 116.659 125.189 116.045C126.124 115.472 127.385 115.759 127.995 116.7L139.583 135.482C140.193 136.423 139.868 137.691 138.932 138.305C138.607 138.51 138.241 138.632 137.875 138.632H137.835Z" fill="#7F7A77"/>
<path d="M102.704 127.83C81.0724 127.83 63.507 110.153 63.507 88.3836C63.507 66.6146 81.0724 48.9375 102.704 48.9375C124.335 48.9375 141.901 66.6146 141.901 88.3836C141.901 110.153 124.335 127.83 102.704 127.83ZM102.704 53.0294C83.3494 53.0294 67.5731 68.9061 67.5731 88.3836C67.5731 107.861 83.3494 123.738 102.704 123.738C122.058 123.738 137.835 107.861 137.835 88.3836C137.835 68.9061 122.058 53.0294 102.704 53.0294Z" fill="#7F7A77"/>
</svg>
