<svg width="180" height="180" viewBox="0 0 180 180" fill="none" xmlns="http://www.w3.org/2000/svg">
<path d="M90.4254 174C65.9412 174 41.4569 174 16.9727 174C10.0669 174 6.30005 169.689 6.30005 161.784C6.30005 116.128 6.30005 70.4718 6.30005 24.8155C6.30005 16.9113 10.0669 12.6 16.9727 12.6C65.9412 12.6 114.861 12.6 163.83 12.6C170.736 12.6 174.503 16.9113 174.503 24.8155C174.503 70.4718 174.503 116.128 174.503 161.784C174.503 169.689 170.687 174 163.83 174C139.346 174 114.861 174 90.3772 174H90.4254ZM11.7571 37.5285V39.6842C11.7571 80.3659 11.7571 120.992 11.7571 161.674C11.7571 166.262 13.1093 167.809 17.1658 167.809C66.0378 167.809 114.91 167.809 163.83 167.809C167.79 167.809 169.142 166.262 169.142 161.784C169.142 121.048 169.142 80.3106 169.142 39.629V37.5838H11.7571V37.5285ZM168.997 31.1168C169.046 30.8404 169.142 30.6746 169.142 30.4535C169.142 28.1872 169.142 25.921 169.142 23.6548C169.094 20.3936 167.355 18.7907 164.023 18.7907C114.958 18.7907 65.9412 18.7907 16.8761 18.7907C16.3449 18.7907 15.8619 18.7907 15.3307 18.7907C13.4473 19.067 11.902 20.7253 11.8054 22.8809C11.6605 25.5894 11.8054 28.2425 11.8054 31.0615H168.949L168.997 31.1168Z" fill="#7F7A77"/>
<path d="M168.949 31.1168H11.7568C11.7568 28.3531 11.6602 25.6447 11.7568 22.9363C11.8534 20.7806 13.3987 19.1223 15.2821 18.846C15.7651 18.7907 16.2963 18.846 16.8275 18.846C65.8926 18.846 114.909 18.846 163.975 18.846C167.307 18.846 169.045 20.4489 169.093 23.7101C169.093 25.9763 169.093 28.2426 169.093 30.5088C169.093 30.6746 169.045 30.8957 168.949 31.1721V31.1168ZM18.5177 21.886C15.7651 21.886 14.5095 22.8257 14.4612 24.9261C14.4612 27.0818 15.7651 28.0767 18.6143 28.0767C21.3187 28.0767 22.6226 27.0265 22.5743 24.9261C22.5743 22.8257 21.2704 21.886 18.5177 21.886ZM29.3835 28.0767C32.1362 28.0767 33.3918 27.1371 33.4401 25.0367C33.4401 22.881 32.1362 21.886 29.2869 21.886C26.5826 21.886 25.2787 22.9363 25.327 25.0367C25.327 27.1371 26.6309 28.0767 29.3835 28.0767ZM40.2493 21.886C37.4967 21.886 36.2411 22.8257 36.1928 24.9261C36.1928 27.0818 37.4967 28.0767 40.3459 28.0767C43.0503 28.0767 44.3542 27.0265 44.3059 24.9261C44.3059 22.8257 43.002 21.886 40.2493 21.886Z" fill="#B7333E"/>
<path d="M91.4747 45C109.617 45 127.759 45 145.952 45C152.946 45 157 49.2717 157 56.6403C157 86.8623 157 117.084 157 147.36C157 154.728 152.946 159 145.952 159C109.668 159 73.3323 159 37.0476 159C30.0542 159 26 154.728 26 147.36C26 117.138 26 86.9157 26 56.6403C26 49.2717 30.0542 45 37.0476 45C55.1899 45 73.3323 45 91.5253 45H91.4747ZM91.4747 50.9803C73.3323 50.9803 55.1899 50.9803 37.0476 50.9803C33.1961 50.9803 31.6758 52.5822 31.6758 56.6403C31.6758 86.8623 31.6758 117.084 31.6758 147.306C31.6758 151.364 33.1961 152.913 37.0983 152.913C73.3323 152.913 109.566 152.913 145.8 152.913C149.804 152.913 151.273 151.364 151.273 147.146C151.273 116.978 151.273 86.8089 151.273 56.6937C151.273 52.5288 149.804 50.9803 145.75 50.9803C127.658 50.9803 109.566 50.9803 91.4747 50.9803Z" fill="#7F7A77"/>
<path d="M74.1511 93.2446C74.1511 86.3353 74.1511 79.4261 74.1511 72.5169C74.1511 68.8135 76.1311 67.4869 78.9321 69.3662C89.3149 76.2755 99.6978 83.24 110.081 90.1492C112.882 92.0286 112.833 94.5712 110.081 96.5058C99.7461 103.415 89.4115 110.324 79.0769 117.178C76.0828 119.168 74.1994 117.842 74.1994 113.807C74.1994 106.953 74.1994 100.099 74.1994 93.2446H74.1511ZM79.7047 77.0493V109.55L104.044 93.2999L79.7047 77.0493Z" fill="#B7333E"/>
<path d="M57.9729 132.097H134.71C135.096 132.097 135.482 132.097 135.917 132.097C138.042 132.097 139.297 133.313 139.249 135.247C139.249 137.182 137.993 138.287 135.82 138.287C110.515 138.287 85.1615 138.287 59.8563 138.287H58.0212C57.5383 139.89 56.8622 141.383 55.0753 141.383C53.3851 141.383 52.6607 140.001 52.2744 138.287C50.0529 138.287 47.8798 138.287 45.7549 138.287C42.8574 138.287 41.5535 137.293 41.5535 135.137C41.5535 133.036 42.8574 132.097 45.6583 132.097C47.7832 132.097 49.9563 132.097 52.2261 132.097C52.709 130.494 53.3851 128.946 55.1719 129.001C56.8622 129.001 57.6348 130.328 57.9729 132.097Z" fill="#7F7A77"/>
</svg>
