<svg width="169" height="162" viewBox="0 0 169 162" fill="none" xmlns="http://www.w3.org/2000/svg">
<path d="M84.1254 161.4C59.6411 161.4 35.1569 161.4 10.6726 161.4C3.76681 161.4 0 157.089 0 149.184C0 103.528 0 57.8719 0 12.2156C0 4.31137 3.76681 0 10.6726 0C59.6411 0 108.561 0 157.53 0C164.436 0 168.203 4.31137 168.203 12.2156C168.203 57.8719 168.203 103.528 168.203 149.184C168.203 157.089 164.387 161.4 157.53 161.4C133.046 161.4 108.561 161.4 84.0771 161.4H84.1254ZM5.45704 24.9286V27.0843C5.45704 67.7659 5.45704 108.392 5.45704 149.074C5.45704 153.662 6.80923 155.209 10.8658 155.209C59.7377 155.209 108.61 155.209 157.53 155.209C161.49 155.209 162.842 153.662 162.842 149.184C162.842 108.448 162.842 67.7106 162.842 27.029V24.9838H5.45704V24.9286ZM162.697 18.5168C162.745 18.2404 162.842 18.0746 162.842 17.8535C162.842 15.5873 162.842 13.321 162.842 11.0548C162.794 7.79363 161.055 6.19069 157.723 6.19069C108.658 6.19069 59.6411 6.19069 10.576 6.19069C10.0448 6.19069 9.5619 6.19069 9.03068 6.19069C7.14728 6.46706 5.60192 8.12528 5.50534 10.281C5.36046 12.9894 5.50534 15.6425 5.50534 18.4615H162.649L162.697 18.5168Z" fill="#7F7A77"/>
<path d="M162.649 18.5168H5.45674C5.45674 15.7531 5.36016 13.0447 5.45674 10.3363C5.55333 8.18059 7.09869 6.52237 8.98209 6.246C9.46502 6.19073 9.99623 6.246 10.5274 6.246C59.5925 6.246 108.609 6.246 157.674 6.246C161.007 6.246 162.745 7.84895 162.793 11.1101C162.793 13.3763 162.793 15.6426 162.793 17.9088C162.793 18.0746 162.745 18.2957 162.649 18.5721V18.5168ZM12.2177 9.28607C9.46502 9.28607 8.20941 10.2257 8.16112 12.3261C8.16112 14.4818 9.46502 15.4768 12.3143 15.4768C15.0186 15.4768 16.3225 14.4266 16.2742 12.3261C16.2742 10.2257 14.9704 9.28607 12.2177 9.28607ZM23.0835 15.4768C25.8361 15.4768 27.0917 14.5371 27.14 12.4367C27.14 10.281 25.8361 9.28607 22.9869 9.28607C20.2825 9.28607 18.9786 10.3363 19.0269 12.4367C19.0269 14.5371 20.3308 15.4768 23.0835 15.4768ZM33.9493 9.28607C31.1966 9.28607 29.941 10.2257 29.8927 12.3261C29.8927 14.4818 31.1966 15.4768 34.0459 15.4768C36.7502 15.4768 38.0541 14.4266 38.0058 12.3261C38.0058 10.2257 36.7019 9.28607 33.9493 9.28607Z" fill="#B7333E"/>
<path d="M85.1746 32.4C103.317 32.4 121.459 32.4 139.652 32.4C146.646 32.4 150.7 36.6717 150.7 44.0403C150.7 74.2623 150.7 104.484 150.7 134.76C150.7 142.128 146.646 146.4 139.652 146.4C103.368 146.4 67.0322 146.4 30.7475 146.4C23.7541 146.4 19.7 142.128 19.7 134.76C19.7 104.538 19.7 74.3157 19.7 44.0403C19.7 36.6717 23.7541 32.4 30.7475 32.4C48.8899 32.4 67.0323 32.4 85.2253 32.4H85.1746ZM85.1746 38.3804C67.0322 38.3804 48.8899 38.3804 30.7475 38.3804C26.8961 38.3804 25.3758 39.9822 25.3758 44.0403C25.3758 74.2623 25.3758 104.484 25.3758 134.706C25.3758 138.764 26.8961 140.313 30.7982 140.313C67.0322 140.313 103.266 140.313 139.5 140.313C143.504 140.313 144.973 138.764 144.973 134.546C144.973 104.378 144.973 74.2089 144.973 44.0937C144.973 39.9288 143.504 38.3804 139.45 38.3804C121.358 38.3804 103.266 38.3804 85.1746 38.3804Z" fill="#7F7A77"/>
<path d="M67.8511 80.6446C67.8511 73.7354 67.8511 66.8261 67.8511 59.9169C67.8511 56.2135 69.8311 54.8869 72.632 56.7663C83.0149 63.6755 93.3978 70.64 103.781 77.5493C106.582 79.4286 106.533 81.9712 103.781 83.9058C93.4461 90.815 83.1115 97.7243 72.7769 104.578C69.7828 106.568 67.8994 105.242 67.8994 101.207C67.8994 94.3526 67.8994 87.4986 67.8994 80.6446H67.8511ZM73.4047 64.4493V96.9504L97.7441 80.6999L73.4047 64.4493Z" fill="#B7333E"/>
<path d="M51.6728 119.497H128.41C128.796 119.497 129.182 119.497 129.617 119.497C131.742 119.497 132.997 120.713 132.949 122.647C132.949 124.582 131.693 125.687 129.52 125.687C104.215 125.687 78.8615 125.687 53.5562 125.687H51.7211C51.2382 127.29 50.5621 128.783 48.7753 128.783C47.0851 128.783 46.3607 127.401 45.9743 125.687C43.7529 125.687 41.5797 125.687 39.4549 125.687C36.5573 125.687 35.2534 124.693 35.2534 122.537C35.2534 120.436 36.5573 119.497 39.3583 119.497C41.4831 119.497 43.6563 119.497 45.926 119.497C46.409 117.894 47.0851 116.346 48.8719 116.401C50.5621 116.401 51.3348 117.728 51.6728 119.497Z" fill="#7F7A77"/>
</svg>
