<svg width="110" height="110" viewBox="0 0 110 110" fill="none" xmlns="http://www.w3.org/2000/svg">
<path d="M77.426 39.4568C77.3006 38.747 76.6238 38.2729 75.9132 38.3977L71.2244 39.2241C70.6615 37.9033 69.9424 36.666 69.0893 35.5341L72.1526 31.8843C72.375 31.6189 72.4828 31.2763 72.4534 30.9311C72.4229 30.5857 72.2568 30.2673 71.9914 30.0443L67.8903 26.6029C67.6252 26.3804 67.2817 26.2723 66.9366 26.3023C66.5917 26.3323 66.273 26.4987 66.05 26.7638L62.9892 30.4117C61.7335 29.772 60.3904 29.2778 58.9824 28.9525V24.1917C58.9824 23.4701 58.398 22.8851 57.6767 22.8851H52.3235C51.6025 22.8851 51.0178 23.4701 51.0178 24.1917V28.9525C49.6093 29.2778 48.2667 29.7717 47.0105 30.4117L43.9503 26.7638C43.4861 26.2116 42.6627 26.1392 42.1105 26.6032L38.0094 30.0443C37.7437 30.2673 37.5782 30.5857 37.5474 30.9311C37.518 31.2763 37.6255 31.6189 37.8482 31.8843L40.9112 35.5341C40.0582 36.666 39.3393 37.9038 38.7764 39.2241L34.0876 38.3977C33.3784 38.2729 32.7002 38.747 32.5748 39.4568L31.645 44.7294C31.5851 45.0704 31.6626 45.4221 31.8617 45.7054C32.0603 45.9892 32.363 46.1819 32.7043 46.2419L37.3967 47.0699C37.4729 48.523 37.7259 49.9294 38.1337 51.2686L34.0103 53.6493C33.71 53.8229 33.4917 54.1072 33.4017 54.4419C33.3124 54.7771 33.3594 55.1332 33.5324 55.433L36.209 60.0695C36.3822 60.3698 36.6674 60.5882 37.0023 60.6778C37.1132 60.7078 37.2267 60.7227 37.3403 60.7227C37.5675 60.7227 37.7927 60.6633 37.9929 60.5472L42.1204 58.1646C43.092 59.203 44.1879 60.1245 45.3841 60.9055L43.7545 65.3817C43.6362 65.7074 43.6513 66.0662 43.7979 66.3803C43.9445 66.6943 44.2093 66.9363 44.5349 67.0554L49.5658 68.8864C49.7099 68.9386 49.8614 68.965 50.0127 68.965C50.2013 68.965 50.3897 68.924 50.5641 68.8429C50.8781 68.6966 51.1209 68.4315 51.2395 68.1056L52.8689 63.6292C53.5674 63.7136 54.2788 63.7581 55.0001 63.7581C55.7215 63.7581 56.4329 63.7136 57.1314 63.6292L58.7611 68.1056C58.8799 68.4315 59.1221 68.6958 59.4362 68.8429C59.6111 68.924 59.7986 68.965 59.9881 68.965C60.1391 68.965 60.2909 68.9384 60.4344 68.8864L65.4656 67.0554C65.7915 66.9363 66.0558 66.6943 66.2029 66.3797C66.3492 66.0657 66.3646 65.7074 66.2461 65.3817L64.6161 60.9055C65.8129 60.1245 66.9083 59.2038 67.8798 58.1646L72.0073 60.5472C72.2078 60.6633 72.4328 60.7224 72.6599 60.7224C72.7732 60.7224 72.8871 60.7078 72.9979 60.6778C73.3329 60.5882 73.6175 60.3698 73.791 60.0695L76.4673 55.433C76.6409 55.1335 76.6879 54.7771 76.5985 54.4419C76.5086 54.1072 76.2897 53.8223 75.9899 53.6493L71.8665 51.2686C72.2736 49.9294 72.5271 48.5233 72.6036 47.0699L77.2959 46.2419C77.6372 46.1819 77.9397 45.9892 78.138 45.7054C78.3376 45.4218 78.4146 45.0704 78.3547 44.7294L77.426 39.4568ZM55.0004 53.1076C51.0338 53.1076 47.8182 49.8923 47.8182 45.9256C47.8182 41.959 51.0338 38.7437 55.0004 38.7437C58.967 38.7437 62.1826 41.959 62.1826 45.9256C62.1826 49.8923 58.967 53.1076 55.0004 53.1076Z" fill="#992740"/>
<path d="M100.839 6.86707H9.16197C4.10991 6.86707 0 10.9772 0 16.0293V75.7795C0 80.8316 4.10991 84.9418 9.16197 84.9418H38.7005L33.094 97.3045C32.5151 98.5813 32.624 100.065 33.3836 101.243C34.1432 102.421 35.4489 103.133 36.8506 103.133H73.1497C73.1497 103.133 73.1536 103.133 73.1552 103.133C75.4336 103.133 77.2803 101.286 77.2803 99.0079C77.2803 98.3223 77.1139 97.6746 76.8166 97.1059L71.2995 84.9418H100.838C105.89 84.9418 110 80.8316 110 75.7795V16.0293C110.001 10.9772 105.891 6.86707 100.839 6.86707ZM101.751 75.7798C101.751 76.2828 101.342 76.6917 100.839 76.6917H9.16197C8.65927 76.6917 8.25006 76.2828 8.25006 75.7798V16.0293C8.25006 15.5263 8.65927 15.1171 9.16197 15.1171H100.839C101.341 15.1171 101.75 15.5263 101.75 16.0293L101.751 75.7798Z" fill="#992740"/>
</svg>
