<svg width="180" height="180" viewBox="0 0 180 180" fill="none" xmlns="http://www.w3.org/2000/svg">
<path d="M53.8183 82.2467C54.4747 81.645 54.9123 81.2621 55.2952 80.8793C59.1787 76.9958 63.0622 73.1669 66.891 69.2834C67.9303 68.2442 69.0789 67.7519 70.5557 67.7519C82.8079 67.7519 95.0054 67.7519 107.258 67.7519C108.734 67.7519 109.883 68.2442 110.922 69.2834C115.134 73.5498 119.4 77.8162 123.831 82.3014C123.886 81.645 123.995 81.2621 123.995 80.8793C123.995 77.7615 123.995 74.5891 123.995 71.4713C123.995 68.9552 125.198 67.7519 127.714 67.7519C134.661 67.7519 141.662 67.7519 148.609 67.7519C151.562 67.7519 152.656 66.658 152.656 63.759C152.656 49.4283 152.656 35.0429 152.656 20.7122C152.656 17.8679 151.508 16.774 148.664 16.774C133.95 16.774 119.236 16.774 104.468 16.774C103.866 16.774 103.265 16.774 102.718 16.774C101.132 16.5552 99.9282 15.1331 99.9829 13.5468C99.9829 12.0153 101.186 10.7026 102.718 10.4838C103.265 10.4291 103.757 10.4838 104.304 10.4838C119.018 10.4838 133.731 10.4838 148.499 10.4838C155.063 10.4838 159.001 14.422 159.001 20.9857C159.001 35.207 159.001 49.483 159.001 63.7043C159.001 70.3774 155.118 74.2609 148.39 74.2609C142.537 74.2609 136.685 74.2609 130.832 74.2609C130.723 74.2609 130.613 74.2609 130.285 74.3703V76.0112C130.285 80.5511 130.285 85.0363 130.285 89.5761C130.285 91.2171 129.793 92.5298 128.207 93.1862C126.621 93.8425 125.472 93.1862 124.378 92.0375C118.799 86.4584 113.274 80.8793 107.641 75.3548C107.039 74.7532 106 74.3156 105.179 74.3156C94.2397 74.2609 83.3002 74.2609 72.306 74.3156C71.5403 74.3156 70.5557 74.7532 70.0088 75.3001C64.6484 80.5511 59.3975 85.8567 54.0918 91.1624C53.709 91.5452 53.3261 91.9281 52.9432 92.311C51.9039 93.2956 50.7006 93.7878 49.3332 93.1862C47.911 92.5845 47.3094 91.4359 47.3094 89.9043C47.3094 85.3097 47.3094 80.7699 47.3094 76.1753C47.3094 75.6283 47.3094 75.0266 47.3094 74.3156C46.5983 74.3156 46.0513 74.3156 45.4497 74.3156C39.7611 74.3156 34.0726 74.3156 28.3841 74.3156C22.7503 74.3156 18.5933 70.1586 18.5933 64.5248C18.5933 49.8112 18.5933 35.0976 18.5933 20.3293C18.5933 14.5861 22.7503 10.4838 28.4935 10.4838C43.5899 10.4838 58.6864 10.4838 73.7829 10.4838C76.1349 10.4838 77.557 11.6871 77.6117 13.6015C77.6117 15.5706 76.1349 16.8287 73.7282 16.8287C58.9052 16.8287 44.0822 16.8287 29.2045 16.8287C25.9227 16.8287 24.9382 17.8132 24.9382 21.1498C24.9382 35.3164 24.9382 49.5377 24.9382 63.7043C24.9382 66.7673 25.9774 67.8613 29.0405 67.8613C35.8776 67.8613 42.7695 67.8613 49.6067 67.8613C52.5603 67.8613 53.6543 68.9552 53.6543 71.9089C53.6543 75.3001 53.6543 78.6367 53.6543 82.3561L53.8183 82.2467Z" fill="#7F7A77"/>
<path d="M34.3455 173.645C27.7271 173.645 21.054 173.59 14.4357 173.645C7.37971 173.754 7.10623 173.371 7.21562 166.37C7.27032 162.323 7.92669 158.439 9.51291 154.774C14.4357 143.507 26.1409 137.162 38.6119 138.912C50.153 140.553 59.7251 150.289 61.1472 162.158C61.4207 164.62 61.4207 167.136 61.4207 169.652C61.4207 172.606 60.3267 173.7 57.4278 173.7C49.7155 173.7 42.0031 173.7 34.2908 173.7L34.3455 173.645ZM54.9664 167.245C55.8963 159.588 51.5752 151.602 44.3551 147.554C37.1898 143.507 28.0553 144.218 21.4916 149.523C15.8578 154.063 13.3964 160.025 13.7246 167.245H55.0211H54.9664Z" fill="#7F7A77"/>
<path d="M144.506 173.645C136.684 173.645 128.917 173.645 121.095 173.645C118.087 173.645 117.048 172.496 116.938 169.543C116.829 164.565 117.048 159.697 118.962 155.048C123.666 143.726 135.754 136.451 147.459 138.037C160.696 139.842 170.378 149.25 171.964 161.995C172.292 164.784 172.237 167.628 172.237 170.418C172.237 172.442 170.815 173.645 168.573 173.645C160.532 173.645 152.546 173.645 144.506 173.645ZM165.783 167.081C165.892 158.002 162.337 151.055 154.406 146.898C146.748 142.85 139.091 143.507 132.089 148.648C125.909 153.188 123.283 159.478 123.557 167.136H165.838L165.783 167.081Z" fill="#7F7A77"/>
<path d="M88.9349 33.1832C73.1274 33.1832 57.3198 33.1832 41.4576 33.1832C40.9106 33.1832 40.3637 33.1832 39.8167 33.1832C38.1758 32.9644 36.9724 31.597 36.9177 29.956C36.9177 28.3151 38.1211 26.9477 39.762 26.7289C40.309 26.6742 40.8559 26.7289 41.4029 26.7289C73.0727 26.7289 104.797 26.7289 136.467 26.7289C136.467 26.7289 136.576 26.7289 136.631 26.7289C139.421 26.7289 140.952 27.8775 140.952 29.956C140.952 32.0345 139.421 33.2379 136.631 33.2379C120.714 33.2379 104.797 33.2379 88.8255 33.2379L88.9349 33.1832Z" fill="#B7333E"/>
<path d="M89.2074 46.1465C104.96 46.1465 120.713 46.1465 136.521 46.1465C137.068 46.1465 137.615 46.1465 138.161 46.1465C139.802 46.3106 141.06 47.678 141.115 49.3189C141.115 51.0146 139.912 52.4367 138.161 52.6008C137.615 52.6555 137.068 52.6008 136.521 52.6008C104.906 52.6008 73.2358 52.6008 41.6207 52.6008C38.6123 52.6008 37.0808 51.5615 37.0808 49.4283C37.0808 47.2404 38.6123 46.0918 41.6754 46.0918C57.5376 46.0918 73.3998 46.0918 89.3168 46.0918L89.2074 46.1465Z" fill="#B7333E"/>
<path d="M34.2902 100.296C43.9717 100.296 51.8481 108.118 51.9028 117.745C51.9028 127.426 44.0811 135.303 34.4543 135.357C24.8276 135.357 16.8418 127.536 16.8418 117.909C16.8418 108.282 24.6635 100.351 34.2902 100.296ZM34.3449 106.696C28.2188 106.696 23.1867 111.728 23.1867 117.854C23.1867 123.98 28.2188 129.012 34.3449 129.012C40.471 129.012 45.5032 123.98 45.5032 117.854C45.5032 111.728 40.471 106.696 34.3449 106.696Z" fill="#7F7A77"/>
<path d="M161.025 117.745C161.025 127.426 153.203 135.303 143.576 135.357C133.95 135.357 125.964 127.536 125.964 117.909C125.964 108.282 133.786 100.351 143.412 100.296C153.094 100.296 160.97 108.118 161.025 117.745ZM132.309 117.745C132.309 123.871 137.286 128.903 143.467 128.903C149.593 128.903 154.625 123.926 154.625 117.745C154.625 111.619 149.648 106.586 143.467 106.586C137.341 106.586 132.309 111.564 132.309 117.69V117.745Z" fill="#7F7A77"/>
<path d="M92.2697 10.3192C92.2697 12.0695 90.7929 13.6558 88.9879 13.6558C87.2376 13.6558 85.8154 12.2336 85.7607 10.4833C85.7607 8.733 87.0735 7.25617 88.8785 7.20148C90.6835 7.14678 92.215 8.56891 92.2697 10.3739V10.3192Z" fill="#7F7A77"/>
<path d="M165.783 167.027H123.502C123.228 159.37 125.909 153.08 132.035 148.54C139.036 143.398 146.694 142.742 154.351 146.789C162.282 150.946 165.838 157.893 165.728 166.973L165.783 167.027Z" fill="#B7333E"/>
</svg>
