<svg width="180" height="180" viewBox="0 0 180 180" fill="none" xmlns="http://www.w3.org/2000/svg">
<path d="M107.139 140.4L111.236 157.017C114.161 157.017 117.087 157.017 119.948 157.017C127.1 157.017 132.626 161.924 133.797 169.055C134.317 172.457 133.277 173.7 129.896 173.7C103.108 173.7 76.321 173.7 49.5987 173.7C46.3478 173.7 45.2425 172.457 45.7626 169.186C46.8029 162.055 52.4594 157.148 59.6764 157.083C62.4722 157.083 65.333 157.083 68.3238 157.083L72.4849 140.465H70.4694C57.9209 140.465 45.4375 140.465 32.8891 140.465C23.7866 140.465 18.065 134.643 18.065 125.484C18.065 98.8567 18.1951 72.2298 18 45.6683C18 38.0139 21.1209 31.9296 29.118 29.5744C29.118 23.4901 29.118 17.3404 29.118 11.2561C29.118 8.05044 29.8983 7.26537 33.0841 7.26537C44.5923 7.26537 56.1004 7.46164 67.5436 7.26537C77.4913 7.06911 84.1881 10.144 90.1047 16.7516C90.4298 16.2282 90.6249 15.6394 91.015 15.2469C95.8913 9.94769 101.938 7.26537 109.09 7.19995C114.291 7.19995 119.558 7.19995 124.759 7.19995C126.19 7.19995 127.295 7.65791 128.27 8.70467C134.772 15.3123 141.339 21.92 147.906 28.4622C148.491 29.051 149.271 29.509 150.051 29.7053C157.073 31.21 161.494 36.5746 161.494 43.9019C161.494 67.2577 161.494 90.6135 161.494 113.969C161.494 118.091 161.494 122.147 161.494 126.269C161.494 134.512 155.513 140.465 147.32 140.465C134.512 140.465 121.703 140.465 108.895 140.465C108.375 140.465 107.855 140.465 107.139 140.465V140.4ZM144.915 34.939H143.094C137.633 34.939 132.171 34.939 126.71 34.939C123.719 34.939 122.874 34.0886 122.874 31.0137C122.874 25.5836 122.874 20.1536 122.874 14.7235V12.7609C118.062 12.7609 113.511 12.7609 108.895 12.7609C104.149 12.7609 99.8574 14.3964 96.3465 17.6675C94.786 19.1068 93.5507 20.8732 92.1853 22.5088C90.6899 24.2752 88.8694 24.3406 87.439 22.5088C87.1139 22.1163 86.7888 21.6583 86.5288 21.2658C82.3676 15.4432 76.6461 12.6954 69.5591 12.7609C58.5711 12.7609 47.6481 12.7609 36.6601 12.7609H34.8396V90.4172C35.5548 90.4172 36.205 90.4172 36.8552 90.4172C48.1032 90.4172 59.3513 90.4172 70.5994 90.4172C77.6863 90.4172 83.668 93.0996 88.6093 98.2025C89.0645 98.6605 89.2595 99.2493 89.7146 99.9035C95.9563 92.6416 103.433 90.1556 112.211 90.3518C122.549 90.6135 132.886 90.3518 143.224 90.3518H145.045V34.939H144.915ZM23.5915 118.287C23.5915 120.773 23.5915 123.063 23.5915 125.418C23.5915 131.633 26.8424 134.904 33.0841 134.904C53.3697 134.904 73.6552 134.904 93.9408 134.904C111.691 134.904 129.441 134.904 147.19 134.904C151.742 134.904 155.253 132.288 155.773 128.035C156.163 124.895 155.838 121.624 155.838 118.353H23.5915V118.287ZM23.5915 112.53H155.968V111.222C155.968 88.7817 155.968 66.3418 155.968 43.9673C155.968 43.5094 155.968 43.0514 155.968 42.5935C155.643 39.2569 153.237 36.2475 150.506 35.855V37.9485C150.506 59.6687 150.506 81.389 150.506 103.175C150.506 106.446 149.726 107.231 146.41 107.231C108.635 107.231 70.9245 107.231 33.1491 107.231C29.8332 107.231 29.118 106.446 29.118 103.175C29.118 81.389 29.118 59.6033 29.118 37.8176V35.7895C25.5421 36.9671 23.5915 39.9766 23.5915 44.0982C23.5915 66.4726 23.5915 88.8471 23.5915 111.222V112.726V112.53ZM101.418 140.465H78.1415L74.0453 156.952H105.514L101.418 140.465ZM127.62 168.074C126.775 164.803 123.654 162.644 119.688 162.644C99.7274 162.644 79.7019 162.644 59.7414 162.644C59.4163 162.644 59.0262 162.644 58.7011 162.644C55.4503 162.905 52.5245 165.26 51.8743 168.074H127.555H127.62ZM34.7096 101.474H83.4729L83.798 101.016C83.798 101.016 83.2129 100.885 83.0178 100.689C79.2468 97.4829 74.9556 95.9781 70.0142 95.9781C58.7662 95.9781 47.5181 95.9781 36.27 95.9781H34.7096V101.408V101.474ZM95.8263 101.474H144.85V96.2398C144.85 96.2398 144.59 96.0436 144.46 96.0436C132.236 96.0436 120.013 95.9127 107.79 96.109C103.303 96.1744 99.2723 98.0717 95.8263 101.408V101.474ZM128.53 17.275V29.3127H140.429L128.53 17.275Z" fill="#7F7A77"/>
<path d="M23.5908 118.287H155.837C155.837 121.558 156.162 124.829 155.772 127.97C155.252 132.222 151.676 134.839 147.19 134.839C129.44 134.839 111.69 134.839 93.9401 134.839C73.6545 134.839 53.369 134.839 33.0834 134.839C26.8417 134.839 23.5908 131.568 23.5908 125.353C23.5908 123.063 23.5908 120.708 23.5908 118.222V118.287Z" fill="#B7333E"/>
<path d="M127.685 168.074H51.939C52.5241 165.261 55.4499 162.971 58.7658 162.644C59.0909 162.644 59.481 162.644 59.8061 162.644C79.7666 162.644 99.7921 162.644 119.753 162.644C123.719 162.644 126.839 164.803 127.685 168.074Z" fill="#B7333E"/>
<path d="M124.239 57.1172C117.932 51.5563 111.756 46.1262 105.644 40.7616C103.498 38.8644 103.043 37.4251 104.279 35.9858C105.514 34.4811 107.074 34.6773 109.285 36.64C115.982 42.528 122.679 48.416 129.375 54.304C131.781 56.463 131.846 57.9023 129.44 59.9958C122.549 66.0801 115.592 72.1644 108.7 78.2486C107.594 79.23 106.424 79.8188 104.994 79.0337C103.173 77.987 103.108 75.828 104.929 74.2579C109.61 70.0708 114.356 65.9492 119.038 61.8276C120.728 60.3229 122.354 58.8836 124.239 57.2481V57.1172Z" fill="#B7333E"/>
<path d="M55.3851 57.1827C58.831 60.1921 62.0819 63.0707 65.3328 65.9493C68.4537 68.697 71.6395 71.5102 74.7604 74.2579C76.1908 75.501 76.3208 77.1365 75.2155 78.3796C74.1102 79.6226 72.5498 79.6226 71.0544 78.3796C70.9243 78.2487 70.7943 78.1179 70.6643 78.0524C65.0727 73.0803 59.4162 68.1737 53.8246 63.2016C52.3943 61.9585 50.9639 60.7155 49.5335 59.4071C47.843 57.8369 47.843 56.2014 49.5335 54.6966C56.6204 48.4161 63.7724 42.1355 70.9243 35.855C72.4197 34.5465 74.1102 34.5465 75.1505 35.855C76.2558 37.1634 75.9957 38.7336 74.4353 40.1074C68.6487 45.2104 62.8621 50.3133 57.0755 55.4163C56.4904 55.9397 55.9702 56.3976 55.19 57.1173L55.3851 57.1827Z" fill="#B7333E"/>
<path d="M84.5134 84.8565C82.4329 84.8565 81.1975 83.2209 81.6527 81.1274C82.758 76.0899 83.8633 71.1178 84.9686 66.0803C87.5043 54.6968 89.9749 43.3133 92.5106 31.9952C93.0308 29.64 95.1114 28.5932 96.8668 29.8362C98.0372 30.6867 98.2322 31.8643 97.9071 33.2382C95.0463 46.2573 92.1205 59.2109 89.2597 72.23C88.5446 75.6319 87.7643 78.9685 87.0491 82.3704C86.7241 83.8097 85.8788 84.6602 84.5785 84.8565H84.5134Z" fill="#B7333E"/>
</svg>
