<svg width="147" height="88" viewBox="0 0 147 88" fill="none" xmlns="http://www.w3.org/2000/svg">
<path d="M70.0782 87.9937C51.5703 87.9937 33.0625 87.9937 14.5603 87.9937C12.1585 87.9937 9.78539 87.7034 7.60765 86.4665C2.68333 83.6899 0.0918812 79.1905 0.0688972 73.1892C-0.0172929 53.7213 -0.0287849 34.2534 0.0688972 14.7855C0.114865 5.98867 6.05623 0.012621 14.4339 0.00631051C39.0613 0 63.6886 0 88.316 0C100.842 0 113.374 0 125.901 0C129.228 0 132.342 0.776192 135.025 3.07953C138.685 6.21585 140.271 10.4313 140.306 15.4229C140.335 19.6194 140.335 23.8158 140.294 28.0186C140.289 28.9589 140.478 29.3691 141.432 29.5269C144.546 30.0443 146.862 32.8777 146.925 36.3738C147.017 41.46 147.017 46.5526 146.925 51.6389C146.862 55.1349 144.546 57.9557 141.415 58.4668C140.438 58.6246 140.3 59.0726 140.294 59.994C140.254 65.0802 140.317 70.1728 140.059 75.2465C139.743 81.4749 134.267 87.3185 128.596 87.7665C126.883 87.9053 125.159 87.9811 123.441 87.9811C105.652 87.9937 87.8621 87.9874 70.0725 87.9874L70.0782 87.9937ZM70.3483 7.38329C51.6967 7.38329 33.0452 7.45271 14.3937 7.33281C9.6245 7.30125 6.64807 10.6584 6.67105 15.8078C6.7515 34.5942 6.69979 53.3806 6.70553 72.1732C6.70553 77.7454 9.31422 80.6104 14.3879 80.6104C51.5991 80.6104 88.8044 80.6104 126.016 80.6104C131.003 80.6104 133.6 77.758 133.606 72.2616C133.618 53.4184 133.612 34.5816 133.6 15.7384C133.6 14.7477 133.56 13.7253 133.336 12.7788C132.509 9.26382 129.929 7.38329 126.027 7.38329C107.473 7.38329 88.9136 7.38329 70.3598 7.38329H70.3483Z" fill="white"/>
<path d="M13.5089 14.7729H73.4339V73.2209H13.5089V14.7729Z" fill="white"/>
</svg>
