<svg width="173" height="173" viewBox="0 0 173 173" fill="none" xmlns="http://www.w3.org/2000/svg">
<circle cx="86.5" cy="86.5" r="86.5" fill="#992740"/>
<g clip-path="url(#clip0_226_1323)">
<path d="M108.486 96.9424C106.164 96.9424 104.007 96.9424 101.851 96.9424C100.097 96.9424 99.3001 96.3871 99.2867 95.1638C99.2688 93.927 100.079 93.3357 101.801 93.3357C108.952 93.3357 116.111 93.0649 123.247 93.4034C132.241 93.8322 136.206 84.881 133.637 78.092C132.635 75.4423 130.984 73.3162 128.55 71.8763C127.489 71.2489 127.087 70.4093 127.051 69.2131C126.711 58.4111 117.015 50.7193 106.562 52.9357C104.862 53.2968 104.235 52.9447 103.685 51.3287C100.249 41.2987 91.0358 35.0152 80.749 35.6878C70.5874 36.3514 62.2604 43.7407 60.0903 54.01C59.6876 55.9239 59.2983 56.2264 57.3609 56.1361C48.4388 55.7208 41.3244 61.3949 39.8031 70.2106C39.3646 72.752 39.5704 75.2979 40.1968 77.8031C40.5458 79.2025 40.1252 80.1594 39.0648 80.4483C37.9686 80.7508 37.1139 80.0872 36.7381 78.6472C33.6954 66.8793 40.3669 55.5132 51.8842 52.8996C53.1102 52.6197 54.3854 52.4708 55.6427 52.4482C56.5197 52.4301 56.8061 52.1096 57.0566 51.3107C60.238 40.9556 67.0839 34.5458 77.6302 32.4694C89.4786 30.1356 101.43 36.717 106.222 47.9523C106.383 48.3314 106.535 48.7106 106.71 49.1259C109.681 48.7467 112.589 48.828 115.471 49.5954C123.784 51.7982 130.053 59.4087 130.581 68.071C130.626 68.7978 130.988 69.1137 131.472 69.4749C138.899 75.0045 140.219 85.7793 134.228 92.5232C133.23 93.6472 131.856 94.4281 130.702 95.4211C130.362 95.71 129.973 96.1885 129.968 96.5857C129.919 101.316 129.95 106.047 129.919 110.778C129.919 111.441 130.178 111.644 130.738 111.866C134.192 113.242 135.995 116.899 135.042 120.487C134.134 123.918 130.648 126.247 127.189 125.732C123.489 125.182 120.809 121.999 121.019 118.244C121.189 115.192 122.787 113.08 125.561 111.834C125.887 111.689 126.321 111.279 126.326 110.99C126.375 106.34 126.362 101.687 126.362 96.9694H112.128V118.776C114.768 119.684 116.594 121.404 117.238 124.22C118.075 127.904 115.923 131.614 112.339 132.697C108.714 133.794 104.848 131.835 103.564 128.251C102.285 124.681 103.918 120.704 107.377 119.25C108.303 118.862 108.522 118.397 108.513 117.449C108.468 111.067 108.491 104.684 108.491 98.3011V96.9514L108.486 96.9424ZM128.143 114.976C126.201 114.976 124.594 116.587 124.581 118.551C124.567 120.555 126.214 122.198 128.21 122.171C130.138 122.144 131.74 120.487 131.713 118.542C131.691 116.574 130.089 114.976 128.138 114.98L128.143 114.976ZM110.307 122.184C108.352 122.175 106.741 123.76 106.705 125.719C106.67 127.728 108.303 129.389 110.294 129.375C112.24 129.362 113.829 127.755 113.842 125.787C113.851 123.837 112.24 122.193 110.312 122.184H110.307Z" fill="white"/>
<path d="M79.8856 125.805H69.1647C69.1647 127.114 69.1647 128.414 69.1647 129.709C69.1647 130.125 69.1737 130.535 69.1647 130.951C69.1289 132.187 68.4399 132.973 67.3929 132.986C66.3414 132.995 65.612 132.21 65.5941 130.982C65.5717 129.299 65.5896 127.615 65.5896 125.859H54.8688C54.8688 127.497 54.8733 129.1 54.8688 130.702C54.8643 132.138 54.2245 132.959 53.1193 132.986C51.9738 133.014 51.2982 132.165 51.2937 130.671C51.2892 129.095 51.2937 127.525 51.2937 125.787C49.6561 125.787 48.0721 125.791 46.4881 125.787C44.7386 125.782 44.1525 125.186 44.1435 123.417C44.139 121.846 44.1435 120.28 44.1435 118.578C42.4701 118.578 40.8816 118.582 39.2932 118.578C37.8121 118.573 36.9709 117.892 37.0023 116.732C37.0291 115.612 37.8345 114.98 39.2663 114.971C40.8279 114.967 42.394 114.971 44.0495 114.971V104.16C42.3806 104.16 40.6847 104.178 38.9889 104.156C37.6108 104.133 36.7069 103.072 37.0649 101.899C37.3513 100.951 38.0448 100.545 39.0158 100.549C40.6847 100.563 42.3492 100.549 44.0809 100.549V89.7381C42.743 89.7381 41.3828 89.7381 40.0225 89.7381C39.6109 89.7381 39.2037 89.7562 38.792 89.7291C37.7271 89.6569 37.0067 88.9301 36.9978 87.9461C36.9888 86.9214 37.7316 86.1586 38.8681 86.136C40.5729 86.1044 42.2821 86.127 44.1346 86.127C44.1346 84.4929 44.1346 82.9311 44.1346 81.3692C44.1346 79.4689 44.6939 78.9182 46.6134 78.9136C48.1303 78.9136 49.6471 78.9136 51.2848 78.9136C51.2848 77.2119 51.2803 75.6094 51.2848 74.007C51.2892 72.5625 51.9157 71.7455 53.0209 71.7139C54.1663 71.6823 54.8554 72.5309 54.8599 74.0205C54.8643 75.5959 54.8599 77.1712 54.8599 78.8324H65.5852C65.5852 77.09 65.5628 75.3386 65.5941 73.5872C65.6165 72.4948 66.3235 71.759 67.2899 71.7139C68.2117 71.6687 69.0081 72.3458 69.1379 73.3163C69.1871 73.6865 69.1603 74.0656 69.1603 74.4403C69.1603 75.8938 69.1603 77.3518 69.1603 78.8595H79.8811C79.8811 77.1487 79.8632 75.4379 79.8856 73.7271C79.9035 72.418 80.776 71.5739 81.8946 71.7229C82.8432 71.8493 83.4383 72.5896 83.4517 73.7316C83.4696 75.4153 83.4562 77.0945 83.4562 78.9136C85.1252 78.9136 86.7136 78.9091 88.302 78.9136C89.9844 78.9227 90.5974 79.5275 90.6019 81.2112C90.6109 82.7866 90.6019 84.362 90.6019 86.1224C91.8414 86.1224 93.0495 86.1224 94.262 86.1224C94.6737 86.1224 95.0809 86.1224 95.4925 86.1224C96.9109 86.136 97.7253 86.777 97.7432 87.9009C97.7611 89.0565 96.9199 89.7246 95.4344 89.7336C93.8772 89.7381 92.3156 89.7336 90.6825 89.7336V100.545C92.2933 100.545 93.8817 100.54 95.4701 100.545C96.902 100.549 97.7119 101.181 97.7477 102.296C97.7835 103.452 96.9333 104.147 95.4612 104.151C93.8996 104.156 92.338 104.151 90.6914 104.151V114.967C92.4186 114.967 94.1591 114.94 95.8908 114.976C97.0183 114.998 97.7656 115.779 97.7432 116.804C97.7208 117.779 96.9959 118.51 95.9265 118.56C95.148 118.596 94.365 118.569 93.5819 118.569C92.6244 118.569 91.6668 118.569 90.6019 118.569C90.6019 120.207 90.6019 121.738 90.6019 123.268C90.6019 125.24 90.056 125.778 88.0649 125.782C86.651 125.782 85.237 125.787 83.8186 125.796C83.747 125.796 83.6799 125.827 83.4517 125.881C83.4517 127.552 83.4696 129.262 83.4472 130.973C83.4249 132.364 82.3734 133.275 81.2145 132.919C80.2748 132.63 79.8677 131.935 79.8721 130.951C79.8856 129.267 79.8721 127.588 79.8721 125.805H79.8856ZM86.9552 122.121V82.6106H47.7723V122.126H86.9552V122.121Z" fill="white"/>
</g>
<defs>
<clipPath id="clip0_226_1323">
<rect width="102" height="101" fill="white" transform="translate(36 32)"/>
</clipPath>
</defs>
</svg>
