<svg width="173" height="173" viewBox="0 0 173 173" fill="none" xmlns="http://www.w3.org/2000/svg">
<circle cx="86.5" cy="86.5" r="86.5" fill="#992740"/>
<g clip-path="url(#clip0_226_1314)">
<path d="M36.7853 121.599H52.1248V72.7326H36.7853C36.7853 73.2955 36.7853 73.8413 36.7853 74.3871C36.7853 80.4365 36.7853 86.4858 36.7853 92.5352C36.7853 93.8088 36.5507 94.9345 35.1031 95.287C33.627 95.6509 32.5113 94.6616 32.4998 92.9502C32.4712 88.9363 32.4884 84.9167 32.4884 80.9027C32.4884 78.492 32.5284 76.0814 32.454 73.6764C32.4369 73.1932 32.0764 72.5337 31.6759 72.2835C30.2455 71.4079 29.4903 70.2026 29.4731 68.5595C29.4502 66.1034 29.4273 63.6416 29.4731 61.1854C29.5246 58.5303 31.1152 57.0009 33.8101 56.9952C40.9048 56.9782 47.9939 56.9782 55.0886 56.9952C57.8693 56.9952 59.4027 58.536 59.4199 61.3048C59.437 63.7155 59.4141 66.1261 59.4256 68.5368C59.437 70.2083 58.6989 71.4136 57.2628 72.2608C56.9481 72.4484 56.5305 72.8236 56.5305 73.1193C56.479 76.5988 56.4961 80.0783 56.4961 83.7227C57.1541 83.4498 57.629 83.2679 58.0925 83.0518C65.2845 79.7201 72.4765 76.3884 79.6685 73.0567C82.3119 71.8343 83.6336 72.6701 83.6393 75.5868C83.6393 78.2305 83.6393 80.8743 83.6393 83.7511C84.2058 83.501 84.6177 83.319 85.0239 83.1314C92.3075 79.7656 99.5854 76.3998 106.863 73.0283C109.426 71.84 110.777 72.6815 110.782 75.4958C110.782 78.1793 110.782 80.8629 110.782 83.717C111.406 83.4612 111.881 83.2849 112.339 83.0746C119.531 79.7485 126.723 76.4168 133.915 73.0851C136.604 71.84 137.926 72.6417 137.926 75.5356C137.926 81.2552 137.931 86.9691 137.926 92.6887C137.926 94.2807 137.308 95.1505 136.118 95.3268C134.67 95.5371 133.652 94.599 133.646 92.9559C133.623 88.5611 133.64 84.1662 133.64 79.7713C133.64 79.2539 133.64 78.7365 133.64 77.9747C133.028 78.2305 132.536 78.4238 132.05 78.6456C124.858 81.9716 117.626 85.2237 110.491 88.6804C108.053 89.8573 106.251 88.8738 106.451 86.0424C106.634 83.4271 106.491 80.7833 106.491 77.986C105.816 78.276 105.296 78.475 104.792 78.7081C97.6 82.0341 90.408 85.3658 83.2159 88.6918C80.6183 89.8915 79.3539 89.0727 79.3481 86.2073C79.3481 83.5237 79.3481 80.8458 79.3481 78.0088C78.816 78.2191 78.427 78.3499 78.0551 78.5205C71.2006 81.6816 64.3461 84.8314 57.5203 88.0494C57.0568 88.2654 56.5362 88.9818 56.5305 89.465C56.4732 99.9548 56.4904 110.445 56.4961 120.94C56.4961 121.122 56.5362 121.309 56.5648 121.594H62.5381C62.5381 121.099 62.5381 120.593 62.5381 120.093C62.5381 116.5 62.521 112.912 62.5438 109.319C62.561 107.05 63.8484 105.674 66.1427 105.595C68.6144 105.515 71.0919 105.515 73.5693 105.595C75.8751 105.669 77.151 107.01 77.1682 109.302C77.1968 113.355 77.1739 117.415 77.1739 121.582H87.7016C87.7016 121.128 87.7016 120.633 87.7016 120.138C87.7016 116.642 87.6902 113.145 87.7016 109.649C87.7131 106.959 89.0233 105.618 91.701 105.578C93.9382 105.544 96.1753 105.544 98.4124 105.578C101.039 105.618 102.343 106.914 102.366 109.541C102.4 113.037 102.377 116.534 102.377 120.03C102.377 120.542 102.377 121.048 102.377 121.628H112.865C112.865 121.128 112.865 120.633 112.865 120.138C112.865 116.687 112.854 113.236 112.865 109.791C112.877 106.914 114.164 105.606 117.025 105.578C119.165 105.555 121.31 105.555 123.45 105.578C126.248 105.606 127.564 106.908 127.581 109.677C127.604 113.128 127.581 116.579 127.587 120.025C127.587 120.531 127.587 121.037 127.587 121.616H133.64C133.64 120.701 133.64 119.86 133.64 119.024C133.64 113.918 133.64 108.818 133.64 103.713C133.64 102.036 134.401 101.058 135.706 101.012C137.056 100.967 137.92 101.996 137.926 103.719C137.937 109.154 137.926 114.589 137.926 120.025C137.926 120.531 137.926 121.042 137.926 121.707C140.237 121.707 142.411 121.668 144.586 121.719C146.211 121.753 147.366 122.947 146.869 124.226C146.6 124.925 145.747 125.466 145.049 125.909C144.711 126.125 144.122 125.966 143.647 125.966C105.57 125.966 67.4873 125.966 29.4102 125.966C28.981 125.966 28.5519 125.983 28.1228 125.955C26.8755 125.875 26.0173 125.051 25.9829 123.925C25.9486 122.742 26.7954 121.81 28.1343 121.736C29.5074 121.662 30.8863 121.719 32.4769 121.719C32.4769 121.11 32.4769 120.61 32.4769 120.11C32.4769 114.584 32.4712 109.052 32.4827 103.525C32.4827 101.984 33.3295 101.024 34.5882 101.018C35.8469 101.018 36.6937 101.984 36.7624 103.503C36.7796 103.832 36.7624 104.162 36.7624 104.497C36.7624 109.649 36.7624 114.8 36.7624 119.951V121.622L36.7853 121.599ZM33.8272 68.2695H55.0257V61.3503H33.8272V68.2695ZM117.271 109.904V121.594H123.21V109.904H117.271ZM66.9209 109.882V121.582H72.7798V109.882H66.9209ZM92.0958 109.882V121.582H97.9662V109.882H92.0958Z" fill="white"/>
<path d="M92.1357 38C100.186 38.1308 108.494 41.417 115.434 48.0519C116.332 48.9105 116.641 49.8599 116 50.9686C115.48 51.8612 114.604 52.1228 113.655 51.8555C113.18 51.7248 112.739 51.3609 112.367 51.0198C99.5395 39.2792 81.671 39.2849 68.786 51.0368C67.5616 52.1569 66.32 52.2535 65.3988 51.2984C64.4776 50.3489 64.6321 49.1265 65.8222 47.9553C72.2018 41.6615 81.2991 38 92.1357 38Z" fill="white"/>
<path d="M90.3735 47.9155C97.2394 48.0122 103.087 50.2465 108.025 54.7665C108.339 55.0508 108.665 55.3464 108.889 55.6989C109.507 56.6598 109.415 57.6149 108.597 58.3995C107.824 59.1387 106.903 59.2069 105.982 58.6383C105.662 58.4393 105.393 58.1607 105.112 57.9049C96.7245 50.2579 84.3659 50.2693 76.0124 57.9504C75.1599 58.735 74.3016 59.3547 73.1001 58.7691C72.1789 58.3256 71.7212 57.5297 71.9672 56.5631C72.1217 55.9718 72.5337 55.3692 72.9914 54.9428C77.9005 50.3091 83.7937 48.0576 90.3735 47.9212V47.9155Z" fill="white"/>
<path d="M91.0431 57.8651C94.6591 57.9504 98.258 59.2922 101.256 62.1122C102.406 63.1924 102.515 64.3807 101.617 65.3415C100.724 66.2967 99.5625 66.2512 98.3438 65.2221C93.4518 61.0888 87.7703 61.0717 82.8555 65.1823C81.5567 66.2683 80.3723 66.3024 79.4797 65.279C78.6158 64.2897 78.8275 63.0844 80.0691 61.953C82.9299 59.3377 86.6889 57.8708 91.0431 57.8651Z" fill="white"/>
</g>
<defs>
<clipPath id="clip0_226_1314">
<rect width="121" height="88" fill="white" transform="translate(26 38)"/>
</clipPath>
</defs>
</svg>
