<svg width="173" height="173" viewBox="0 0 173 173" fill="none" xmlns="http://www.w3.org/2000/svg">
<circle cx="86.5" cy="86.5" r="86.5" fill="#992740"/>
<g clip-path="url(#clip0_900_2)">
<path d="M128.889 52.6201C129.846 52.7541 130.696 52.8652 131.545 52.9915C132.487 53.1332 133.13 53.6846 133.413 54.5691C133.708 55.4805 133.543 56.3497 132.831 57.0428C129.655 60.1368 126.494 63.246 123.279 66.2979C121.867 67.6419 119.98 67.3739 118.943 65.7312C116.612 62.036 114.327 58.3179 112.023 54.6074C111.491 53.7497 111.426 52.8575 111.951 51.9844C112.502 51.0616 113.363 50.7515 114.408 50.8778C115.001 50.9467 115.594 50.9965 116.314 51.0654C115.674 48.2702 114.151 46.3173 111.645 45.18C107.749 43.4071 103.137 45.0154 101.147 48.7986C99.1491 52.5933 100.42 57.3223 104.178 59.57C108.219 61.9901 111.778 64.9385 114.641 68.6835C119.701 75.3079 122.15 82.794 121.985 91.1339C121.962 92.3439 121.453 93.014 120.558 93.0332C119.628 93.0523 119.115 92.3516 119.111 91.0918C119.077 78.1454 113.596 68.155 102.283 61.9058C84.0627 51.8428 61.6131 61.6148 55.9988 81.561C54.7894 85.8496 54.5062 90.2187 55.1721 94.6376C55.486 96.7245 55.2716 97.0308 53.1744 97.4827C52.7458 97.5746 52.321 97.6856 51.701 97.8311C54.9042 100.439 57.9736 102.935 61.1156 105.493C62.9373 101.902 64.7169 98.3864 66.6036 94.6644C65.6124 94.8559 64.8011 95.0167 63.9859 95.1737C62.5699 95.4494 61.9499 95.0282 61.7662 93.5961C61.0008 87.6608 62.1489 82.1124 65.2067 76.9736C66.8906 74.1477 69.0644 71.7506 71.6975 69.7671C72.7193 68.9975 73.5536 68.986 74.12 69.748C74.6634 70.4794 74.407 71.295 73.4082 72.0799C67.258 76.9353 64.2729 83.2918 64.4222 91.1224C64.4222 91.3139 64.4413 91.5053 64.4605 91.6968C64.4719 91.7887 64.5064 91.8806 64.5638 92.095C65.356 91.9342 66.1558 91.7887 66.9481 91.6126C67.9163 91.3981 68.7276 91.6815 69.3476 92.4243C69.9714 93.1749 70.1207 94.0556 69.6806 94.9324C67.6522 98.9761 65.6315 103.023 63.5343 107.033C62.6809 108.664 60.7405 108.882 59.1906 107.626C56.3891 105.363 53.5992 103.077 50.8054 100.803C50.2352 100.339 49.6535 99.8912 49.1024 99.4126C48.3752 98.7808 48.0385 97.9996 48.2643 97.0232C48.4977 96.0161 49.1521 95.4264 50.128 95.1852C50.8016 95.0167 51.4828 94.8865 52.2253 94.7218C51.1039 84.0921 53.8365 74.6685 60.9855 66.7383C68.123 58.8195 77.1549 55.0018 87.9013 55.0554C87.863 54.5768 87.8248 54.1441 87.798 53.7152C87.1244 43.1237 95.3411 33.2789 105.881 32.134C112.192 31.4486 117.71 33.2981 122.406 37.5868C123.026 38.1535 123.394 38.7776 122.927 39.6047C122.429 40.4893 121.369 40.5505 120.493 39.7273C118.235 37.6136 115.625 36.147 112.62 35.4118C100.381 32.4059 89.0762 42.6757 90.8749 55.1588C93.2554 55.6796 95.6358 56.2004 98.0545 56.7326C97.867 55.8749 97.6183 54.9712 97.4728 54.0522C96.5735 48.4042 100.672 42.7332 106.336 41.7606C112.356 40.7267 118.139 44.6707 119.138 50.5102C119.245 51.1344 119.322 51.7738 119.329 52.4095C119.345 53.7497 118.671 54.3049 117.324 54.1326C116.601 54.0407 115.881 53.9488 114.94 53.8301C117.129 57.3529 119.218 60.7188 121.369 64.1804C124.262 61.3698 127.11 58.6051 130.091 55.7141C129.088 55.5762 128.277 55.4728 127.462 55.3503C126.429 55.1971 125.977 54.73 126.023 53.6923C126.157 50.6404 125.621 47.7302 124.324 44.9579C123.926 44.1078 124.255 43.2654 125.005 42.9476C125.774 42.6221 126.536 42.9399 126.957 43.8283C128.128 46.3096 128.748 48.9288 128.897 51.6666C128.912 51.95 128.897 52.2333 128.897 52.6201H128.889Z" fill="white"/>
<path d="M120.657 125.171C120.118 125.171 119.678 125.171 119.241 125.171C92.9302 125.171 66.619 125.171 40.3117 125.168C39.8677 125.168 39.4085 125.168 38.9875 125.045C38.2871 124.846 37.9427 124.302 38.0154 123.59C38.0843 122.885 38.5053 122.418 39.2362 122.326C39.6151 122.28 40.0017 122.296 40.3844 122.296C55.7884 122.296 71.1924 122.296 86.5963 122.296C101.556 122.296 114.033 112.807 118.063 98.3825C118.185 97.9384 118.361 97.3295 118.694 97.1649C119.161 96.9313 119.869 96.87 120.347 97.0538C120.99 97.3065 121.132 97.9843 120.952 98.6889C119.938 102.683 118.281 106.386 115.954 109.786C115.311 110.728 114.611 111.628 113.86 112.646H120.661C120.661 111.85 120.654 111.092 120.661 110.333C120.673 109.357 121.082 108.603 121.959 108.158C122.869 107.695 123.769 107.787 124.557 108.423C128.017 111.195 131.48 113.963 134.902 116.782C136.398 118.015 136.352 119.914 134.837 121.151C131.454 123.915 128.044 126.646 124.637 129.384C123.853 130.015 122.977 130.207 122.047 129.759C121.094 129.299 120.646 128.503 120.654 127.442C120.657 126.718 120.654 125.991 120.654 125.175L120.657 125.171ZM101.365 122.104L101.434 122.292C101.721 122.292 102.008 122.292 102.291 122.292C108.698 122.292 115.108 122.292 121.515 122.292C123.122 122.292 123.528 122.709 123.531 124.34C123.531 125.022 123.531 125.704 123.531 126.584C126.788 123.954 129.869 121.469 133.019 118.926C129.827 116.353 126.754 113.875 123.531 111.283C123.531 112.21 123.531 112.876 123.531 113.546C123.528 115.147 123.088 115.595 121.492 115.598C118.304 115.602 115.116 115.576 111.928 115.625C111.415 115.633 110.799 115.851 110.416 116.184C108.116 118.176 105.655 119.922 102.946 121.308C102.421 121.576 101.893 121.84 101.365 122.104V122.104Z" fill="white"/>
<path d="M74.181 115.598C69.2058 115.598 64.2345 115.598 59.2593 115.595C58.8498 115.595 58.4211 115.583 58.0346 115.464C57.3342 115.246 57.0357 114.699 57.1123 113.979C57.185 113.297 57.5868 112.872 58.2642 112.765C58.6087 112.707 58.9646 112.727 59.3128 112.727C68.4634 112.727 77.6139 112.788 86.7645 112.707C94.9085 112.639 101.388 109.196 105.862 102.392C114.978 88.5148 106.401 69.9471 89.9448 67.7453C86.5425 67.2897 83.2091 67.5807 79.9446 68.6605C79.7647 68.7218 79.581 68.783 79.3973 68.8328C78.5248 69.0664 77.8244 68.7333 77.545 67.9521C77.2695 67.1901 77.6063 66.3898 78.4712 66.1332C80.025 65.6737 81.5903 65.1721 83.1862 64.9462C96.822 63.0201 109.134 71.697 111.943 85.1566C114.767 98.6965 105.502 112.581 91.931 115.055C90.094 115.392 88.1996 115.537 86.3282 115.572C82.2791 115.648 78.2301 115.595 74.181 115.595V115.598Z" fill="white"/>
<path d="M45.7001 112.719C47.6442 112.719 49.5846 112.711 51.5287 112.719C52.5888 112.727 53.2241 113.251 53.2471 114.097C53.2739 114.967 52.5926 115.579 51.5096 115.583C47.5907 115.598 43.6756 115.595 39.7566 115.583C38.6468 115.587 38 115.024 38 114.136C38 113.255 38.6468 112.727 39.7758 112.723C41.7505 112.711 43.7253 112.723 45.7001 112.723V112.719Z" fill="white"/>
</g>
<defs>
<clipPath id="clip0_900_2">
<rect width="98" height="98" fill="white" transform="translate(38 32)"/>
</clipPath>
</defs>
</svg>
