<svg width="173" height="173" viewBox="0 0 173 173" fill="none" xmlns="http://www.w3.org/2000/svg">
<circle cx="86.5" cy="86.5" r="86.5" fill="#992740"/>
<g clip-path="url(#clip0_900_3)">
<path d="M86.07 78.405C85.7444 79.4781 85.4856 80.3424 85.2227 81.2025C85.0807 81.666 84.9221 82.1294 84.7719 82.5887C84.0038 84.952 83.9913 84.9645 85.8905 86.5595C86.1159 86.7474 86.5918 86.7892 86.8965 86.7015C88.4284 86.2547 89.9353 85.7328 91.4547 85.2526C92.7361 84.8476 93.2955 85.0188 93.9967 86.1587C94.7981 87.4572 95.5328 88.7975 96.2716 90.1378C96.7767 91.0564 96.5972 91.8664 95.8125 92.5637C94.6437 93.6033 93.5083 94.6806 92.3229 95.6994C91.8136 96.1336 91.7552 96.5303 91.8429 97.215C92.0557 98.9061 92.8989 99.6242 94.556 99.7662C95.754 99.8706 96.927 100.263 98.1124 100.526C98.9639 100.714 99.4815 101.244 99.5024 102.113C99.54 103.846 99.5442 105.582 99.5024 107.319C99.4815 108.242 98.9139 108.756 98.0206 108.944C96.4595 109.273 94.9067 109.653 93.3414 109.95C92.6359 110.084 92.398 110.463 92.1309 111.106C91.4964 112.647 91.9096 113.679 93.2328 114.593C94.1386 115.219 94.9025 116.054 95.7206 116.81C96.664 117.683 96.8101 118.276 96.2215 119.39C95.5245 120.71 94.7856 122.008 94.0051 123.282C93.2996 124.43 92.7361 124.601 91.4672 124.205C90.0104 123.749 88.5494 123.307 87.1135 122.798C86.4832 122.576 86.1159 122.714 85.5733 123.132C84.1875 124.196 84.008 125.336 84.7468 126.864C85.2268 127.854 85.4397 128.973 85.7903 130.025C86.1159 131.006 85.9323 131.82 85.0056 132.363C83.5989 133.186 82.1881 134.004 80.7605 134.785C79.9215 135.244 79.1576 135.061 78.5148 134.347C77.4462 133.157 76.3484 131.992 75.3091 130.777C74.8708 130.263 74.4701 130.221 73.7938 130.305C72.1075 130.518 71.3854 131.361 71.2518 133.027C71.16 134.192 70.7592 135.332 70.5171 136.489C70.3293 137.382 69.8201 137.954 68.9018 137.975C67.1695 138.017 65.4372 138.017 63.7049 137.975C62.7866 137.954 62.2774 137.382 62.0895 136.484C61.764 134.919 61.3799 133.37 61.0961 131.795C60.9667 131.069 60.566 130.86 59.9315 130.593C58.3913 129.946 57.3686 130.384 56.4544 131.699C55.8242 132.605 54.9893 133.37 54.238 134.188C53.3656 135.132 52.7812 135.278 51.6625 134.685C50.3477 133.983 49.0495 133.244 47.7847 132.459C46.6327 131.745 46.4657 131.203 46.8664 129.921C47.3214 128.463 47.7639 126.998 48.2689 125.557C48.4902 124.923 48.3441 124.56 47.9308 124.017C46.8706 122.626 45.7269 122.451 44.2033 123.194C43.2475 123.662 42.1705 123.879 41.1437 124.196C39.8998 124.58 39.3154 124.422 38.6601 123.361C37.8419 122.033 37.0906 120.66 36.3351 119.294C35.8258 118.376 36.0178 117.57 36.8067 116.873C38.0047 115.816 39.1693 114.718 40.3756 113.666C40.8223 113.278 40.8598 112.914 40.7931 112.317C40.5969 110.547 39.712 109.766 37.9463 109.653C36.8193 109.582 35.7131 109.173 34.5945 108.939C33.7012 108.752 33.1335 108.246 33.1085 107.324C33.0667 105.591 33.0667 103.854 33.1085 102.117C33.1293 101.194 33.697 100.685 34.5903 100.501C36.1514 100.175 37.7042 99.8038 39.2695 99.5031C39.9123 99.3779 40.192 99.0814 40.455 98.4468C41.1228 96.8309 40.6971 95.7453 39.2987 94.785C38.3887 94.1628 37.6458 93.3027 36.8109 92.5679C36.0178 91.8747 35.8258 91.0689 36.3351 90.1503C37.0906 88.7808 37.8419 87.4113 38.6601 86.0835C39.3154 85.0146 39.8998 84.856 41.1395 85.2443C42.5963 85.6994 44.0572 86.142 45.4931 86.6514C46.1193 86.8727 46.4908 86.7432 47.0334 86.3215C48.4109 85.2568 48.6112 84.1253 47.8641 82.5887C47.3673 81.5699 47.1294 80.4217 46.7871 79.3278C46.4908 78.3841 46.712 77.6033 47.5969 77.0898C49.0036 76.2714 50.4145 75.4489 51.842 74.6639C52.681 74.2046 53.4449 74.38 54.0877 75.094C55.1354 76.2589 56.2123 77.3946 57.2183 78.5887C57.7067 79.1649 58.1492 79.2067 58.9047 79.119C60.6244 78.9228 61.1796 77.9833 61.3465 76.4217C61.4718 75.2192 61.8433 74.0459 62.1062 72.856C62.2941 72.0042 62.82 71.4823 63.6882 71.4656C65.4205 71.428 67.157 71.4238 68.8892 71.4656C69.8117 71.4864 70.321 72.0543 70.5088 72.9478C70.8344 74.5136 71.2184 76.0668 71.5064 77.6368C71.6358 78.3507 72.024 78.5804 72.6627 78.8434C74.1987 79.4823 75.2256 79.0606 76.1439 77.7453C76.7951 76.8142 77.6716 76.0376 78.4272 75.1733C79.1201 74.38 79.9215 74.1837 80.844 74.6931C82.2381 75.4656 83.6448 76.2297 84.9847 77.094C85.4564 77.3988 85.7403 77.9917 86.07 78.4008V78.405ZM82.3091 130.146C81.7331 128.334 81.2155 126.605 80.6353 124.902C80.3222 123.987 80.5476 123.307 81.2363 122.664C82.2507 121.716 83.2441 120.743 84.1791 119.72C84.847 118.99 85.5441 118.756 86.4958 119.086C88.1947 119.67 89.9144 120.184 91.6884 120.747C92.085 120.042 92.4481 119.39 92.8321 118.71C91.4338 117.436 90.1064 116.213 88.7623 115.015C88.0611 114.388 87.8774 113.691 88.1738 112.772C88.587 111.486 88.9502 110.175 89.2215 108.852C89.4427 107.787 90.0021 107.223 91.0539 107.019C92.782 106.685 94.4976 106.284 96.2466 105.908V103.537C94.5018 103.157 92.8196 102.756 91.1166 102.438C90.0187 102.234 89.4302 101.674 89.209 100.555C88.9627 99.2985 88.6246 98.0501 88.2113 96.8393C87.8607 95.8121 88.0319 95.0438 88.8542 94.334C90.1899 93.1775 91.4755 91.9666 92.8321 90.7307C92.4314 90.0292 92.0599 89.3779 91.6717 88.6973C89.9394 89.2526 88.2823 89.7495 86.6502 90.3257C85.59 90.7015 84.8094 90.4802 84.0706 89.6242C83.2316 88.6555 82.3133 87.7453 81.3491 86.8977C80.5393 86.1837 80.2972 85.4363 80.6561 84.405C81.2363 82.739 81.7414 81.048 82.2966 79.3027C81.5912 78.9061 80.94 78.5386 80.2596 78.1545C79.0157 79.5282 77.8094 80.8267 76.6448 82.1587C75.9644 82.9353 75.2256 83.1315 74.2321 82.7933C73.0216 82.3841 71.7819 82.0209 70.5255 81.7871C69.3609 81.5699 68.7807 80.9812 68.572 79.833C68.2589 78.1336 67.8499 76.4509 67.4742 74.7349H65.1158C64.7318 76.5136 64.3394 78.238 64.0013 79.975C63.7926 81.0355 63.1999 81.5741 62.1396 81.7787C60.9166 82.0167 59.6936 82.3173 58.529 82.7432C57.4187 83.1482 56.6131 82.9436 55.8534 82.0585C54.7264 80.7432 53.5367 79.4823 52.3304 78.1503C51.6291 78.5512 50.978 78.9228 50.2976 79.3111C50.8527 81.0438 51.3495 82.7056 51.9255 84.3382C52.3012 85.4029 52.0758 86.1837 51.2242 86.9228C50.26 87.7662 49.3501 88.6848 48.5027 89.6493C47.7889 90.4593 47.0418 90.7015 46.0107 90.3382C44.3494 89.7578 42.6631 89.2526 40.9225 88.6931C40.5217 89.4029 40.1586 90.0585 39.7746 90.7349C41.1729 92.0084 42.5045 93.2276 43.8485 94.4301C44.5498 95.0564 44.7293 95.7578 44.4329 96.6764C44.028 97.929 43.6523 99.2025 43.4019 100.493C43.189 101.599 42.6547 102.213 41.5486 102.43C39.8205 102.764 38.1049 103.169 36.3601 103.549V105.908C38.1759 106.296 39.9332 106.685 41.6947 107.052C42.6631 107.253 43.1681 107.825 43.3727 108.793C43.6398 110.046 43.9237 111.311 44.3536 112.514C44.7543 113.628 44.554 114.434 43.669 115.194C42.3584 116.322 41.0978 117.516 39.7662 118.722C40.1669 119.424 40.5384 120.075 40.9266 120.76C42.6923 120.192 44.3828 119.687 46.0483 119.106C47.0376 118.764 47.7639 118.985 48.4568 119.758C49.3375 120.739 50.2642 121.683 51.2493 122.56C52.0549 123.278 52.2928 124.025 51.9338 125.056C51.3536 126.722 50.8486 128.409 50.2934 130.154C51.003 130.555 51.6542 130.923 52.3346 131.303C53.6035 129.9 54.8265 128.572 56.0245 127.223C56.6506 126.518 57.3477 126.338 58.2619 126.639C59.5099 127.048 60.783 127.428 62.0728 127.67C63.2374 127.887 63.8135 128.484 64.0264 129.628C64.3394 131.328 64.7485 133.01 65.1241 134.722H67.4825C67.8624 132.973 68.2631 131.286 68.5803 129.582C68.7974 128.426 69.4152 127.866 70.5714 127.662C71.761 127.453 72.9465 127.132 74.0777 126.714C75.188 126.305 75.9936 126.514 76.7533 127.399C77.8803 128.714 79.07 129.975 80.2721 131.303C80.9483 130.919 81.5745 130.564 82.3008 130.154L82.3091 130.146Z" fill="white"/>
<path d="M89.8603 41.7829C90.3111 41.9499 90.6784 42.0543 91.0124 42.2213C92.1603 42.7975 93.2873 43.4113 94.4352 43.9875C95.3493 44.4468 96.0297 44.1545 96.3469 43.1775C96.7101 42.0543 97.0941 40.9353 97.3946 39.7954C97.6952 38.618 98.3839 38 99.5986 38C100.847 38 102.091 38.0167 103.339 38.0459C104.353 38.071 104.9 38.643 105.167 39.5908C105.488 40.7265 105.864 41.8455 106.223 42.9687C106.628 44.2338 107.241 44.501 108.389 43.904C109.466 43.3486 110.556 42.8058 111.612 42.2088C112.488 41.7119 113.281 41.7787 113.987 42.4676C114.98 43.4363 115.957 44.4217 116.909 45.4321C117.468 46.0292 117.502 46.739 117.122 47.4614C116.525 48.6013 115.928 49.737 115.339 50.8768C114.772 51.9749 115.043 52.6263 116.199 52.9979C117.389 53.3779 118.57 53.7745 119.768 54.1336C120.632 54.3925 121.166 54.9228 121.183 55.8372C121.208 57.2568 121.208 58.6806 121.175 60.1002C121.154 60.9729 120.645 61.4906 119.826 61.7453C118.57 62.1336 117.314 62.5386 116.061 62.9436C115.101 63.2526 114.805 63.9541 115.268 64.8685C115.849 66.0167 116.429 67.1608 117.047 68.2881C117.506 69.1232 117.476 69.8914 116.817 70.5846C115.907 71.5365 114.976 72.476 114.037 73.3987C113.302 74.1211 112.493 74.2046 111.574 73.6827C110.489 73.0647 109.37 72.5094 108.256 71.9415C107.304 71.4572 106.611 71.7537 106.277 72.7891C105.914 73.9123 105.534 75.0313 105.225 76.1712C104.921 77.2985 104.261 77.9123 103.084 77.9081C101.803 77.9081 100.521 77.8956 99.2396 77.858C98.2754 77.833 97.7411 77.2777 97.4781 76.3716C97.1192 75.1399 96.7184 73.9165 96.3219 72.6973C96.0255 71.7871 95.3243 71.4823 94.4769 71.904C93.2998 72.4927 92.1269 73.0981 90.9665 73.7286C90.1275 74.1837 89.3636 74.1336 88.679 73.4614C87.7106 72.5136 86.7506 71.5616 85.8114 70.5887C85.1477 69.8998 85.1143 69.1315 85.5735 68.2964C86.1912 67.1691 86.7756 66.0251 87.3558 64.8768C87.8192 63.9582 87.5395 63.261 86.5753 62.9436C85.3272 62.5303 84.0708 62.1253 82.8102 61.7453C81.9837 61.4948 81.4703 60.9854 81.4536 60.1127C81.4244 58.6597 81.4244 57.2025 81.4619 55.7453C81.4828 54.9186 81.9754 54.4175 82.7559 54.1795C84.0123 53.7912 85.2688 53.3946 86.521 52.9812C87.5478 52.643 87.8275 51.9541 87.335 50.9854C86.7673 49.8706 86.2121 48.7516 85.6027 47.6618C85.1143 46.7891 85.1435 46 85.8448 45.2818C86.7881 44.3132 87.7398 43.3486 88.7291 42.4259C89.0422 42.1336 89.4846 41.9875 89.8561 41.7787L89.8603 41.7829ZM113.611 46.952C113.62 46.2797 112.463 45.5699 111.879 45.8539C111.474 46.0501 111.044 46.2213 110.685 46.4843C108.84 47.833 106.974 48.096 104.921 46.8852C104.215 46.4718 103.668 46.071 103.439 45.2735C103.172 44.3382 102.863 43.4154 102.579 42.4843C102.383 41.8288 102.32 41.1942 101.297 41.2067C100.333 41.2192 100.275 41.8205 100.083 42.4301C99.7823 43.3904 99.5861 44.4008 99.152 45.2985C98.8639 45.8956 98.313 46.4468 97.7453 46.8142C95.8293 48.0585 93.9259 47.9624 92.0977 46.547C91.8013 46.3173 91.4131 46.2129 91.0875 46.0084C90.549 45.6701 90.1233 45.5198 89.5556 46.0919C88.9879 46.6639 89.0004 47.1106 89.4053 47.7035C89.6015 47.9875 89.685 48.3507 89.8937 48.6221C91.3004 50.4718 91.4924 52.4008 90.2068 54.3716C89.852 54.9144 89.3552 55.4781 88.7876 55.7411C87.7899 56.2004 86.6921 56.4509 85.6236 56.7599C85.0141 56.9353 84.6051 57.1232 84.6134 57.929C84.6218 58.6889 84.914 58.9896 85.5818 59.1232C85.9533 59.1983 86.3081 59.3779 86.6796 59.4363C88.9003 59.7871 90.3696 60.9144 90.9414 63.1983C91.1376 63.9833 91.2837 64.6514 90.8788 65.3862C90.3612 66.3299 89.9354 67.3278 89.3678 68.238C88.9503 68.9061 89.0839 69.3069 89.6015 69.8372C90.1275 70.38 90.5198 70.2046 91.0458 69.9081C93.1454 68.7223 95.2241 67.2651 97.7119 69.0438C97.7411 69.0647 97.787 69.0605 97.8079 69.0814C98.2629 69.5658 98.8765 69.9749 99.1353 70.5511C99.5902 71.5532 99.8616 72.6514 100.145 73.7203C100.321 74.38 100.592 74.6973 101.352 74.6764C102.053 74.6597 102.312 74.38 102.479 73.762C102.754 72.7223 103.13 71.7077 103.422 70.6722C103.66 69.833 104.236 69.4322 104.967 68.9937C107.004 67.7787 108.828 68.0752 110.635 69.3987C110.911 69.5992 111.261 69.6994 111.553 69.8831C112.092 70.2255 112.518 70.3674 113.085 69.7996C113.657 69.2276 113.64 68.7808 113.236 68.1921C113.039 67.9081 112.956 67.5449 112.751 67.2735C111.34 65.4238 111.148 63.4906 112.438 61.5282C112.81 60.9645 113.357 60.4092 113.953 60.1253C114.884 59.6827 115.924 59.4739 116.917 59.1691C117.514 58.9854 118.044 58.881 118.036 57.9791C118.027 57.1232 117.606 56.9311 116.967 56.7474C115.936 56.4509 114.88 56.1921 113.899 55.7704C113.373 55.5449 112.793 55.1065 112.555 54.6138C111.148 51.666 111.182 51.6493 112.685 48.7724C112.927 48.309 113.169 47.8497 113.407 47.3862C113.486 47.2317 113.557 47.0731 113.611 46.952Z" fill="white"/>
<path d="M125.758 110.084C124.677 109.595 123.796 109.207 122.919 108.802C121.746 108.259 120.882 108.618 120.44 109.846C120.427 109.879 120.415 109.912 120.398 109.942C119.922 110.914 120.035 112.476 118.837 112.714C117.247 113.031 115.548 112.873 113.903 112.781C113.561 112.76 113.16 112.188 112.956 111.787C112.626 111.144 112.438 110.426 112.188 109.741C111.783 108.639 110.889 108.263 109.833 108.752C109.612 108.852 109.399 108.965 109.178 109.069C106.807 110.2 106.632 110.175 104.749 108.351C104.649 108.255 104.553 108.155 104.453 108.054C102.516 106.05 102.524 105.971 103.668 103.449C103.919 102.898 104.056 102.238 104.048 101.633C104.035 100.998 103.572 100.585 102.908 100.48C102.875 100.476 102.846 100.455 102.812 100.438C101.84 99.9708 100.279 100.088 100.032 98.8977C99.7027 97.3069 99.8529 95.6034 99.949 93.9583C99.9698 93.595 100.588 93.1858 101.018 92.952C101.556 92.6556 102.182 92.5178 102.771 92.309C104.152 91.8205 104.503 91.0021 103.889 89.6994C103.785 89.4781 103.689 89.2568 103.585 89.0355C102.541 86.8351 102.562 86.689 104.207 84.9437C104.374 84.7683 104.541 84.5887 104.716 84.4217C106.632 82.5553 106.79 82.5512 109.236 83.6743C109.792 83.929 110.447 84.0919 111.048 84.0794C111.657 84.0668 112.108 83.6284 112.208 82.9478C112.229 82.8142 112.3 82.6848 112.359 82.5595C112.776 81.6368 112.722 80.1754 113.87 80C115.51 79.7453 117.226 79.9082 118.904 80.0292C119.229 80.0543 119.588 80.6764 119.784 81.0898C120.098 81.7453 120.277 82.4593 120.532 83.1441C120.861 84.0292 121.838 84.4384 122.694 84.0543C123.358 83.7537 124.017 83.4447 124.668 83.1148C125.44 82.7265 126.163 82.7933 126.785 83.3821C127.64 84.1921 128.471 85.0313 129.285 85.8831C129.873 86.5011 129.969 87.2234 129.59 88C129.302 88.5929 129.022 89.19 128.742 89.7871C128.208 90.9228 128.559 91.7913 129.719 92.2171C129.882 92.2756 130.045 92.3424 130.207 92.4009C132.946 93.3904 133.037 93.5115 133.012 96.4426C133.008 96.9979 132.941 97.5533 132.908 98.1086C132.854 99.0689 132.324 99.6242 131.435 99.9082C130.842 100.096 130.257 100.317 129.669 100.534C128.571 100.935 128.212 101.829 128.709 102.906C128.784 103.065 128.859 103.219 128.934 103.378C130.174 106 130.161 106.171 128.058 108.209C127.352 108.889 126.538 109.461 125.766 110.088L125.758 110.084ZM116.954 109.628C117.226 108.877 117.447 108.067 117.81 107.324C118.04 106.856 118.403 106.334 118.845 106.113C120.757 105.165 122.723 104.305 124.723 105.95C124.748 105.971 124.789 105.996 124.819 105.987C125.115 105.937 125.524 105.979 125.683 105.8C125.875 105.582 125.987 105.136 125.904 104.86C125.724 104.267 125.273 103.745 125.157 103.152C125.023 102.484 125.006 101.737 125.165 101.081C125.67 98.9854 126.814 97.4739 129.13 97.1441C129.339 97.1148 129.635 96.6597 129.623 96.4176C129.606 96.1211 129.368 95.7161 129.11 95.5867C128.496 95.2777 127.774 95.1816 127.169 94.856C126.714 94.6096 126.238 94.213 126.004 93.762C125.015 91.833 124.338 89.8539 125.925 87.8706C125.946 87.8455 125.971 87.8038 125.962 87.7745C125.9 87.5073 125.912 87.1524 125.745 86.9979C125.541 86.81 125.136 86.6556 124.902 86.7349C124.217 86.9687 123.595 87.4029 122.907 87.6075C122.41 87.7537 121.805 87.7954 121.316 87.6493C119.229 87.0146 117.393 86.0835 117.084 83.5491C117.059 83.3403 116.516 83.0105 116.274 83.0564C115.969 83.1148 115.652 83.4572 115.477 83.7578C114.951 84.6681 114.73 86.0084 113.962 86.4718C112.15 87.57 110.105 88.5261 108.026 86.8267C107.976 86.785 107.897 86.7391 107.838 86.7474C107.538 86.7892 107.204 86.7808 106.953 86.9186C106.431 87.2025 106.603 87.6201 106.79 88.071C107.208 89.0731 108.101 89.9666 107.709 91.1733C107.4 92.1253 106.999 93.0606 106.54 93.9499C106.352 94.3132 105.943 94.618 105.567 94.8184C105.083 95.0773 104.541 95.2485 104.006 95.3779C103.146 95.5867 102.75 96.0251 103.092 96.9812C103.839 97.2526 104.637 97.4906 105.392 97.8372C105.814 98.0292 106.323 98.3132 106.502 98.6931C107.421 100.626 108.489 102.597 106.799 104.672C106.778 104.697 106.757 104.739 106.757 104.768C106.795 105.098 106.724 105.562 106.911 105.724C107.145 105.925 107.705 106.054 107.93 105.908C109.6 104.843 111.248 104.63 112.96 105.77C113.102 105.862 113.323 105.846 113.44 105.954C113.928 106.397 114.467 106.814 114.846 107.34C115.139 107.745 115.276 108.292 115.385 108.798C115.577 109.695 116.095 109.891 116.946 109.62L116.954 109.628Z" fill="white"/>
<path d="M66.6894 59.3027C67.6619 58.3925 68.4341 57.666 69.2189 56.9311C70.8593 58.547 72.5624 60.1795 74.1986 61.8747C74.8749 62.572 74.8206 63.4405 74.1486 64.1294C72.529 65.7954 70.8593 67.4154 69.1646 69.0981C68.4174 68.2964 67.6911 67.524 66.7227 66.4927C67.3405 66.0501 68.0376 65.549 68.935 64.906C61.7806 63.9081 46.3112 66.1252 35.5168 79.0355C34.7029 78.3549 33.8847 77.6743 32.9873 76.9269C37.4411 71.6117 42.7632 67.6033 49.0369 64.8768C55.3023 62.1545 61.8682 60.9979 68.8182 61.1148C68.1169 60.5219 67.4157 59.9248 66.6768 59.2985L66.6894 59.3027Z" fill="white"/>
<path d="M123.88 47.1691C123.541 48.7683 123.258 50.1086 122.949 51.5783L119.685 50.952C120.273 48.0501 120.816 45.2276 121.434 42.4217C121.609 41.6284 122.285 41.1399 123.087 41.2818C125.912 41.7787 128.722 42.3674 131.639 42.9395C131.426 44.0543 131.239 45.0606 131.022 46.2046L126.843 45.4196C131.502 56.1921 130.4 66.2255 123.504 75.7328C122.573 74.9896 121.767 74.3466 120.862 73.6242C123.763 69.8539 125.599 65.6535 126.146 60.9144C126.689 56.2046 125.946 51.7244 123.88 47.1649V47.1691Z" fill="white"/>
<path d="M84.6469 104.785C84.6219 114.906 76.3445 123.127 66.2139 123.094C56.1124 123.061 47.9228 114.764 47.9645 104.601C48.0063 94.5303 56.2585 86.334 66.3433 86.3465C76.4572 86.3632 84.6719 94.6346 84.6469 104.785ZM66.3182 89.691C58.0743 89.6868 51.3247 96.405 51.2997 104.651C51.2746 112.96 58.0075 119.741 66.2848 119.749C74.5246 119.754 81.2784 113.027 81.3034 104.789C81.3285 96.4802 74.5956 89.6994 66.3141 89.6952L66.3182 89.691Z" fill="white"/>
<path d="M109.658 57.8831C109.687 62.5011 105.964 66.2881 101.372 66.309C96.7683 66.3299 92.9991 62.5804 92.9907 57.9791C92.9824 53.4113 96.6849 49.6493 101.226 49.6075C105.843 49.5658 109.633 53.286 109.662 57.8831H109.658ZM106.319 57.9875C106.331 55.2568 104.119 52.9937 101.402 52.9562C98.6342 52.9186 96.3384 55.1691 96.3259 57.9332C96.3134 60.7015 98.5841 62.9812 101.343 62.9687C104.065 62.9562 106.302 60.714 106.315 57.9917L106.319 57.9875Z" fill="white"/>
<path d="M116.287 103.052C112.614 103.035 109.629 100 109.658 96.3048C109.688 92.668 112.676 89.6952 116.312 89.691C119.998 89.6868 122.995 92.6931 122.991 96.3841C122.991 100.067 119.969 103.069 116.283 103.052H116.287ZM116.366 99.7077C118.17 99.6868 119.664 98.1628 119.655 96.3549C119.647 94.5052 118.082 92.9896 116.233 93.0355C114.429 93.0814 112.964 94.6221 112.998 96.4384C113.031 98.2463 114.563 99.7286 116.366 99.7077Z" fill="white"/>
</g>
<defs>
<clipPath id="clip0_900_3">
<rect width="100" height="100" fill="white" transform="translate(33 38)"/>
</clipPath>
</defs>
</svg>
