<svg width="173" height="173" viewBox="0 0 173 173" fill="none" xmlns="http://www.w3.org/2000/svg">
<circle cx="86.5" cy="86.5" r="86.5" fill="#992740"/>
<g clip-path="url(#clip0_900_4)">
<path d="M111.912 119.993C111.912 120.439 111.912 120.834 111.912 121.225C111.912 124.844 111.92 128.463 111.904 132.087C111.9 133.398 111.331 133.948 110.036 133.996C109.807 134.004 109.578 133.996 109.344 133.996C88.0763 133.996 66.8082 133.996 45.5401 133.996C43.3911 133.996 42.9961 133.601 42.9961 131.461C43 104.994 43 78.5262 43 52.0548C43 50.002 43.403 49.5914 45.4057 49.5914C49.7431 49.5914 54.0844 49.5914 58.4218 49.5914C58.7734 49.5914 59.125 49.5914 59.5437 49.5914C59.5595 49.1968 59.5674 48.9058 59.5871 48.6148C59.7373 46.1993 61.5465 44.3976 63.9364 44.3219C64.9832 44.29 66.0261 44.3179 67.219 44.3179C67.219 42.8749 67.219 41.5277 67.219 40.1804C67.2269 38.4903 67.7168 38 69.4154 38C74.7719 38 80.1324 38 85.4889 38C87.2191 38 87.7208 38.5142 87.7287 40.2601C87.7327 41.5516 87.7287 42.843 87.7287 44.3059C88.4042 44.3059 89.0165 44.3538 89.617 44.298C92.7653 43.995 95.3053 45.4699 95.3843 49.5316C95.7556 49.5516 96.1309 49.5874 96.5101 49.5874C100.883 49.5914 105.252 49.5874 109.625 49.5874C111.45 49.5874 111.896 50.0419 111.9 51.8754C111.9 55.7299 111.916 59.5805 111.888 63.431C111.885 64.1325 112.07 64.3797 112.793 64.4953C117.802 65.3084 122.258 67.3772 126.157 70.6617C126.335 70.8092 126.512 70.9567 126.69 71.1002C126.714 71.1201 126.749 71.1201 126.852 71.156C128.29 69.709 129.783 68.2701 131.189 66.7434C131.474 66.4365 131.486 65.8186 131.517 65.3363C131.778 60.9278 131.249 62.4066 134.243 59.2696C135.065 58.4086 135.914 57.5755 136.751 56.7304C137.281 56.1923 137.877 55.9253 138.616 56.2641C139.382 56.6148 139.619 57.2526 139.572 58.0538C139.52 58.9068 139.481 59.7598 139.438 60.6248C140.322 60.6248 141.105 60.6647 141.879 60.6129C142.728 60.561 143.467 60.6687 143.854 61.5496C144.245 62.4425 143.787 63.0603 143.19 63.6542C141.831 65.0055 140.532 66.4205 139.121 67.712C138.628 68.1624 137.846 68.6168 137.245 68.561C134.555 68.3019 132.604 69.3981 131 71.4748C130.443 72.1923 129.657 72.7304 128.985 73.3403C143.645 90.2691 134.354 116.541 111.908 119.981L111.912 119.993ZM102.281 124.198C102.281 122.851 102.246 121.591 102.297 120.336C102.321 119.674 102.08 119.435 101.46 119.276C98.2443 118.466 95.2856 117.067 92.5362 115.198C92.0582 114.871 91.4025 114.664 90.8257 114.66C84.9754 114.62 79.1251 114.64 73.2708 114.632C72.8481 114.632 72.4097 114.632 72.0028 114.524C71.2364 114.329 70.8335 113.755 70.8612 112.982C70.8888 112.172 71.3352 111.61 72.1726 111.483C72.5282 111.427 72.8955 111.439 73.255 111.439C77.8255 111.439 82.3919 111.439 86.9624 111.439C87.3021 111.439 87.6458 111.439 88.2146 111.439C85.6272 108.569 83.7469 105.56 82.4235 102.195C82.3287 101.96 81.8152 101.769 81.4913 101.765C78.5642 101.733 75.641 101.753 72.7138 101.741C71.5643 101.737 70.8414 101.103 70.8454 100.146C70.8454 99.1938 71.5683 98.564 72.7178 98.5561C74.4282 98.5441 76.1347 98.5561 77.8452 98.5561C78.9789 98.5561 80.1166 98.5561 81.0528 98.5561C80.875 95.2795 80.7012 92.1266 80.5235 88.8819C78.9197 88.8819 77.2487 88.8819 75.5738 88.8819C74.4914 88.8819 73.4012 88.9058 72.3228 88.8381C71.4339 88.7823 70.8414 88.0967 70.8414 87.2755C70.8414 86.4664 71.4537 85.8127 72.3307 85.709C72.623 85.6731 72.9232 85.6851 73.2155 85.6851C75.6133 85.6851 78.0151 85.6572 80.4129 85.701C81.1437 85.713 81.4162 85.4619 81.6177 84.7643C82.0246 83.3692 82.4788 81.9741 83.0753 80.6547C83.7785 79.1002 84.6515 77.6253 85.5047 76.011H84.5172C81.0015 76.011 77.4818 76.011 73.9661 76.011C73.4091 76.011 72.8442 76.0468 72.2912 75.987C71.4339 75.8954 70.8256 75.1819 70.8414 74.3767C70.8572 73.5476 71.4695 72.9138 72.3504 72.8341C72.6427 72.8062 72.9429 72.8181 73.2392 72.8181C77.9084 72.8181 82.5737 72.8062 87.2429 72.8301C87.9499 72.8341 88.4635 72.6547 88.977 72.1405C91.6632 69.434 94.7878 67.3812 98.3431 66.0379C99.6229 65.5556 100.934 65.153 102.222 64.7185V59.3931H95.3962C95.3646 59.5765 95.329 59.7001 95.3211 59.8276C95.2066 62.0518 94.9656 62.283 92.7297 62.283C82.704 62.283 72.6783 62.283 62.6525 62.283C60.7801 62.283 59.7412 61.3569 59.5358 59.5047C59.5358 59.4768 59.5042 59.4529 59.4528 59.3812H52.7098V124.198H102.285H102.281ZM124.375 73.4519C115.803 65.416 100.571 64.6786 90.8494 74.7753C80.8711 85.135 81.5505 101.542 92.236 110.885C102.921 120.224 119.015 118.658 127.709 107.397C136.19 96.4156 133.18 82.3807 126.797 76.003C125.521 77.2865 124.245 78.57 122.965 79.8535C130.044 88.5869 128.005 100.792 120.235 107.066C112.655 113.185 101.879 112.627 94.9853 105.727C88.1909 98.9268 87.547 87.9851 93.3934 80.3757C99.4847 72.4514 111.715 70.0917 120.512 77.3782C121.804 76.0668 123.087 74.7554 124.371 73.4519H124.375ZM105.446 120.057C105.446 121.91 105.457 123.632 105.446 125.354C105.434 126.913 104.9 127.439 103.352 127.443C86.0933 127.443 68.8347 127.443 51.5721 127.443C50.0157 127.443 49.4943 126.921 49.4943 125.362C49.4943 102.977 49.4943 80.5869 49.4943 58.2013C49.4943 56.6587 50.0275 56.1365 51.5918 56.1325C53.8948 56.1246 56.1939 56.1325 58.4969 56.1325C58.8405 56.1325 59.1882 56.1325 59.5437 56.1325V52.856H46.2076V130.747H108.689V120.204C107.634 120.156 106.627 120.113 105.446 120.061V120.057ZM118.205 79.8176C113.33 75.3453 103.676 74.3049 97.154 80.9138C90.8652 87.2915 91.039 97.5117 97.5253 103.758C103.83 109.833 113.998 109.482 119.927 103.001C126.121 96.2322 124.703 86.6178 120.587 82.2571C119.295 83.5685 118.003 84.8799 116.692 86.2113C120.121 91.4968 118.312 97.3483 114.527 100.298C110.609 103.351 104.976 103.056 101.329 99.5685C97.7782 96.1684 97.1501 90.5242 99.8955 86.4504C101.298 84.3697 103.194 82.9228 105.6 82.277C108.716 81.44 111.644 81.9661 114.27 83.7917C115.602 82.4444 116.874 81.153 118.197 79.8097L118.205 79.8176ZM92.1451 59.0503C92.1451 55.5904 92.1451 52.2382 92.1451 48.8859C92.1451 48.1604 91.8133 47.6024 91.0904 47.5506C89.9922 47.4709 88.8862 47.5306 87.7208 47.5306C87.7208 48.2162 87.7564 48.7823 87.7129 49.3403C87.63 50.3607 87.0611 50.9347 86.0578 50.9387C80.3062 50.9547 74.5546 50.9547 68.8031 50.9347C67.8353 50.9347 67.2901 50.3528 67.2348 49.3802C67.2032 48.7942 67.2269 48.2043 67.2269 47.5027C66.3302 47.5027 65.552 47.5027 64.7699 47.5027C63.0752 47.5027 62.7394 47.8376 62.7394 49.5157C62.7394 52.2701 62.7394 55.0284 62.7434 57.7828C62.7434 58.2013 62.7434 58.6158 62.7434 59.0503H92.1451ZM112.007 86.2312C109.214 84.2581 105.209 84.9317 102.957 87.6542C100.642 90.4524 100.836 94.574 103.403 97.157C106.003 99.7718 110.091 99.9312 112.888 97.5316C115.503 95.2875 116.131 91.2297 114.243 88.5072C114.026 88.7065 113.804 88.8979 113.599 89.1051C112.224 90.4843 110.869 91.8874 109.475 93.2466C108.74 93.9601 107.824 93.9203 107.196 93.2466C106.587 92.5929 106.603 91.7638 107.259 91.0105C107.496 90.7354 107.764 90.4883 108.021 90.2292C109.344 88.9018 110.668 87.5785 112.003 86.2352L112.007 86.2312ZM84.4856 47.722V41.2566H70.4582V47.722H84.4856ZM108.665 64.0688V52.8839H95.3685V56.1365C97.6834 56.1365 99.9429 56.1365 102.198 56.1365C105.343 56.1365 105.442 56.2402 105.442 59.4569C105.442 61.0354 105.442 62.6139 105.442 64.2561L108.661 64.0648L108.665 64.0688ZM138.181 64.0847C136.747 64.1206 136.159 63.3473 136.06 62.0957C134.591 62.8729 134.634 64.1325 134.764 65.432C136.854 65.6233 137.024 65.5595 138.185 64.0807L138.181 64.0847Z" fill="white"/>
<path d="M61.7755 99.1061C62.9448 97.8984 64.0153 96.7783 65.1096 95.6781C65.9747 94.8052 66.9227 94.7334 67.6061 95.4549C68.2698 96.1565 68.1947 97.0613 67.3652 97.9103C65.9352 99.3732 64.4973 100.828 63.0475 102.271C62.1113 103.2 61.345 103.192 60.4048 102.271C59.7925 101.673 59.1802 101.071 58.5995 100.437C57.9596 99.7359 57.9557 98.8152 58.5363 98.2013C59.1486 97.5516 60.0888 97.5436 60.8275 98.1973C61.1198 98.4564 61.3884 98.7354 61.7755 99.1061Z" fill="white"/>
<path d="M61.6729 73.4838C62.9172 72.2003 63.9838 71.0802 65.0662 69.9801C65.9352 69.0952 66.8714 68.9915 67.5627 69.6731C68.2777 70.3747 68.2066 71.2994 67.3296 72.1963C65.9234 73.6353 64.5131 75.0702 63.0871 76.4893C62.1074 77.4619 61.345 77.4539 60.3733 76.4972C59.7847 75.9193 59.1961 75.3413 58.6351 74.7354C57.9597 74.002 57.9478 73.0453 58.568 72.4195C59.1921 71.7897 60.1244 71.8017 60.8591 72.4873C61.1238 72.7304 61.3213 73.0493 61.6729 73.4838Z" fill="white"/>
<path d="M61.6334 112.16C62.9607 110.785 64.051 109.633 65.1649 108.513C65.9787 107.692 66.9267 107.636 67.5904 108.326C68.2738 109.031 68.2066 109.912 67.3692 110.773C65.9392 112.236 64.5013 113.691 63.0515 115.134C62.1272 116.055 61.3371 116.055 60.4088 115.15C59.7965 114.552 59.1803 113.95 58.6036 113.312C57.9636 112.611 57.9557 111.69 58.5364 111.072C59.1724 110.395 60.0652 110.379 60.8118 111.076C61.0962 111.343 61.2937 111.702 61.6334 112.16Z" fill="white"/>
<path d="M61.7004 86.3428C62.9842 85.0154 64.1061 83.8117 65.2754 82.6517C66.097 81.8386 67.1596 81.9063 67.7443 82.7633C68.2499 83.5007 68.1432 84.2182 67.5428 84.8401C65.9983 86.4225 64.4498 88.001 62.8736 89.5516C62.1665 90.2451 61.3133 90.2372 60.5904 89.5595C59.9149 88.9297 59.267 88.2681 58.6389 87.5944C57.9516 86.857 57.9476 85.9163 58.5797 85.2865C59.2354 84.6328 60.0926 84.6487 60.855 85.3622C61.1197 85.6094 61.333 85.9123 61.7004 86.3428Z" fill="white"/>
</g>
<defs>
<clipPath id="clip0_900_4">
<rect width="101" height="96" fill="white" transform="translate(43 38)"/>
</clipPath>
</defs>
</svg>
