<svg width="173" height="173" viewBox="0 0 173 173" fill="none" xmlns="http://www.w3.org/2000/svg">
<circle cx="86.5" cy="86.5" r="86.5" fill="#992740"/>
<g clip-path="url(#clip0_901_7)">
<path d="M119.739 91.1216C120.775 91.1216 121.7 91.1101 122.626 91.1216C124.653 91.1522 125.989 92.4677 125.989 94.4869C126 101.107 126 107.722 125.989 114.342C125.989 116.422 124.687 117.711 122.572 117.765C121.651 117.788 120.729 117.765 119.689 117.765C119.689 118.686 119.689 119.505 119.689 120.323C119.689 121.979 119.704 123.631 119.681 125.287C119.666 126.43 119.109 126.958 117.957 126.992C117.765 127 117.573 126.992 117.381 126.992C97.1337 126.992 76.8822 126.992 56.6345 126.992C54.7303 126.992 54.3425 126.602 54.3387 124.702C54.3387 122.445 54.3387 120.193 54.3387 117.83C53.878 117.807 53.4749 117.746 53.0795 117.768C49.582 117.99 47.8736 117.18 47.9964 112.705C48.1615 106.728 48.0348 100.743 48.0386 94.7622C48.0386 92.3568 49.2864 91.1216 51.7012 91.114C52.5305 91.114 53.3597 91.114 54.3387 91.114V89.8558C54.3387 73.3736 54.3387 56.8914 54.3387 40.4092C54.3387 38.3633 54.6919 38.0076 56.7113 38.0076C71.3077 38.0153 85.8965 38.0191 100.481 38C101.318 38 101.902 38.2715 102.493 38.8528C107.945 44.2258 113.423 49.5796 118.913 54.9143C119.489 55.4727 119.716 56.0425 119.716 56.8379C119.693 68.0389 119.696 79.2399 119.696 90.4371C119.696 90.6245 119.719 90.808 119.739 91.114V91.1216ZM116.575 57.8934H115.431C110.824 57.8934 106.221 57.8934 101.614 57.8934C99.8864 57.8934 99.4487 57.465 99.4487 55.7671C99.4487 51.2163 99.4487 46.6694 99.4487 42.1186C99.4487 41.7859 99.4218 41.4532 99.4065 41.1396H57.4945V91.0604H116.575V57.8895V57.8934ZM51.156 114.625H122.848V94.2651H51.156V114.625ZM116.575 117.841H57.4868V123.868H116.575V117.841ZM102.566 54.7346H114.322C110.367 50.8722 106.532 47.1283 102.566 43.2544V54.7346Z" fill="white"/>
<path d="M70.9473 74.54C72.387 76.0429 73.796 77.5114 75.1973 78.9799C75.4391 79.2322 75.6887 79.4808 75.9152 79.7485C76.4949 80.4483 76.4757 81.3241 75.8768 81.8939C75.2625 82.479 74.3911 82.5019 73.7307 81.8518C72.6826 80.8269 71.6883 79.7485 70.6709 78.693C69.7418 77.7293 68.8128 76.7657 67.8914 75.7943C67.016 74.8689 67.0122 74.1614 67.9067 73.2245C69.7726 71.2627 71.6499 69.3085 73.5349 67.362C74.3373 66.536 75.2011 66.4748 75.8883 67.144C76.5179 67.7559 76.4987 68.666 75.7808 69.4347C74.4064 70.8994 73.0051 72.3373 71.6192 73.7904C71.4042 74.0161 71.2007 74.257 70.9473 74.54V74.54Z" fill="white"/>
<path d="M103.123 74.5132C101.583 72.9071 100.128 71.3927 98.673 69.8745C98.4542 69.645 98.2123 69.4232 98.0319 69.167C97.5481 68.4825 97.5635 67.7903 98.1355 67.167C98.6884 66.5628 99.5982 66.4786 100.201 67.0828C102.309 69.2129 104.378 71.3774 106.424 73.5648C107.004 74.1843 106.931 74.9453 106.359 75.5534C104.37 77.6643 102.362 79.76 100.332 81.8289C99.6789 82.4981 98.8074 82.4828 98.1854 81.9053C97.5481 81.3164 97.5136 80.3986 98.1739 79.6911C99.7864 77.9741 101.422 76.28 103.123 74.5056V74.5132Z" fill="white"/>
<path d="M84.564 83.6721C83.2587 83.6912 82.5715 82.7122 82.9631 81.5535C83.8345 78.9684 84.7444 76.3985 85.6428 73.821C86.4644 71.4539 87.2821 69.0867 88.1152 66.7234C88.5183 65.5799 89.2861 65.1096 90.173 65.427C91.0867 65.752 91.413 66.5819 91.0214 67.7062C89.3245 72.5897 87.6161 77.4693 85.923 82.3566C85.662 83.1176 85.2473 83.6415 84.564 83.6759V83.6721Z" fill="white"/>
<path d="M95.7396 96.2383C96.5727 96.2383 97.402 96.223 98.2351 96.2383C99.2217 96.2613 99.8667 96.8655 99.8744 97.7336C99.882 98.5902 99.2332 99.2441 98.2581 99.2709C97.0104 99.3053 95.7626 99.2824 94.5149 99.2824C92.6337 99.2824 91.8083 99.8254 91.8006 101.072C91.793 102.334 92.6299 102.9 94.4765 102.923C95.0793 102.931 95.7012 102.957 96.2771 103.107C98.6074 103.722 100.124 105.959 99.859 108.307C99.5941 110.667 97.6285 112.552 95.2405 112.644C93.6127 112.705 91.9772 112.678 90.3456 112.656C89.3474 112.64 88.7332 112.028 88.7255 111.141C88.7216 110.25 89.3321 109.634 90.3226 109.615C91.601 109.585 92.8833 109.608 94.1617 109.604C95.9124 109.604 96.78 109.011 96.7992 107.806C96.8184 106.59 95.9508 105.952 94.2116 105.979C92.8218 106.001 91.5511 105.718 90.4569 104.812C88.8982 103.52 88.2993 101.359 88.9827 99.4506C89.6545 97.5768 91.4321 96.2842 93.4361 96.2345C94.2039 96.2154 94.9718 96.2345 95.7396 96.2345V96.2383Z" fill="white"/>
<path d="M81.5046 99.29C80.015 99.29 78.6751 99.3168 77.3391 99.2786C76.5636 99.2556 75.9992 98.8579 75.838 98.0548C75.6883 97.3091 75.9724 96.7317 76.6557 96.4028C76.9014 96.2842 77.2086 96.246 77.485 96.246C79.3086 96.2307 81.1284 96.223 82.9519 96.2307C83.9655 96.2345 84.6181 96.8196 84.6181 97.791C84.6181 101.095 84.622 104.403 84.5567 107.707C84.5106 109.933 82.998 111.818 80.8942 112.445C78.7366 113.088 76.3755 112.346 75.1585 110.445C74.6479 109.65 74.3676 108.652 74.2025 107.707C74.0336 106.743 74.6863 106.051 75.5577 105.979C76.4561 105.902 77.0819 106.449 77.2355 107.428C77.4581 108.862 78.3334 109.692 79.5313 109.6C80.7521 109.504 81.4969 108.594 81.5046 107.13C81.5161 104.56 81.5046 101.99 81.5046 99.29V99.29Z" fill="white"/>
</g>
<defs>
<clipPath id="clip0_901_7">
<rect width="78" height="89" fill="white" transform="translate(48 38)"/>
</clipPath>
</defs>
</svg>
