<svg width="173" height="173" viewBox="0 0 173 173" fill="none" xmlns="http://www.w3.org/2000/svg">
<circle cx="86.5" cy="86.5" r="86.5" fill="#992740"/>
<g clip-path="url(#clip0_901_5)">
<path d="M128.183 94.2787V73.1718H38.1676V74.2347C38.1676 86.4526 38.1676 98.6706 38.1676 110.894C38.1676 112.673 38.5104 114.353 39.4939 115.852C40.6363 117.597 42.2059 118.544 44.3418 118.524C48.102 118.489 51.8622 118.509 55.6224 118.519C57.197 118.519 58.1457 119.336 58.1209 120.645C58.096 121.913 57.1572 122.71 55.6522 122.715C52.0311 122.72 48.405 122.6 44.7889 122.745C39.2703 122.966 35.6989 119.171 34.4919 114.799C34.2088 113.771 34.0349 112.673 34.0349 111.61C34.0001 91.772 33.9803 71.9285 34.0349 52.085C34.0448 48.2697 35.5747 45.056 38.6842 42.7398C40.383 41.4764 42.3202 41.0302 44.4213 41.0302C68.701 41.0452 92.9856 41.0402 117.265 41.0452C119.401 41.0452 121.562 40.8998 123.673 41.1405C127.786 41.6117 131.154 45.046 132.072 49.5281C132.331 50.7764 132.415 52.085 132.415 53.3634C132.44 67.6369 132.435 81.9104 132.415 96.1839C132.415 96.9158 132.554 97.4824 133.111 98.0339C135.401 100.315 135.45 102.742 133.379 105.238C133.2 105.454 133.2 105.885 133.24 106.201C133.28 106.497 133.523 106.757 133.602 107.058C134.03 108.597 134.68 109.575 136.578 109.74C138.515 109.906 139.881 111.941 139.95 113.947C140 115.371 140.005 116.804 139.95 118.228C139.856 120.705 137.889 122.635 135.371 122.7C134.71 122.715 134.407 122.906 134.198 123.538C133.876 124.52 133.434 125.468 133.031 126.46C133.041 126.486 133.041 126.576 133.086 126.616C135.396 128.646 135.594 132.081 132.837 134.432C132.157 135.014 131.571 135.715 130.925 136.342C128.928 138.287 126.261 138.348 124.254 136.447C123.802 136.021 123.449 135.876 122.938 136.242C122.829 136.322 122.694 136.377 122.565 136.417C120.911 136.909 119.709 137.545 119.55 139.716C119.416 141.601 117.34 142.915 115.388 142.98C114.146 143.02 112.904 143 111.662 142.99C108.871 142.975 106.934 141.205 106.765 138.413C106.72 137.661 106.481 137.335 105.786 137.109C104.842 136.803 103.943 136.347 103.034 135.956C102.438 136.402 101.872 136.929 101.216 137.29C99.5423 138.207 97.4611 137.936 96.0206 136.618C95.0271 135.705 94.0734 134.743 93.1495 133.755C91.2819 131.765 91.262 129.098 93.1197 127.102C93.5419 126.651 93.6264 126.33 93.3383 125.759C92.8565 124.801 92.4889 123.783 92.0468 122.72C90.7802 122.72 89.4738 122.72 88.1674 122.72C83.7516 122.72 79.3358 122.71 74.9249 122.725C73.9116 122.725 73.0821 122.435 72.64 121.447C71.9992 120.018 72.9976 118.539 74.6517 118.529C78.238 118.504 81.8243 118.519 85.4106 118.519C85.7782 118.519 86.1507 118.519 86.6276 118.519C86.6276 117.196 86.6276 115.982 86.6276 114.774C86.6375 111.51 88.2568 109.755 91.4607 109.45C91.7537 109.42 92.1561 109.159 92.2753 108.898C92.7522 107.865 93.1396 106.782 93.5817 105.669C92.5733 104.682 91.7637 103.549 91.7239 102.005C91.6842 100.641 92.1064 99.4727 93.0403 98.5001C93.9294 97.5776 94.8235 96.6601 95.7474 95.7677C97.6597 93.9228 100.312 93.8726 102.259 95.6976C102.796 96.1989 103.208 96.2841 103.769 95.863C103.849 95.8028 103.953 95.7728 104.053 95.7377C105.617 95.1962 106.819 94.6247 106.993 92.4789C107.147 90.6239 108.786 89.4607 110.723 89.2702C112.159 89.1298 113.619 89.1449 115.065 89.195C117.787 89.2853 119.58 91.0099 119.769 93.7523C119.818 94.4642 120.017 94.8553 120.713 94.9606C120.812 94.9756 120.906 95.0308 121.001 95.0759C122.501 95.7928 123.981 96.6301 125.411 94.8703C125.67 94.5495 126.286 94.4893 126.753 94.389C127.185 94.2988 127.637 94.3138 128.183 94.2737V94.2787ZM128.183 68.805C128.183 62.9342 128.302 57.1887 128.143 51.4533C128.034 47.5979 125.322 45.2365 121.527 45.2365C113.595 45.2365 105.662 45.2365 97.7293 45.2365C79.9666 45.2365 62.2039 45.2415 44.4412 45.2265C42.7126 45.2265 41.2671 45.7679 40.1247 47.0765C38.7339 48.6708 38.1825 50.5709 38.1776 52.6565C38.1726 57.7402 38.1776 62.8239 38.1776 67.9026C38.1776 68.2034 38.2173 68.4992 38.2372 68.805H128.183ZM130.826 101.679C130.274 101.112 129.778 100.601 129.271 100.089C128.129 98.9329 126.971 98.9279 125.799 100.074C124.671 101.177 123.961 101.192 122.56 100.516C120.956 99.7384 119.297 99.0516 117.613 98.465C116.158 97.9586 115.641 97.4072 115.611 95.8429C115.581 94.2319 114.777 93.4264 113.197 93.4264C111.618 93.4264 110.829 94.2202 110.833 95.8078C110.818 97.4774 110.356 97.9787 108.826 98.5051C107.237 99.0516 105.667 99.6933 104.167 100.455C102.538 101.283 101.932 101.268 100.605 99.954C98.832 98.1893 99.2592 98.1893 97.4859 99.9641C96.2971 101.154 96.2739 102.345 97.4164 103.539C98.524 104.692 98.5489 105.354 97.8634 106.808C97.1233 108.367 96.4478 109.966 95.8964 111.605C95.3649 113.185 94.8334 113.696 93.1545 113.711C90.8398 113.736 90.8249 113.736 90.8398 116.017C90.8547 118.93 90.512 118.484 93.2985 118.519C94.8682 118.539 95.3798 119.025 95.8865 120.519C96.4428 122.154 97.0885 123.768 97.8435 125.317C98.5886 126.847 98.5737 127.528 97.3766 128.747C96.2838 129.86 96.2938 130.978 97.4064 132.101C98.5257 133.23 99.6566 133.23 100.799 132.101C101.976 130.933 102.612 130.923 104.117 131.67C105.592 132.407 107.117 133.068 108.677 133.59C110.52 134.206 110.927 134.638 110.937 136.638C110.947 139.064 110.689 138.784 113.118 138.789C115.676 138.799 115.676 138.789 115.716 136.202C115.74 134.693 116.212 134.191 117.668 133.68C119.252 133.123 120.837 132.517 122.337 131.76C124.075 130.882 124.592 130.877 125.978 132.251C127.791 134.046 127.289 134.021 129.082 132.236C130.885 130.441 130.875 130.426 129.102 128.581C128.089 127.528 128.059 126.806 128.695 125.483C129.43 123.959 130.13 122.4 130.662 120.8C131.298 118.89 131.66 118.514 133.652 118.514C136.056 118.514 135.808 118.7 135.808 116.318C135.808 114.624 134.962 113.751 133.27 113.701C131.844 113.661 131.253 113.14 130.816 111.786C130.379 110.432 130.026 109.003 129.311 107.81C127.433 104.677 128.322 104.301 130.15 102.481C130.364 102.27 130.538 102.02 130.821 101.679H130.826Z" fill="white"/>
<path d="M80.6814 95.8027C79.0224 93.9177 77.4428 92.1278 75.8732 90.333C74.8748 89.1899 74.835 87.9616 75.7539 87.1043C76.6927 86.2269 77.9594 86.3874 78.9975 87.5505C80.7907 89.5659 82.5838 91.5914 84.3571 93.6219C85.6387 95.0908 85.6387 96.5046 84.3422 97.9886C82.5491 100.049 80.736 102.1 78.9181 104.145C77.9793 105.198 76.7275 105.343 75.8136 104.556C74.8549 103.729 74.8449 102.441 75.8136 101.333C77.4031 99.5077 79.0124 97.7029 80.6814 95.8078V95.8027Z" fill="white"/>
<path d="M50.4461 95.8128C51.976 97.5475 53.4563 99.227 54.9365 100.912C55.1848 101.197 55.4531 101.473 55.6617 101.794C56.2478 102.691 56.0889 103.844 55.314 104.536C54.5441 105.218 53.3072 105.303 52.587 104.521C50.4412 102.175 48.3251 99.7935 46.2886 97.3519C45.4839 96.3843 45.613 94.9805 46.4724 93.9778C48.4096 91.7167 50.3816 89.4857 52.3734 87.2798C53.2129 86.3473 54.4745 86.3122 55.3289 87.0842C56.1783 87.8563 56.2727 89.1247 55.463 90.0773C54.1417 91.6315 52.7658 93.1456 51.4197 94.6747C51.1018 95.0307 50.7988 95.4017 50.4461 95.8178V95.8128Z" fill="white"/>
<path d="M69.6898 87.365C69.1931 89.4958 68.6616 91.792 68.1201 94.0881C67.3006 97.5625 66.5058 101.047 65.6216 104.506C65.4528 105.163 65.0405 105.855 64.5388 106.301C63.898 106.873 63.0437 106.772 62.3284 106.271C61.5833 105.75 61.2555 105.008 61.4641 104.095C62.1893 100.952 62.9245 97.8132 63.6596 94.6697C64.2706 92.0677 64.8766 89.4707 65.5074 86.8737C65.8998 85.2694 67.2161 84.5224 68.5076 85.1541C69.3371 85.5602 69.6997 86.2671 69.6848 87.36L69.6898 87.365Z" fill="white"/>
<path d="M67.4192 120.575C67.4341 121.753 66.5003 122.71 65.333 122.715C64.1856 122.715 63.2021 121.733 63.212 120.59C63.2219 119.467 64.1359 118.549 65.2634 118.524C66.4605 118.499 67.3993 119.391 67.4142 120.575H67.4192Z" fill="white"/>
<path d="M105.32 64.2176C102.18 64.2176 99.0411 64.2627 95.9018 64.2026C92.9612 64.1474 90.418 62.2172 89.4643 59.4598C88.5156 56.7023 89.3153 53.7193 91.5307 51.7891C92.8668 50.626 94.4414 50.0745 96.1899 50.0695C102.295 50.0544 108.399 50.0243 114.504 50.0795C118.577 50.1146 121.607 53.253 121.567 57.2438C121.533 61.1644 118.463 64.1725 114.42 64.2276C112.905 64.2477 111.385 64.2276 109.865 64.2276C108.345 64.2276 106.83 64.2276 105.31 64.2276V64.2176H105.32ZM105.414 60.0113C108.275 60.0113 111.136 60.0213 113.997 60.0062C114.474 60.0062 114.966 59.9661 115.423 59.8358C116.655 59.4898 117.474 58.2766 117.405 56.9931C117.335 55.6946 116.401 54.6067 115.13 54.3861C114.693 54.3109 114.241 54.3059 113.794 54.3059C108.489 54.3009 103.179 54.3009 97.8738 54.3059C97.1486 54.3059 96.4233 54.2858 95.7081 54.371C94.5358 54.5064 93.756 55.2033 93.4083 56.3363C92.8221 58.2465 94.1732 59.9812 96.324 60.0062C99.354 60.0463 102.389 60.0163 105.424 60.0163L105.414 60.0113Z" fill="white"/>
<path d="M78.5109 57.2037C78.491 61.0641 75.3418 64.2226 71.5121 64.2176C67.6576 64.2176 64.4587 60.9638 64.5084 57.0884C64.5531 53.218 67.7073 50.0645 71.5221 50.0695C75.3865 50.0695 78.5358 53.2831 78.5109 57.2037ZM74.3434 57.1285C74.3335 55.5693 73.0321 54.2959 71.4724 54.3209C69.9375 54.346 68.7305 55.5743 68.7206 57.1235C68.7106 58.7078 69.9673 60.0012 71.5171 60.0012C73.052 60.0012 74.3534 58.6777 74.3434 57.1285Z" fill="white"/>
<path d="M46.3887 57.1235C46.3986 53.248 49.5081 50.0895 53.3427 50.0645C57.2072 50.0444 60.3713 53.248 60.3564 57.1686C60.3415 61.0591 57.242 64.2026 53.4024 64.2176C49.523 64.2327 46.3837 61.0541 46.3936 57.1235H46.3887ZM56.1691 57.1937C56.189 55.6044 54.9571 54.3259 53.3825 54.3159C51.8625 54.3059 50.6009 55.5242 50.5562 57.0533C50.5114 58.6175 51.7483 59.9511 53.298 59.9962C54.8329 60.0414 56.1492 58.7579 56.1691 57.1887V57.1937Z" fill="white"/>
<path d="M100.57 116.082C100.575 108.968 106.293 103.223 113.346 103.243C120.379 103.263 126.112 109.074 126.077 116.153C126.042 123.172 120.285 128.962 113.331 128.972C106.317 128.982 100.565 123.177 100.57 116.087V116.082ZM113.341 107.459C108.597 107.449 104.778 111.264 104.758 116.032C104.738 120.845 108.592 124.761 113.331 124.746C118.025 124.731 121.88 120.83 121.89 116.092C121.899 111.345 118.06 107.464 113.346 107.454L113.341 107.459Z" fill="white"/>
</g>
<defs>
<clipPath id="clip0_901_5">
<rect width="106" height="102" fill="white" transform="translate(34 41)"/>
</clipPath>
</defs>
</svg>
