<svg width="173" height="173" viewBox="0 0 173 173" fill="none" xmlns="http://www.w3.org/2000/svg">
<circle cx="86.5" cy="86.5" r="86.5" fill="#992740"/>
<path d="M40 84.4546C40 71.2535 40 58.056 40 44.8585C40 40.5029 42.5138 38 46.8839 38C73.3116 38 99.7393 38 126.163 38C130.464 38 133 40.5247 133 44.8113C133 71.268 133 97.7284 133 124.185C133 128.472 130.464 131 126.163 131C99.7066 131 73.2462 131 46.7895 131C42.5501 131 40 128.461 40 124.232C40 110.973 40 97.7138 40 84.4546ZM86.5999 41.0987C73.3733 41.0987 60.1504 41.0987 46.9239 41.0987C44.2248 41.0987 43.1023 42.2103 43.1023 44.8839C43.1023 71.2753 43.1023 97.6666 43.1023 124.054C43.1023 126.801 44.2066 127.901 46.9566 127.901C73.3152 127.901 99.6775 127.901 126.036 127.901C128.793 127.901 129.905 126.801 129.905 124.069C129.905 97.6775 129.905 71.2862 129.905 44.8984C129.905 42.2175 128.782 41.0987 126.098 41.0987C112.933 41.0987 99.7683 41.0987 86.6035 41.0987H86.5999Z" fill="white"/>
<path d="M86.4874 124.81C74.3179 124.81 62.1485 124.81 49.979 124.81C47.3199 124.81 46.1865 123.666 46.1865 120.981C46.1865 98.731 46.1865 76.4845 46.1865 54.2344C46.1865 51.5063 47.3127 50.3801 50.0481 50.3801C74.3542 50.3801 98.6641 50.3801 122.97 50.3801C125.691 50.3801 126.81 51.5099 126.81 54.2562C126.81 76.5063 126.81 98.7528 126.81 121.003C126.81 123.669 125.666 124.806 122.992 124.806C110.823 124.806 98.6532 124.806 86.4837 124.806L86.4874 124.81ZM123.642 121.657V53.5587H49.3724V121.66H123.646L123.642 121.657Z" fill="white"/>
<path d="M118.992 47.2887C117.543 47.2887 116.09 47.2996 114.64 47.2887C113.55 47.2778 112.875 46.6966 112.853 45.7884C112.831 44.8548 113.547 44.201 114.662 44.1973C117.594 44.1864 120.525 44.1864 123.457 44.1973C124.554 44.201 125.208 44.7894 125.226 45.7158C125.244 46.6893 124.59 47.2778 123.435 47.2887C121.953 47.2996 120.474 47.2887 118.992 47.2887Z" fill="white"/>
<path d="M57.8005 47.2851C56.2493 47.2924 55.4974 46.7838 55.501 45.7448C55.5046 44.7059 56.2675 44.1901 57.8114 44.1901C58.1129 44.1901 58.418 44.1719 58.7159 44.2082C59.5732 44.3136 60.1799 44.9965 60.1508 45.7993C60.1217 46.6167 59.5006 47.2233 58.6178 47.2815C58.3454 47.2996 58.0729 47.2815 57.8005 47.2815V47.2851Z" fill="white"/>
<path d="M65.5156 47.2851C63.9681 47.2851 63.2306 46.7729 63.2524 45.7158C63.2742 44.6987 64.0189 44.1901 65.4938 44.1901C65.7953 44.1901 66.1004 44.1719 66.4019 44.201C67.321 44.2918 67.9386 44.9784 67.8913 45.8248C67.8477 46.6458 67.2302 47.227 66.3366 47.2815C66.0641 47.296 65.7917 47.2815 65.5192 47.2815L65.5156 47.2851Z" fill="white"/>
<path d="M50.0406 47.2851C48.4676 47.2924 47.7701 46.8129 47.7774 45.7376C47.7847 44.6732 48.4967 44.1901 50.0696 44.1901C50.3421 44.1901 50.6145 44.1755 50.8833 44.201C51.8097 44.2882 52.4054 44.9348 52.3764 45.8102C52.3509 46.6567 51.7697 47.2234 50.8579 47.2851C50.5855 47.3033 50.313 47.2851 50.0406 47.2851Z" fill="white"/>
<path d="M98.1593 101.557C100.877 101.557 103.597 101.554 106.315 101.557C107.492 101.557 108.156 102.109 108.175 103.061C108.193 104.053 107.506 104.649 106.293 104.649C100.855 104.652 95.4166 104.652 89.9785 104.649C88.7579 104.649 88.0641 104.067 88.0713 103.083C88.0786 102.102 88.7579 101.554 90.0003 101.554C92.7175 101.55 95.4384 101.554 98.1556 101.554L98.1593 101.557Z" fill="white"/>
<path d="M74.8333 104.656C72.0833 104.656 69.3334 104.667 66.5871 104.652C65.2975 104.645 64.5237 103.69 64.9052 102.593C65.1377 101.924 65.6426 101.564 66.351 101.564C72.0288 101.557 77.7103 101.554 83.3882 101.568C84.3218 101.568 84.9393 102.244 84.9284 103.116C84.9176 104.013 84.2746 104.641 83.2611 104.645C80.453 104.663 77.6413 104.652 74.8333 104.652V104.656Z" fill="white"/>
<path d="M74.866 89.1589C77.4997 89.1589 80.1334 89.1589 82.7634 89.1589C83.0649 89.1589 83.3737 89.148 83.668 89.2025C84.4127 89.3369 84.8413 89.8055 84.9103 90.5538C84.9794 91.3022 84.6524 91.8725 83.9404 92.1159C83.5517 92.2467 83.1085 92.2576 82.6908 92.2612C77.4852 92.2685 72.2795 92.2685 67.0739 92.2612C66.7433 92.2612 66.4019 92.2685 66.0822 92.2031C65.254 92.036 64.7708 91.3857 64.8289 90.572C64.8834 89.8055 65.4247 89.2497 66.242 89.1807C66.7542 89.1371 67.2701 89.1553 67.7859 89.1553C70.1472 89.1553 72.5084 89.1553 74.866 89.1553V89.1589Z" fill="white"/>
<path d="M91.1185 110.846C88.6701 110.846 86.2253 110.85 83.7769 110.846C82.5672 110.846 81.8479 110.254 81.8516 109.291C81.8588 108.332 82.5781 107.751 83.7951 107.751C88.721 107.751 93.6432 107.747 98.5691 107.751C99.7098 107.751 100.429 108.343 100.454 109.262C100.48 110.214 99.7352 110.831 98.551 110.846C98.3693 110.846 98.1877 110.846 98.0061 110.846C95.7102 110.846 93.4144 110.846 91.1185 110.846Z" fill="white"/>
<path d="M71.7204 86.0566C69.9985 86.0566 68.2766 86.0639 66.5547 86.0566C65.7192 86.053 65.0726 85.7297 64.8691 84.8505C64.6257 83.8152 65.3123 82.9688 66.482 82.9579C70.0166 82.9289 73.5512 82.9325 77.0858 82.9579C78.1248 82.9652 78.7278 83.5973 78.7205 84.5091C78.7169 85.4209 78.1139 86.0239 77.0676 86.0457C75.284 86.0784 73.504 86.0566 71.7204 86.0566Z" fill="white"/>
<path d="M67.2155 95.3635C68.9083 95.3635 70.6011 95.3562 72.2976 95.3635C73.3874 95.3708 74.074 95.952 74.103 96.8529C74.1321 97.7828 73.4128 98.4513 72.2976 98.4585C68.8502 98.473 65.4028 98.473 61.9554 98.4585C60.8256 98.4549 60.1354 97.8083 60.1608 96.8529C60.1863 95.9302 60.8365 95.3708 61.9517 95.3635C63.7063 95.3526 65.4609 95.3635 67.2118 95.3635H67.2155Z" fill="white"/>
<path d="M67.1247 67.4428C65.3991 67.4428 63.6773 67.4501 61.9517 67.4428C60.851 67.4355 60.1863 66.8688 60.1608 65.9498C60.1354 64.998 60.8292 64.355 61.9517 64.3514C65.3991 64.3405 68.8465 64.3405 72.294 64.3514C73.4019 64.3514 74.1321 65.0198 74.0994 65.9498C74.0703 66.8507 73.3729 67.4392 72.294 67.4464C70.5684 67.4573 68.8465 67.4464 67.121 67.4464L67.1247 67.4428Z" fill="white"/>
<path d="M71.764 110.846C70.0421 110.846 68.3166 110.853 66.5947 110.846C65.4976 110.839 64.8437 110.261 64.8256 109.335C64.8074 108.368 65.4794 107.758 66.6201 107.755C70.0675 107.747 73.5113 107.744 76.9587 107.755C78.063 107.755 78.7096 108.332 78.7242 109.269C78.7423 110.247 78.0848 110.839 76.9296 110.846C75.2077 110.857 73.4822 110.846 71.7603 110.846H71.764Z" fill="white"/>
<path d="M67.1293 61.2527C65.4364 61.2527 63.7436 61.26 62.0472 61.2527C60.8411 61.2491 60.1364 60.6424 60.1618 59.658C60.1872 58.7135 60.8665 58.1577 62.0435 58.1577C65.4292 58.1541 68.8185 58.1541 72.2041 58.1577C73.392 58.1577 74.1367 58.7934 74.104 59.7452C74.0713 60.6679 73.3557 61.2491 72.2077 61.2527C70.5149 61.26 68.8221 61.2527 67.1256 61.2527H67.1293Z" fill="white"/>
<path d="M71.6947 117.036C70.0018 117.036 68.309 117.043 66.6162 117.036C65.4719 117.029 64.8035 116.429 64.8216 115.463C64.8398 114.54 65.501 113.948 66.5944 113.945C70.0418 113.934 73.4856 113.934 76.933 113.945C78.0773 113.948 78.742 114.562 78.7239 115.536C78.7057 116.48 78.0773 117.029 76.9548 117.04C75.2002 117.051 73.4492 117.04 71.6947 117.04V117.036Z" fill="white"/>
<path d="M71.7244 73.6365C70.0315 73.6365 68.3387 73.6438 66.6459 73.6365C65.4871 73.6292 64.8186 73.0516 64.8223 72.0926C64.8223 71.1409 65.5052 70.5451 66.6568 70.5415C70.0715 70.5306 73.4862 70.5306 76.9009 70.5415C78.0597 70.5451 78.7245 71.1409 78.7209 72.1035C78.7209 73.0771 78.0706 73.6292 76.89 73.6365C75.1681 73.6474 73.4462 73.6365 71.7207 73.6365H71.7244Z" fill="white"/>
<path d="M71.764 79.8411C70.0711 79.8411 68.3783 79.852 66.6891 79.8411C65.5012 79.8338 64.8437 79.2889 64.8255 78.3372C64.8074 77.3491 65.4903 76.7461 66.7109 76.7424C70.0966 76.7315 73.4786 76.7315 76.8642 76.7424C78.0448 76.7461 78.706 77.3128 78.7278 78.2681C78.7459 79.2635 78.0812 79.8338 76.8461 79.8447C75.1532 79.8556 73.4604 79.8447 71.7712 79.8447L71.764 79.8411Z" fill="white"/>
<path d="M88.7793 79.8411C87.0865 79.8411 85.3937 79.852 83.7009 79.8375C82.542 79.8266 81.8555 79.2381 81.8555 78.2972C81.8555 77.3636 82.5566 76.7424 83.7009 76.7388C87.1156 76.7243 90.5339 76.7243 93.9486 76.7388C95.1111 76.7424 95.7795 77.3382 95.7795 78.2972C95.7795 79.2635 95.1329 79.8266 93.9486 79.8375C92.2267 79.852 90.5012 79.8411 88.7793 79.8411Z" fill="white"/>
<path d="M81.8955 58.1541C82.8618 58.1541 83.8281 58.1395 84.7907 58.1577C85.797 58.1759 86.4654 58.7752 86.4945 59.6507C86.5235 60.5589 85.8297 61.2346 84.7944 61.2455C82.8327 61.2636 80.8711 61.2636 78.9095 61.2455C77.8487 61.2346 77.1985 60.5952 77.2203 59.6544C77.2421 58.7535 77.8741 58.1759 78.9058 58.1577C79.9012 58.1395 80.8965 58.1541 81.8919 58.1577L81.8955 58.1541Z" fill="white"/>
<path d="M84.9796 82.9797C85.5536 82.9797 86.1348 82.9252 86.6979 82.9943C87.5298 83.0924 87.9802 83.6336 88.0238 84.4655C88.0674 85.2683 87.5225 85.9513 86.6797 86.0058C85.5354 86.0784 84.3839 86.0784 83.2396 86.0094C82.4004 85.9622 81.8483 85.2756 81.8555 84.4909C81.8592 83.7026 82.415 83.0706 83.2578 82.9834C83.8244 82.9252 84.4057 82.9725 84.9796 82.9725V82.9834V82.9797Z" fill="white"/>
<path d="M54.77 82.9398C56.3067 82.9398 57.0695 83.4701 57.055 84.5163C57.0405 85.5589 56.2885 86.0566 54.7301 86.0566C53.1789 86.0566 52.4197 85.5589 52.3979 84.5236C52.3761 83.4592 53.1571 82.9398 54.77 82.9398Z" fill="white"/>
<path d="M54.7013 117.032C53.1501 117.04 52.3945 116.535 52.3945 115.496C52.3945 114.457 53.1683 113.937 54.7013 113.937C55.0028 113.937 55.3079 113.919 55.6094 113.956C56.4668 114.057 57.077 114.747 57.0516 115.543C57.0262 116.357 56.3977 116.971 55.5186 117.029C55.2462 117.047 54.9737 117.029 54.7013 117.029V117.032Z" fill="white"/>
<path d="M54.7198 79.8229C53.1541 79.8411 52.4094 79.3543 52.3985 78.3154C52.3877 77.251 53.1687 76.7315 54.7779 76.7388C55.1085 76.7388 55.45 76.7315 55.7697 76.7969C56.587 76.9677 57.0229 77.5089 57.0447 78.3299C57.0629 79.1146 56.4562 79.7321 55.6244 79.8193C55.3265 79.852 55.0213 79.8229 54.7198 79.8229Z" fill="white"/>
<path d="M54.6546 73.6292C53.1579 73.6365 52.4314 73.1534 52.4023 72.1398C52.3697 71.0936 53.1543 70.5378 54.6655 70.5378C54.9961 70.5378 55.3339 70.516 55.6609 70.5633C56.5109 70.6868 57.1067 71.4024 57.0522 72.1943C56.9977 72.979 56.4019 73.5602 55.5591 73.6256C55.2576 73.6474 54.9561 73.6292 54.651 73.6292H54.6546Z" fill="white"/>
<path d="M54.7309 89.1662C54.9742 89.1662 55.214 89.1516 55.4574 89.1662C56.4092 89.2279 57.0449 89.8346 57.0558 90.681C57.0667 91.5165 56.4346 92.174 55.4937 92.2503C54.9815 92.2902 54.462 92.2902 53.9535 92.2503C53.0162 92.174 52.3842 91.5092 52.3987 90.6737C52.4132 89.8309 53.0526 89.2243 54.0043 89.1662C54.2441 89.1516 54.4875 89.1662 54.7309 89.1662Z" fill="white"/>
<path d="M54.6692 67.4392C53.1398 67.4392 52.3697 66.9088 52.3951 65.8662C52.4206 64.8527 53.1689 64.3441 54.6438 64.3441C54.9453 64.3441 55.2504 64.326 55.5519 64.355C56.4129 64.4313 57.045 65.0888 57.0559 65.888C57.0631 66.7235 56.402 67.3847 55.4865 67.4392C55.2141 67.4537 54.9416 67.4392 54.6692 67.4392Z" fill="white"/>
<path d="M54.6613 98.4622C54.4797 98.4622 54.298 98.4694 54.1164 98.4622C53.0702 98.4113 52.3727 97.7574 52.3981 96.8602C52.4236 95.9883 53.0956 95.3962 54.1091 95.3671C54.5632 95.3526 55.0173 95.349 55.4714 95.3708C56.405 95.418 57.0552 96.0537 57.0552 96.8965C57.0552 97.692 56.4377 98.3532 55.5695 98.4476C55.2716 98.4803 54.9664 98.4513 54.6613 98.4513V98.4622Z" fill="white"/>
<path d="M54.7846 101.561C56.314 101.561 57.0841 102.095 57.0514 103.137C57.0223 104.147 56.2667 104.656 54.7991 104.656C54.4976 104.656 54.1925 104.674 53.891 104.645C53.0264 104.565 52.3979 103.911 52.3907 103.108C52.3834 102.273 53.0482 101.615 53.9636 101.564C54.2361 101.55 54.5085 101.564 54.781 101.564L54.7846 101.561Z" fill="white"/>
<path d="M54.7377 61.2527C53.1756 61.2527 52.4273 60.7659 52.3982 59.7343C52.3692 58.6772 53.1502 58.1541 54.7595 58.1541C56.2961 58.1541 57.0626 58.6735 57.0553 59.7125C57.0444 60.7441 56.2779 61.2527 54.7377 61.2527Z" fill="white"/>
<path d="M54.6466 110.842C54.4359 110.842 54.2216 110.85 54.0109 110.842C53.0773 110.795 52.4198 110.174 52.398 109.331C52.3762 108.467 53.0627 107.794 54.0363 107.751C54.4904 107.733 54.9445 107.733 55.3986 107.751C56.3721 107.787 57.0659 108.445 57.0587 109.309C57.0514 110.178 56.3648 110.806 55.3768 110.842C55.1334 110.85 54.8936 110.842 54.6502 110.842H54.6466Z" fill="white"/>
</svg>
